<?xml version="1.0" encoding="UTF-8"?>
<svg xmlns="http://www.w3.org/2000/svg" xmlns:xlink="http://www.w3.org/1999/xlink" viewBox="0 0 88.98 83.71">
  <defs>
    <linearGradient id="_Áåçûìÿííûé_ãðàäèåíò_443" data-name="Áåçûìÿííûé ãðàäèåíò 443" x1="18.64" y1="51.07" x2="55.1" y2="78.69" gradientUnits="userSpaceOnUse">
      <stop offset="0" stop-color="#000"/>
      <stop offset="1" stop-color="#8ff5f0"/>
    </linearGradient>
    <linearGradient id="_Áåçûìÿííûé_ãðàäèåíò_449" data-name="Áåçûìÿííûé ãðàäèåíò 449" x1="37.31" y1="27.59" x2="44.69" y2="40.69" gradientUnits="userSpaceOnUse">
      <stop offset="0" stop-color="#0147b8"/>
      <stop offset=".35" stop-color="#0149bc"/>
      <stop offset=".74" stop-color="#034fc9"/>
      <stop offset="1" stop-color="#0656d7"/>
    </linearGradient>
    <linearGradient id="_Áåçûìÿííûé_ãðàäèåíò_443-2" data-name="Áåçûìÿííûé ãðàäèåíò 443" x1="53.24" y1="36.81" x2="33.01" y2="68.91" xlink:href="#_Áåçûìÿííûé_ãðàäèåíò_443"/>
    <linearGradient id="_Áåçûìÿííûé_ãðàäèåíò_443-3" data-name="Áåçûìÿííûé ãðàäèåíò 443" x1="28.47" y1="21.93" x2="51" y2="52.21" xlink:href="#_Áåçûìÿííûé_ãðàäèåíò_443"/>
    <linearGradient id="_Áåçûìÿííûé_ãðàäèåíò_443-4" data-name="Áåçûìÿííûé ãðàäèåíò 443" x1="49.23" y1="1.31" x2="38.21" y2="39.22" xlink:href="#_Áåçûìÿííûé_ãðàäèåíò_443"/>
    <radialGradient id="_Áåçûìÿííûé_ãðàäèåíò_11" data-name="Áåçûìÿííûé ãðàäèåíò 11" cx="44.98" cy="21.23" fx="44.98" fy="21.23" r="5.29" gradientUnits="userSpaceOnUse">
      <stop offset="0" stop-color="#d9d9d5"/>
      <stop offset="1" stop-color="#fff"/>
    </radialGradient>
  </defs>
  <g style="isolation: isolate;">
    <g id="_0" data-name="0">
      <g id="_5" data-name="5">
        <g>
          <path d="M41.15,65.12h6.66s-4.42-5.13-4.42-5.13c-16.03,.66-24.8,.91-29.9,4.38-1.13,.77-2.1,1.77-2.72,2.99-5.26,10.33,26.69,8,29.78,8,.83,0,.6-10.24,.6-10.24Z" style="fill: #003893; mix-blend-mode: multiply; opacity: .5;"/>
          <path d="M58.22,59.51c-8.92-5.15-23.37-5.15-32.29,0-8.92,5.15-8.92,13.49,0,18.64,8.92,5.15,23.37,5.15,32.29,0,8.92-5.15,8.92-13.49,0-18.64Zm-.26,18.49c-8.77,5.06-23,5.06-31.77,0s-8.77-13.28,0-18.34,23-5.06,31.77,0,8.77,13.28,0,18.34Z" style="fill: url(#_Áåçûìÿííûé_ãðàäèåíò_443); mix-blend-mode: screen;"/>
          <g>
            <path d="M55.88,21.55c-.8-.05-4.48-2.16-7.17-3.61-.76-.41-1.42-.57-2.28-.6-.61-.02-1.38-.02-2.01,.44-.84,.61-1.33,1.92-.94,2.88,.34,.83,1.08,1.37,2.24,1.86,3.12,1.33,9.39,3.48,10.28,3.39l-.12-4.36Z" style="fill: #0147b8;"/>
            <g>
              <path d="M47.76,62c-.96-.43-2.04-.45-3.02-.85-1.02-.42-1.95-.02-2.95,.28-.51,.15-1.25,.24-1.23,.92,0,.36,.11,.73,.34,1.01,.18,.22,.45,.37,.73,.43,.86,.17,4.85,1.49,6.7,1.55,2.42,.07,1.45-2.43-.57-3.32Z" style="fill: #3dc4bd;"/>
              <path d="M47.75,61.93c-1.07-.45-3.04-1.02-3.53-1.76-.17-.26-.28-.51-.41-.79-.22-.49-1.28-.44-1.69-.4-.4,.04-.9,.1-1.18,.41-.4,.43-.22,1.05-.27,1.57-.06,.6-.29,1.25,.15,1.76,.18,.22,.45,.37,.73,.43,.86,.17,4.85,1.49,6.7,1.55,2.42,.07,1.23-2.04-.49-2.76Z" style="fill: #171319;"/>
            </g>
            <g>
              <path d="M38.75,68.67c-.74,.38-.81,1.78-.67,2.61,.21,1.23-.04,3.78,.88,5.1,.74,1.06,2.12,1.47,3.42,1.53,.25,.01,.53,.01,.74-.13,.22-.15,.32-.41,.37-.67,.22-1.08-.03-1.96-.43-3-.57-1.48-.99-3.21-1.42-4.72-.31-1.09-1.86-1.26-2.89-.73Z" style="fill: #3dc4bd;"/>
              <path d="M39.12,67.94c-.77,.43-1.18,1.54-.99,2.4,.31,1.43,.34,2.6,.48,3.69,.19,1.53,1.35,2.79,2.87,3.07,.3,.06,.6,.09,.9,.1,.25,.01,.53,.01,.74-.13,.22-.15,.32-.41,.37-.67,.22-1.08-.29-2.16-.68-3.19-.57-1.48-.73-3.01-1.16-4.52-.32-1.12-1.47-1.35-2.53-.76Z" style="fill: #171319;"/>
            </g>
            <g>
              <path d="M40.86,51.03c-.23,1.65-.91,1.85-1.03,3.52-.12,1.72,.41,2.99,.41,5.75,0,1.68,4.64,1.68,4.64-.03,0-1.32,.47-5.97,.81-7.1,.27-.89,.52-1.2,.82-2.09,1.12-3.34,1.64-8.04,1.64-8.04-.73-.4-1.78-.35-2.72-.28-1.07,.08-4.28,.12-4.49,1.05-.15,.65,.02,6.49-.08,7.23Z" style="fill: #12126b;"/>
              <path d="M38.11,54.49c-.23,2.44-.91,2.74-1.03,5.2-.12,2.55,.63,5.48,.63,9.56,0,1.31,4.42,1.25,4.42-.05,0-1.95,.58-8.87,.92-10.55,.27-1.32,.58-2.64,.88-3.95,1.12-4.94,1.31-10.41,1.31-10.41-.73-.59-1.78-.52-2.72-.42-1.07,.12-4.28,.18-4.49,1.56-.15,.97,.18,7.96,.08,9.05Z" style="fill: #12126b;"/>
            </g>
            <path d="M47.39,17.93c-.56-.55-1.41-.66-2.13-.36-5.01,2.15-7.57,5.46-7.92,6.84-.65,2.53,1.18,6.27,1.04,11.64,0,0-.65,4.98-1.18,8.4,.64,2.12,7.28,2.56,8.82,1.53l.7-3.17c.18,.61,.8,2.39,.8,2.39,0,0,1.35-1.22,1.3-2.58-.11-3.3-.4-7.47-.35-8.61,0-.87,1.04-13.98-1.09-16.09Z" style="fill: #0147b8;"/>
            <path d="M36.33,29.02c.19,1.76,1.14,7.3,1.56,8.07,.86,1.56,7.47,4.47,8.05,4.68,1.24,.45,2.87-2.04,1.82-2.81-.49-.36-5.59-3.19-6.21-3.94-.62-.75-.28-4.69-.43-8.2-.04-.85-.31-1.69-.87-2.32-.59-.67-1.44-1.13-2.44-.71-.87,.37-1.77,2.46-1.48,5.24Z" style="fill: url(#_Áåçûìÿííûé_ãðàäèåíò_449);"/>
          </g>
          <path d="M58.22,45.2c-2.54-1.46-5.53-2.5-8.71-3.13-.22,0-.46-.01-.7-.03,0,.04,0,.07,0,.11,3.34,.61,6.5,1.67,9.15,3.2,8.77,5.06,8.77,13.28,0,18.34-8.77,5.06-23,5.06-31.77,0-8.77-5.06-8.77-13.28,0-18.34,3.24-1.87,7.23-3.05,11.41-3.53,.01-.07,.02-.15,.03-.22-4.29,.49-8.38,1.69-11.7,3.61-8.92,5.15-8.92,13.49,0,18.64,8.92,5.15,23.37,5.15,32.29,0,8.92-5.15,8.92-13.49,0-18.64Z" style="fill: url(#_Áåçûìÿííûé_ãðàäèåíò_443-2); mix-blend-mode: screen;"/>
          <path d="M58.22,30.9c-2.74-1.58-6.02-2.68-9.49-3.29,0,.07,0,.15,0,.22,3.38,.6,6.56,1.67,9.23,3.21,8.77,5.06,8.77,13.28,0,18.34-8.77,5.06-23,5.06-31.77,0-8.77-5.06-8.77-13.28,0-18.34,2.9-1.67,6.4-2.78,10.1-3.35,0-.07,0-.15,0-.22-3.79,.57-7.39,1.7-10.36,3.42-8.92,5.15-8.92,13.49,0,18.64,8.92,5.15,23.37,5.15,32.29,0,8.92-5.15,8.92-13.49,0-18.64Z" style="fill: url(#_Áåçûìÿííûé_ãðàäèåíò_443-3); mix-blend-mode: screen;"/>
          <path d="M58.22,16.59c-8.92-5.15-23.37-5.15-32.29,0-8.92,5.15-8.92,13.49,0,18.64,8.92,5.15,23.37,5.15,32.29,0,8.92-5.15,8.92-13.49,0-18.64Zm-.26,18.49c-8.77,5.06-23,5.06-31.77,0-8.77-5.06-8.77-13.28,0-18.34,8.77-5.06,23-5.06,31.77,0,8.77,5.06,8.77,13.28,0,18.34Z" style="fill: url(#_Áåçûìÿííûé_ãðàäèåíò_443-4); mix-blend-mode: screen;"/>
          <g>
            <path d="M62.13,18.84c-1.97,1.14-5.35,2.76-6.25,2.7-1,.05-1.32,3.74,.12,4.36,.89-.09,6.4-3.17,7.77-3.86,1.09-.56-.78-3.63-1.64-3.2Z" style="fill: #0147b8;"/>
            <path d="M62.6,18.9l-.32,.16c-.67,.38,.61,3.09,1.46,2.62l.22-.11c.86-.44-.67-3.01-1.36-2.67Z" style="fill: #fff;"/>
            <path d="M66.63,20.35c.36-.12,.58-.35,.96-.74,.42-.45,.75-1.11,.8-1.32,.02-.09,.02-.19,.03-.28,.02-.16,.09-.31,.11-.47,.04-.36-.27-.75-.52-.6-.12,.08-.61,.61-.89,.92-.14,.16-.3,.29-.49,.38-.46,.24-.93,.5-1.18,.49-.21-.01-.63-.15-.79-.6-.02-.07,0-.18,.01-.24,.14-.47-.19-1.02-.66-1.13-.05-.01-.09-.02-.14,0-.08,.03-.13,.12-.13,.21,0,.16,.07,.27,.11,.41,.04,.16-.02,.34-.08,.48-.17,.42-.43,.79-.78,1.09-.12,.1-.17,.15-.22,.3-.12,.38,0,.82,.26,1.23,.43,.67,.73,.76,1.07,.62,.35-.14,1.46-.39,2.53-.74Z" style="fill: #fbbd9e;"/>
          </g>
          <g>
            <g>
              <path d="M47.5,21.81c-.06-.28-.45-.51-.45-.51,0,0,.11-.51,.02-.71-.23-.51-.52-.95-.89-1.27-.82-.71-2.14-1.57-3.45-.9-.42,.22-1.61,1.18-1.92,1.52-1.32,1.45-.4,2.58,1.24,4.18,.14,.13,.91,.16,.91,.16,0,0-.14,.59,.04,.76,1.47,1.43,3.22,3.24,4.48,5.84,.05-1.04,.72-5.83,.02-9.07Z" style="fill: #003893;"/>
              <path d="M46.89,22.31c-.26-.93-.89-1.58-1.61-2.22-.26-.23-.52-.5-.77-.76-.54,.17-1.06,.35-1.55,.65-.52,.33-.99,.74-1.48,1.11,.07,.13,.27,.8,.37,.93,2.61,2.95,3.36,4.01,4.42,5.95l1.16-.48c0-1.63,0-3.21-.55-5.18Z" style="fill: url(#_Áåçûìÿííûé_ãðàäèåíò_11);"/>
              <polygon points="47.44 27.49 46.19 23.18 45.71 23.39 46.28 27.97 47.3 29.74 47.44 27.49" style="fill: #003893;"/>
            </g>
            <g>
              <path d="M45.38,17.39l-4.42-.13c.18,.93,.63,1.7,.38,2.92-.35,1.75,2.9,3.04,4.46,2.13,.24-.14,.41-.37,.37-.64-.25-1.76-.49-3.18-.79-4.27Z" style="fill: #f2a883;"/>
              <path d="M45.81,22.16c-.33,.22-.77,.25-.88,.38-.14,.17,.3,1.18,.98,1.08,.68-.1,.7-1.98-.1-1.46Z" style="fill: #003893;"/>
              <path d="M45.71,22.22l1.66,.17s-.36-.6-1.37-1.98c.72,1.24-.29,1.81-.29,1.81Z" style="fill: #fff;"/>
              <path d="M46.87,15.05c-.01-.16-.03-.33-.04-.5-1.44-.34-3.52,.48-4.58,1.44-.52,.47-.95,.92-1.53,1.19,.16,.28,.32,.56,.49,.83,.5,.82,.99,1.95,1.76,2.53,.66,.49,1.42,.67,2.19,.95,.81,.29,1.68,.06,1.78-1.01,.08-.81,.17-1.41,.14-2.13-.02-.57-.06-.99,.06-1.55,.1-.47-.14-.7-.22-1.14-.03-.18-.02-.41-.04-.6Z" style="fill: #fcbe9f;"/>
              <path d="M45.46,19.55c-.65,.43-1.53,.31-2.02-.3-.46-.58-.6-1.18-.6-1.18-.02,.15-.37-.17-.37-.18-.03,0-.94,.59-.97,.62,.41,.73,.85,1.57,1.47,2.03,.66,.49,1.42,.67,2.19,.95,.81,.29,1.68,.06,1.78-1.01,.05-.54,.11-.99,.13-1.44,0,0-.39-.1-.64-.02-.35,.11-.66,.34-.96,.54Z" style="fill: #ac8979;"/>
              <path d="M40.45,16.82c.13,.29,.31,.2,.54,.25,.27,.06,.52,.22,.69,.43,.22,.28,.31,.65,.52,.95,.12,.17,.33,.33,.53,.25,.36-.16,.18-.79,.16-1.08-.14-2.17,2.19-2.77,3.97-2.7,.11-.49,.04-.98-.17-1.37-1.42-2.65-5.11-2.74-6.38-.55-.39,.66-.47,1.44-.36,2.19,.06,.38,.16,.76,.29,1.12,.06,.17,.13,.33,.2,.49Z" style="fill: #12126b;"/>
              <path d="M40.27,17.25c-.16,.77,1,1.86,1.71,1.9,.48,.03,.03-1.12-.3-1.64-.2-.33-1.27-.88-1.41-.26Z" style="fill: #fcbe9f;"/>
            </g>
            <path d="M41.41,19.76l-.17,.31c-.29,.52-.35,.84-.01,1.34,1.37,1.66,3.04,2.87,3.04,2.87l1.18-1.94c-2.81,.03-3.94-1.71-4.02-2.58Z" style="fill: #fff;"/>
          </g>
          <path d="M48,39.25l-.31-.17c-.69-.34-2.21,2.24-1.34,2.68l.21,.12c.85,.47,2.11-2.25,1.44-2.63Z" style="fill: #fff;"/>
          <g>
            <g style="isolation: isolate;">
              <path d="M48.97,41.57l2.38-3.83c.04-.06,.11-.14,.2-.21,.04-.03,.09-.07,.13-.09l7.37-4.25c.08-.04,.12-.05,.14-.04l.09,.11s-.06,0-.13,.03c0,0-7.38,4.26-7.38,4.26-.04,.02-.09,.06-.13,.09-.08,.07-.16,.15-.2,.21l-2.38,3.83s-.03,.06-.02,.07l-.09-.11s0-.04,.02-.07Z" style="fill: #251e28;"/>
              <path d="M59.14,33.3l-7.37,4.25c-.12,.07-.27,.21-.33,.3l-2.38,3.83c-.06,.09,0,.11,.12,.04l7.37-4.25c.12-.07,.27-.21,.33-.3l2.38-3.83c.06-.09,0-.11-.12-.04Z" style="fill: #171319;"/>
            </g>
            <path d="M52.79,39.02c.03-.08,.05-.17,.03-.25-.09-.38-.74,.09-.91,.17-.22,.11-.45,.22-.67,.32-.17,.08-.39,.22-.58,.24-.4,.05-.4-.19-.19-.35l.68-1.09s-.05,.02-.08,.03c-.35,.16-.94,.2-1.58,.51-.62,.29-.83,.87-1.46,.85-.68-.1-1.95,2.21-1.05,2.39,.79,.16,2.99,.3,3.55,.19,.27-.05,.54-.18,.8-.3,.31-.14,.45-.37,.6-.66,.06-.13,.13-.27,.17-.41,.03-.11,.06-.22,.09-.33,.04-.13,.1-.25,.16-.38,.13-.29,.27-.57,.4-.86,.01-.03,.03-.06,.04-.09Z" style="fill: #fabc9d;"/>
          </g>
        </g>
        <g>
          <g>
            <path d="M24.07,23.44c-.3-1.6-1.03-2.84-2.47-2.28-.26,.08-.53,.2-.79,.34l-1.08,.63c-.27,.17-.53,.35-.79,.57-1.44,1.11-2.17,3.18-2.47,5.14l7.61-4.4Z" style="fill: #0656d7;"/>
            <path d="M18.82,23.16c0,.42,.6,.41,1.34-.01s1.34-1.11,1.34-1.53c0-.18,0-.32-.02-.45-.99,.39-1.89,.98-2.65,1.61,0,.11-.01,.24-.01,.38Z" style="fill: #724733;"/>
            <path d="M19.14,21.33s0,.84,0,1.5,2.03-.38,2.03-1.05,0-1.83,0-1.83l-2.03,1.38Z" style="fill: #603a2b;"/>
            <g>
              <path d="M21.79,19.11c0-.09-.06-.12-.12-.1,0-.99-.67-1.35-1.51-.87-.83,.48-1.51,1.63-1.51,2.57-.07,.09-.14,.19-.15,.3-.04,.48,.28,.66,.43,.7,.27,.44,.72,.64,1.24,.35,.53-.3,.99-1.06,1.26-1.84,.16-.25,.41-.73,.37-1.11Z" style="fill: #724733;"/>
              <path d="M21.41,19.13c.12-.11,.25-.12,.25-.12,0-.11,.02-.19,.02-.28,.1-1.44-.18-1.97-1.59-1.16-1.82,1.05-1.66,1.93-1.61,2.81,0,.16,.03,.3,.06,.46,.05-.06,.21-.17,.24-.18-.01-.21-.01-.43,.02-.63,.06-.43,.69-.51,1.31-.89,.65-.39,1.19-1.01,1.25-.68,.04,.21,.05,.43,.05,.66Z" style="fill: #12126b;"/>
            </g>
          </g>
          <g style="mix-blend-mode: screen;">
            <path d="M15.58,28.51s-.06,0-.09-.02c-.05-.03-.09-.09-.09-.15v-10.42c0-.06,.03-.12,.09-.15l9.4-5.43c.05-.03,.12-.03,.17,0,.05,.03,.09,.09,.09,.15v10.42c0,.06-.03,.12-.09,.15l-9.4,5.43s-.06,.02-.09,.02Zm.17-10.49v10.02l9.06-5.23V12.79l-9.06,5.23Z" style="fill: #8ff5f0;"/>
          </g>
        </g>
        <g>
          <g>
            <path d="M64.76,11.79s-.02-.59-.23-1.21c-.19-.55-.66-.97-1.24-1.04-.11-.01-.21-.01-.27,.01,0,0-.75,.32-1.62,.74-.08,.01-.15,.06-.23,.11-.08,.04-.15,.08-.23,.12-.86,.61-1.62,1.16-1.62,1.16-.06,.05-.16,.16-.27,.3-.57,.74-1.05,1.71-1.24,2.47-.21,.86-.23,1.48-.23,1.48l7.18-4.14Z" style="fill: #0656d7;"/>
            <g>
              <path d="M62.68,9.11c-.04-.16-.03-.35-.05-.52-.02-.17-.07-.34-.19-.4-.13-.06-.31,0-.48,.05-.68,.23-1.39,.6-2.08,1.09-.12,.09-.25,.18-.36,.31s-.19,.29-.18,.41l.38,.29c-.2,.55-.2,1.08,0,1.4,.03,.04,.06,.09,.11,.11,.13,.07,.35-.01,.54-.1,.19-.08,.38-.16,.57-.29,.39-.26,.75-.67,1.13-.99,.13-.1,.25-.2,.37-.31s.24-.26,.29-.41c.1-.27-.01-.45-.06-.65Z" style="fill: #af8468;"/>
              <g>
                <path d="M59.88,11.78c0,.4,.57,.39,1.26-.01,.7-.4,1.26-1.05,1.26-1.45,0-.17,0-.3-.02-.42-.84,.35-1.7,.9-2.5,1.52,0,.11-.01,.23-.01,.36Z" style="fill: #ffc7ae;"/>
                <path d="M60.18,10.53c0,.27,0,.59,0,.89,0,.62,1.92-.45,1.92-1.08,0-.27,0-.61,0-.91l-1.92,1.11Z" style="fill: #f2a883;"/>
                <g>
                  <path d="M62.68,7.91c0-.09-.06-.11-.12-.09,0-.93-.64-1.28-1.43-.82-.79,.46-1.43,1.54-1.43,2.42-.07,.09-.14,.18-.14,.29-.04,.45,.27,.62,.4,.66,.26,.42,.68,.6,1.17,.33,.5-.29,.93-1,1.19-1.73,.15-.23,.39-.69,.35-1.05Z" style="fill: #ffc7ae;"/>
                  <path d="M62.4,10.94c0,.27,.94-.85,.97-1.3,.03-.53-.29-3.07-.97-3.72-.17-.16-.46-.14-.76,.03-.27,.15-.57,.33-.79,.47-.25,.15-.49,.35-.7,.6-1.22,1.46-.79,3.14-1.16,5.16-.08,.45,.88,.55,1.03,.33,0,0-.02-2.35-.02-2.51-.05-1.81,.86-1.86,1.39-2.26,.25-.19,.61-.39,.7-.17,.34,.78,.3,3.16,.3,3.37Z" style="fill: #af8468;"/>
                </g>
              </g>
            </g>
          </g>
          <g style="mix-blend-mode: screen;">
            <path d="M56.58,16.69s-.06,0-.09-.02c-.05-.03-.09-.09-.09-.15V6.1c0-.06,.03-.12,.09-.15L65.89,.52c.05-.03,.12-.03,.17,0,.05,.03,.09,.09,.09,.15V11.09c0,.06-.03,.12-.09,.15l-9.4,5.43s-.06,.02-.09,.02Zm.17-10.49v10.03l9.06-5.23V.96l-9.06,5.23Z" style="fill: #8ff5f0;"/>
          </g>
        </g>
        <g>
          <g>
            <path d="M68.01,58.62c0-.12,.06-.28,0-.36-.05-.07-.19,.01-.3,.09-.61,.44-.24,.19-.75,.4-.32,.13-1.73,.81-1.78,1.16-.01,.08,.01,.14,.03,.2,.18,.6-.25,1.12-.09,2.02,.07,.39,1.26-.35,1.7-.65,.17-.12,.34-.28,.5-.38,.16-.1,.3-.13,.46-.26,.83-.68,.21-1.48,.22-2.22Z" style="fill: #af8468;"/>
            <g>
              <path d="M70.38,61.88s-.02-.59-.23-1.21c-.15-.44-.49-.8-.91-.96-.24-.09-.54-.05-.87,.09-.79,.34-2.04,1.05-2.89,1.63-.54,.37-1.05,.91-1.4,1.54-.3,.53-.53,1.1-.65,1.58-.21,.86-.23,1.48-.23,1.48l7.18-4.14Z" style="fill: #0656d7;"/>
              <path d="M65.41,61.85c0,.4,.57,.39,1.26-.01,.7-.4,1.26-1.05,1.26-1.45,0-.17,0-.25,0-.37-.84,.35-1.7,.85-2.51,1.47,0,.11-.01,.23-.01,.36Z" style="fill: #ffc7ae;"/>
            </g>
            <g>
              <path d="M65.74,60.62c0,.26,0,.58,0,.87,0,.61,1.88-.45,1.88-1.06,0-.27,0-1.02,0-1.31l-1.88,1.51Z" style="fill: #f2a883;"/>
              <g>
                <path d="M68.09,58.1c0-.08-.06-.11-.11-.09,0-.91-.62-1.25-1.4-.81s-1.4,1.51-1.4,2.38c-.07,.09-.13,.17-.14,.28-.04,.44,.26,.61,.4,.65,.25,.41,.67,.59,1.14,.32,.49-.28,.92-.98,1.17-1.7,.15-.23,.38-.67,.35-1.03Z" style="fill: #ffc7ae;"/>
                <path d="M68.15,56.64c-.07-.2-.17-.37-.33-.49-.45-.33-1.24,.19-1.76,.62-.23,.19-.58,.42-.86,1.07-.17,.39-.23,.77-.22,1.1,.02,.37,.07,.74,.11,.79,.04-.05,.06-.08,.11-.08,.08-.01,.11,.08,.14,.14,.04,.07,.02,.31,.1,.24,.09-.06,0-.4-.02-.59-.01-.18,.13-.45,.23-.66,.13-.27,.43-.81,.93-.94,.37-.32,.77-.23,.9-.12,.1,.09,.25,.19,.23,.39-.01,.21-.11,.65-.02,.62,.09-.03,.06-.24,.1-.36,.03-.1,.06-.23,.14-.31,.04-.05,.07-.04,.11-.04,.05-.12,.24-.99,.1-1.37Z" style="fill: #af8468;"/>
              </g>
            </g>
          </g>
          <g style="mix-blend-mode: screen;">
            <path d="M62.18,66.79s-.06,0-.09-.02c-.05-.03-.09-.09-.09-.15v-10.42c0-.06,.03-.12,.09-.15l9.4-5.43c.05-.03,.12-.03,.17,0,.05,.03,.09,.09,.09,.15v10.42c0,.06-.03,.12-.09,.15l-9.4,5.43s-.06,.02-.09,.02Zm.17-10.49v10.03l9.06-5.23v-10.03l-9.06,5.23Z" style="fill: #8ff5f0;"/>
          </g>
        </g>
        <g>
          <g>
            <g>
              <path d="M27.12,66.51l3.26-1.9c0-1.69-.38-2.98-1.6-2.65-.53,.18-1.09,.43-1.66,.73-.02,0-.03,.02-.05,.03-.02,0-.03,.02-.05,.03-.57,.36-1.13,.76-1.66,1.2,0,0-1.45,1.2-1.6,4.5l3.26-1.86s.05-.03,.05-.03l.05-.03h0Z" style="fill: #0656d7;"/>
              <path d="M25.73,64.01c0,.42,.6,.41,1.34-.01s1.36-1.13,1.34-1.53c0-.01,0-.39,0-.39-.89,.37-1.81,.89-2.66,1.55,0,.11-.01,.24-.01,.38Z" style="fill: #ffc7ae;"/>
            </g>
            <g>
              <path d="M26.08,62.7c0,.28,0,.61,0,.92,0,.64,1.98-.47,1.98-1.12,0-.28,0-.63,0-.94l-1.98,1.15Z" style="fill: #f2a883;"/>
              <g>
                <path d="M28.67,59.99c0-.09-.06-.11-.12-.09,0-.96-.66-1.32-1.48-.85-.82,.47-1.48,1.59-1.48,2.51-.07,.09-.14,.18-.15,.3-.04,.47,.28,.64,.42,.68,.27,.43,.71,.63,1.21,.34,.51-.3,.97-1.03,1.23-1.79,.15-.24,.4-.71,.37-1.09Z" style="fill: #ffc7ae;"/>
                <path d="M28.27,60c-.04,.18-.08,.35-.05,.48,.07-.31,.3-.5,.37-.78,.07-.28,.14-.89,.08-1.17-.06-.27-.29-.61-.64-.56-.65,.1-.92,.44-.92,.44-1.55,.3-2.39,2.54-1.58,3.23,.29,.06,.33,.16,.44,.3-.17-.41-.18-.99,.11-1.31,.05-.06,.35-.2,.36-.24-.04,.11-.08,.22-.11,.34,.22-.26,1.51-1.83,1.91-1.36,.13,.16,.08,.4,.04,.64Z" style="fill: #12126b;"/>
              </g>
            </g>
          </g>
          <g style="mix-blend-mode: screen;">
            <path d="M22.5,69.31s-.06,0-.09-.02c-.05-.03-.09-.09-.09-.15v-10.42c0-.06,.03-.12,.09-.15l9.4-5.43c.05-.03,.12-.03,.17,0,.05,.03,.09,.09,.09,.15v10.42c0,.06-.03,.12-.09,.15l-9.4,5.43s-.06,.02-.09,.02Zm.17-10.49v10.03l9.06-5.23v-10.02l-9.06,5.23Z" style="fill: #8ff5f0;"/>
          </g>
        </g>
        <g>
          <g>
            <path d="M79.64,32.33c-.33-.43-.98-.4-1.94,.15l-.67,.39v1.59l-.53-1.29-.67,.39c-.96,.55-1.61,1.27-1.94,2.09-.54,1.31-.47,2.7-.47,2.7l3.61-2.08,.25-.15,.35-.2s2.48-1.44,2.48-1.44c0,0,.06-1.46-.47-2.15Z" style="fill: #0656d7;"/>
            <path d="M75.44,33.82c-.04,1.11,.63,1.49,1.48,1.24,.55-.43,1.51-1.92,1.22-2.78-.87,.35-2.72,1.51-2.69,1.55Z" style="fill: #ffc7ae;"/>
            <g>
              <path d="M78.08,27.59c.16,.53-.32,1.42-1.09,1.98s-1.51,.59-1.67,.05c-.16-.53,.32-1.42,1.09-1.98s1.51-.59,1.67-.05Z" style="fill: #ffe9b3;"/>
              <g>
                <path d="M75.89,32.87c0,.26,0,.58,0,.87,0,.61,1.88-.45,1.88-1.06,0-.27,0-1.02,0-1.31l-1.88,1.51Z" style="fill: #f2a883;"/>
                <g>
                  <path d="M78.25,30.35c0-.08-.06-.11-.11-.09,0-.91-.62-1.25-1.4-.81-.77,.45-1.4,1.51-1.4,2.38-.07,.09-.13,.17-.14,.28-.04,.44,.26,.61,.4,.65,.25,.41,.67,.59,1.14,.32,.49-.28,.92-.98,1.17-1.7,.15-.23,.38-.67,.35-1.03Z" style="fill: #ffc7ae;"/>
                  <path d="M75.28,31.91s.12-.06,.17-.07c.07,0,.09,.09,.11,.15,.03,.08-.03,.33,.06,.26,.09-.07,.05-.42,.06-.63,.01-.19,.18-.47,.31-.69,.23-.4,.44-.75,.4-1.23,.02,.12,.05,.24,.1,.34,.1,.19,.23,.17,.4,.21,.74,.18,.77,.65,.9,1.11,0,0,.05-.82,.25-1.04,.06-.07,.19-.06,.19-.06,.55-3.61-3.6-1.33-2.96,1.63Z" style="fill: #ffe9b3;"/>
                </g>
              </g>
            </g>
          </g>
          <g style="mix-blend-mode: screen;">
            <path d="M72.41,39.1s-.06,0-.09-.02c-.05-.03-.09-.09-.09-.15v-10.42c0-.06,.03-.12,.09-.15l9.4-5.43c.05-.03,.12-.03,.17,0,.05,.03,.09,.09,.09,.15v10.42c0,.06-.03,.12-.09,.15l-9.4,5.43s-.06,.02-.09,.02Zm.17-10.49v10.03l9.06-5.23v-10.03l-9.06,5.23Z" style="fill: #8ff5f0;"/>
          </g>
        </g>
        <g>
          <g>
            <g>
              <path d="M13.07,45.55c0-.21-.14-.31-.37-.24l-1.35,.41c-1.19,.36-2.45,1.2-3.58,2.11l-1.38,1.2c-.27,.24-.46,.59-.46,.87l-.05,2.58,7.23-4.19-.05-2.75Z" style="fill: #0656d7;"/>
              <path d="M8.03,47.98c0,.42,.6,.41,1.34-.01s1.34-1.11,1.34-1.53c0-.18,0-.32-.02-.45-.89,.37-1.8,.95-2.65,1.61,0,.11-.01,.24-.01,.38Z" style="fill: #fbbd9e;"/>
              <path d="M8.36,46.09s0,.84,0,1.5,2.03-.38,2.03-1.05,0-1.83,0-1.83l-2.03,1.38Z" style="fill: #f2a883;"/>
            </g>
            <path d="M11.12,43.78c0-.1-.07-.12-.13-.1,0-.02,0-.04,0-.05,0-1.2-.18-2.09-1.6-1.27-1.18,.68-1.7,1.8-1.6,3.12-.08,.1-.15,.2-.16,.32-.04,.51,.3,.7,.45,.74,.29,.47,.77,.68,1.31,.37,.56-.32,1.05-1.12,1.33-1.94,.17-.26,.43-.77,.4-1.18Z" style="fill: #ffc7ae;"/>
            <path d="M9.88,45c-.14,.08-.25,.03-.25-.11v-.3c-.14,.01-.26,.08-.39,.23v.29c0,.14-.12,.32-.26,.4l-.64,.37c-.14,.08-.25,.03-.25-.11v-.36c0-.09,.08-.21,.17-.26l.81-.47c.08-.04,.15-.03,.16,.04,.18-.14,.25-.17,.39-.19,.03-.13,.09-.22,.17-.27l.81-.47c.09-.05,.17-.02,.17,.07v.36c0,.14-.11,.32-.25,.4l-.64,.37Zm-.09-.65c-.05,.03-.09,.1-.09,.15v.36c0,.1,.08,.13,.18,.08l.64-.37c.1-.06,.18-.18,.18-.28v-.36c0-.05-.04-.07-.09-.04l-.81,.47Zm-1.54,.89c-.05,.03-.09,.1-.09,.15v.36c0,.1,.08,.13,.18,.08l.64-.37c.1-.06,.18-.18,.18-.28v-.36c0-.05-.04-.07-.09-.04l-.81,.47Z" style="fill: #12126b;"/>
            <polygon points="10.74 43.91 10.74 44.09 10.99 43.68 11 43.55 10.74 43.91" style="fill: #12126b;"/>
            <polygon points="8.1 45.49 8.11 45.66 7.79 45.52 7.78 45.42 8.1 45.49" style="fill: #12126b;"/>
          </g>
          <g style="mix-blend-mode: screen;">
            <path d="M4.8,53.28s-.06,0-.09-.02c-.05-.03-.09-.09-.09-.15v-10.42c0-.06,.03-.12,.09-.15l9.4-5.43c.05-.03,.12-.03,.17,0,.05,.03,.09,.09,.09,.15v10.42c0,.06-.03,.12-.09,.15l-9.4,5.43s-.06,.02-.09,.02Zm.17-10.49v10.03l9.06-5.23v-10.03l-9.06,5.23Z" style="fill: #8ff5f0;"/>
          </g>
        </g>
        <g>
          <g>
            <path d="M64.64,43.06s-.04,0-.05-.01l-.28-.16c-.05-.03-.07-.09-.04-.15,.03-.05,.1-.07,.15-.04l.28,.16c.05,.03,.07,.09,.04,.15-.02,.03-.06,.05-.09,.05Z" style="fill: #8ff5f0;"/>
            <path d="M79.19,51.46s-.04,0-.05-.01l-.56-.32c-.05-.03-.07-.09-.04-.15,.03-.05,.1-.07,.15-.04l.56,.32c.05,.03,.07,.09,.04,.15-.02,.03-.06,.05-.09,.05Zm-1.12-.65s-.04,0-.05-.01l-.56-.32c-.05-.03-.07-.09-.04-.15,.03-.05,.1-.07,.15-.04l.56,.32c.05,.03,.07,.09,.04,.15-.02,.03-.06,.05-.09,.05Zm-1.12-.65s-.04,0-.05-.01l-.56-.32c-.05-.03-.07-.09-.04-.15,.03-.05,.1-.07,.15-.04l.56,.32c.05,.03,.07,.09,.04,.15-.02,.03-.06,.05-.09,.05Zm-1.12-.65s-.04,0-.05-.01l-.56-.32c-.05-.03-.07-.09-.04-.15,.03-.05,.1-.07,.15-.04l.56,.32c.05,.03,.07,.09,.04,.15-.02,.03-.06,.05-.09,.05Zm-1.12-.65s-.04,0-.05-.01l-.56-.32c-.05-.03-.07-.09-.04-.15,.03-.05,.1-.07,.15-.04l.56,.32c.05,.03,.07,.09,.04,.15-.02,.03-.06,.05-.09,.05Zm-1.12-.65s-.04,0-.05-.01l-.56-.32c-.05-.03-.07-.09-.04-.15,.03-.05,.1-.07,.15-.04l.56,.32c.05,.03,.07,.09,.04,.15-.02,.03-.06,.05-.09,.05Zm-1.12-.65s-.04,0-.05-.01l-.56-.32c-.05-.03-.07-.09-.04-.15,.03-.05,.1-.07,.15-.04l.56,.32c.05,.03,.07,.09,.04,.15-.02,.03-.06,.05-.09,.05Zm-1.12-.65s-.04,0-.05-.01l-.56-.32c-.05-.03-.07-.09-.04-.15,.03-.05,.09-.07,.15-.04l.56,.32c.05,.03,.07,.09,.04,.15-.02,.03-.06,.05-.09,.05Zm-1.12-.65s-.04,0-.05-.01l-.56-.32c-.05-.03-.07-.09-.04-.15,.03-.05,.1-.07,.15-.04l.56,.32c.05,.03,.07,.09,.04,.15-.02,.03-.06,.05-.09,.05Zm-1.12-.65s-.04,0-.05-.01l-.56-.32c-.05-.03-.07-.09-.04-.15,.03-.05,.1-.07,.15-.04l.56,.32c.05,.03,.07,.09,.04,.15-.02,.03-.06,.05-.09,.05Zm-1.12-.65s-.04,0-.05-.01l-.56-.32c-.05-.03-.07-.09-.04-.15,.03-.05,.1-.07,.15-.04l.56,.32c.05,.03,.07,.09,.04,.15-.02,.03-.06,.05-.09,.05Zm-1.12-.65s-.04,0-.05-.01l-.56-.32c-.05-.03-.07-.09-.04-.15,.03-.05,.1-.07,.15-.04l.56,.32c.05,.03,.07,.09,.04,.15-.02,.03-.06,.05-.09,.05Zm-1.12-.65s-.04,0-.05-.01l-.56-.32c-.05-.03-.07-.09-.04-.15,.03-.05,.1-.07,.15-.04l.56,.32c.05,.03,.07,.09,.04,.15-.02,.03-.06,.05-.09,.05Z" style="fill: #8ff5f0;"/>
            <path d="M80.03,51.94s-.04,0-.05-.01l-.28-.16c-.05-.03-.07-.09-.04-.15,.03-.05,.1-.07,.15-.04l.22,.13,.22-.13c.05-.03,.12-.01,.15,.04,.03,.05,.01,.12-.04,.15l-.28,.16s-.03,.01-.05,.01Z" style="fill: #8ff5f0;"/>
            <path d="M80.86,51.46s-.07-.02-.09-.05c-.03-.05-.01-.12,.04-.15l.55-.32c.05-.03,.12-.01,.15,.04,.03,.05,.01,.12-.04,.15l-.55,.32s-.04,.01-.05,.01Zm1.1-.64s-.07-.02-.09-.05c-.03-.05-.01-.12,.04-.15l.55-.32c.05-.03,.12-.01,.15,.04,.03,.05,.01,.12-.04,.15l-.55,.32s-.04,.01-.05,.01Zm1.1-.64s-.07-.02-.09-.05c-.03-.05-.01-.12,.04-.15l.55-.32c.05-.03,.12-.01,.15,.04,.03,.05,.01,.12-.04,.15l-.55,.32s-.04,.01-.05,.01Zm1.1-.64s-.07-.02-.09-.05c-.03-.05-.01-.12,.04-.15l.55-.32c.05-.03,.12-.01,.15,.04,.03,.05,.01,.12-.04,.15l-.55,.32s-.04,.01-.05,.01Zm1.1-.64s-.07-.02-.09-.05c-.03-.05-.01-.12,.04-.15l.55-.32c.05-.03,.12-.01,.15,.04,.03,.05,.01,.12-.04,.15l-.55,.32s-.04,.01-.05,.01Zm1.1-.64s-.07-.02-.09-.05c-.03-.05-.01-.12,.04-.15l.55-.32c.05-.03,.12-.01,.15,.04,.03,.05,.01,.12-.04,.15l-.55,.32s-.04,.01-.05,.01Zm1.1-.64s-.07-.02-.09-.05c-.03-.05-.01-.12,.04-.15l.55-.32c.05-.03,.12-.01,.15,.04,.03,.05,.01,.12-.04,.15l-.55,.32s-.04,.01-.05,.01Z" style="fill: #8ff5f0;"/>
            <path d="M88.6,47s-.07-.02-.09-.05c-.03-.05-.01-.12,.04-.15l.12-.07-.12-.07c-.05-.03-.07-.09-.04-.15,.03-.05,.1-.07,.15-.04l.28,.16s.05,.05,.05,.09-.02,.07-.05,.09l-.28,.16s-.04,.01-.05,.01Z" style="fill: #8ff5f0;"/>
            <path d="M88.02,46.34s-.04,0-.05-.01l-.58-.33c-.05-.03-.07-.09-.04-.15,.03-.05,.1-.07,.15-.04l.58,.33c.05,.03,.07,.09,.04,.15-.02,.03-.06,.05-.09,.05Zm-1.15-.67s-.04,0-.05-.01l-.58-.33c-.05-.03-.07-.09-.04-.15,.03-.05,.1-.07,.15-.04l.58,.33c.05,.03,.07,.09,.04,.15-.02,.03-.06,.05-.09,.05Zm-1.15-.67s-.04,0-.05-.01l-.58-.33c-.05-.03-.07-.09-.04-.15,.03-.05,.1-.07,.15-.04l.58,.33c.05,.03,.07,.09,.04,.15-.02,.03-.06,.05-.09,.05Zm-1.15-.67s-.04,0-.05-.01l-.58-.33c-.05-.03-.07-.1-.04-.15,.03-.05,.09-.07,.15-.04l.58,.33c.05,.03,.07,.09,.04,.15-.02,.03-.06,.05-.09,.05Zm-1.15-.67s-.04,0-.05-.01l-.58-.33c-.05-.03-.07-.09-.04-.15s.1-.07,.15-.04l.58,.33c.05,.03,.07,.09,.04,.15-.02,.03-.06,.05-.09,.05Zm-1.15-.67s-.04,0-.05-.01l-.58-.33c-.05-.03-.07-.09-.04-.15,.03-.05,.1-.07,.15-.04l.58,.33c.05,.03,.07,.09,.04,.15-.02,.03-.06,.05-.09,.05Zm-1.15-.67s-.04,0-.05-.01l-.58-.33c-.05-.03-.07-.09-.04-.15,.03-.05,.1-.07,.15-.04l.58,.33c.05,.03,.07,.09,.04,.15-.02,.03-.06,.05-.09,.05Zm-1.15-.67s-.04,0-.05-.01l-.58-.33c-.05-.03-.07-.09-.04-.15,.03-.05,.1-.07,.15-.04l.58,.33c.05,.03,.07,.09,.04,.15-.02,.03-.06,.05-.09,.05Zm-1.15-.67s-.04,0-.05-.01l-.58-.33c-.05-.03-.07-.09-.04-.15,.03-.05,.1-.07,.15-.04l.58,.33c.05,.03,.07,.09,.04,.15-.02,.03-.06,.05-.09,.05Zm-1.15-.67s-.04,0-.05-.01l-.58-.33c-.05-.03-.07-.09-.04-.15,.03-.05,.1-.07,.15-.04l.58,.33c.05,.03,.07,.09,.04,.15-.02,.03-.06,.05-.09,.05Zm-1.15-.67s-.04,0-.05-.01l-.58-.33c-.05-.03-.07-.09-.04-.15,.03-.05,.1-.07,.15-.04l.58,.33c.05,.03,.07,.09,.04,.15-.02,.03-.06,.05-.09,.05Z" style="fill: #8ff5f0;"/>
            <path d="M75.33,39.01s-.04,0-.05-.01l-.28-.16c-.05-.03-.07-.09-.04-.15,.03-.05,.1-.07,.15-.04l.28,.16c.05,.03,.07,.09,.04,.15-.02,.03-.06,.05-.09,.05Z" style="fill: #8ff5f0;"/>
          </g>
          <path d="M61.34,82.57s-.07-.02-.09-.05c-.03-.05-.01-.12,.04-.15l.56-.32c.05-.03,.12-.01,.15,.04s.01,.12-.04,.15l-.56,.32s-.04,.01-.05,.01Zm-.56-.26s-.04,0-.05-.01l-.56-.32c-.05-.03-.07-.09-.04-.15,.03-.05,.1-.07,.15-.04l.56,.32c.05,.03,.07,.09,.04,.15-.02,.03-.06,.05-.09,.05Zm1.67-.38s-.07-.02-.09-.05c-.03-.05-.01-.12,.04-.15l.56-.32c.05-.03,.12-.01,.15,.04,.03,.05,.01,.12-.04,.15l-.56,.32s-.04,.01-.05,.01Zm-2.78-.26s-.04,0-.05-.01l-.56-.32c-.05-.03-.07-.1-.04-.15,.03-.05,.09-.07,.15-.04l.56,.32c.05,.03,.07,.1,.04,.15-.02,.03-.06,.05-.09,.05Zm3.89-.38s-.07-.02-.09-.05c-.03-.05-.01-.12,.04-.15l.56-.32c.05-.03,.12-.01,.15,.04,.03,.05,.01,.12-.04,.15l-.56,.32s-.04,.01-.05,.01Zm-5-.26s-.04,0-.05-.01l-.56-.32c-.05-.03-.07-.09-.04-.15,.03-.05,.1-.07,.15-.04l.56,.32c.05,.03,.07,.09,.04,.15-.02,.03-.06,.05-.09,.05Zm6.11-.38s-.07-.02-.09-.05c-.03-.05-.01-.12,.04-.15l.56-.32c.05-.03,.12-.01,.15,.04,.03,.05,.01,.12-.04,.15l-.56,.32s-.04,.01-.05,.01Zm-7.22-.26s-.04,0-.05-.01l-.56-.32c-.05-.03-.07-.09-.04-.15,.03-.05,.1-.07,.15-.04l.56,.32c.05,.03,.07,.09,.04,.15-.02,.03-.06,.05-.09,.05Zm8.33-.38s-.07-.02-.09-.05c-.03-.05-.01-.12,.04-.15l.56-.32c.05-.03,.12-.01,.15,.04,.03,.05,.01,.12-.04,.15l-.56,.32s-.04,.01-.05,.01Zm-9.44-.26s-.04,0-.05-.01l-.56-.32c-.05-.03-.07-.09-.04-.15,.03-.05,.1-.07,.15-.04l.56,.32c.05,.03,.07,.09,.04,.15-.02,.03-.06,.05-.09,.05Zm10.55-.38s-.07-.02-.09-.05c-.03-.05-.01-.12,.04-.15l.56-.32s.12-.01,.15,.04c.03,.05,.01,.12-.04,.15l-.56,.32s-.04,.01-.05,.01Zm.58-.95c-.06,0-.11-.05-.11-.11v-.64c0-.06,.05-.11,.11-.11s.11,.05,.11,.11v.64c0,.06-.05,.11-.11,.11Zm0-1.28c-.06,0-.11-.05-.11-.11v-.64c0-.06,.05-.11,.11-.11s.11,.05,.11,.11v.64c0,.06-.05,.11-.11,.11Zm0-1.28c-.06,0-.11-.05-.11-.11v-.64c0-.06,.05-.11,.11-.11s.11,.05,.11,.11v.64c0,.06-.05,.11-.11,.11Zm0-1.28c-.06,0-.11-.05-.11-.11v-.64c0-.06,.05-.11,.11-.11s.11,.05,.11,.11v.64c0,.06-.05,.11-.11,.11Zm0-1.28c-.06,0-.11-.05-.11-.11v-.64c0-.06,.05-.11,.11-.11s.11,.05,.11,.11v.64c0,.06-.05,.11-.11,.11Zm0-1.28c-.06,0-.11-.05-.11-.11v-.64c0-.06,.05-.11,.11-.11s.11,.05,.11,.11v.64c0,.06-.05,.11-.11,.11Zm0-1.28c-.06,0-.11-.05-.11-.11v-.64c0-.06,.05-.11,.11-.11s.11,.05,.11,.11v.64c0,.06-.05,.11-.11,.11Zm0-1.28c-.06,0-.11-.05-.11-.11v-.64c0-.06,.05-.11,.11-.11s.11,.05,.11,.11v.64c0,.06-.05,.11-.11,.11Zm0-1.28c-.06,0-.11-.05-.11-.11v-.64c0-.06,.05-.11,.11-.11s.11,.05,.11,.11v.64c0,.06-.05,.11-.11,.11Zm0-1.28c-.06,0-.11-.05-.11-.11v-.64c0-.06,.05-.11,.11-.11s.11,.05,.11,.11v.64c0,.06-.05,.11-.11,.11Zm0-1.28c-.06,0-.11-.05-.11-.11v-.64c0-.06,.05-.11,.11-.11s.11,.05,.11,.11v.64c0,.06-.05,.11-.11,.11Zm0-1.28c-.06,0-.11-.05-.11-.11v-.64c0-.06,.05-.11,.11-.11s.11,.05,.11,.11v.64c0,.06-.05,.11-.11,.11Z" style="fill: #8ff5f0;"/>
          <path d="M13.11,83.71s-.04,0-.05-.01c-.03-.02-.05-.05-.05-.09v-.34c0-.06,.05-.11,.11-.11s.11,.05,.11,.11v.15l.1-.06c.05-.03,.12-.01,.15,.04,.03,.05,.01,.12-.04,.15l-.26,.15s-.03,.01-.05,.01Zm.82-.47s-.07-.02-.09-.05c-.03-.05-.01-.12,.04-.15l.56-.32c.05-.03,.12-.01,.15,.04,.03,.05,.01,.12-.04,.15l-.56,.32s-.04,.01-.05,.01Zm-.82-.51c-.06,0-.11-.05-.11-.11v-.64c0-.06,.05-.11,.11-.11s.11,.05,.11,.11v.64c0,.06-.05,.11-.11,.11Zm1.93-.13s-.07-.02-.09-.05c-.03-.05-.01-.12,.04-.15l.56-.32c.05-.03,.12-.01,.15,.04,.03,.05,.01,.12-.04,.15l-.56,.32s-.04,.01-.05,.01Zm1.11-.64s-.07-.02-.09-.05c-.03-.05-.01-.12,.04-.15l.56-.32c.05-.03,.12-.01,.15,.04,.03,.05,.01,.12-.04,.15l-.56,.32s-.04,.01-.05,.01Zm-3.04-.51c-.06,0-.11-.05-.11-.11v-.64c0-.06,.05-.11,.11-.11s.11,.05,.11,.11v.64c0,.06-.05,.11-.11,.11Zm4.15-.13s-.07-.02-.09-.05c-.03-.05-.01-.12,.04-.15l.56-.32s.12-.01,.15,.04c.03,.05,.01,.12-.04,.15l-.56,.32s-.04,.01-.05,.01Zm1.11-.64s-.07-.02-.09-.05c-.03-.05-.01-.12,.04-.15l.56-.32c.05-.03,.12-.01,.15,.04,.03,.05,.01,.12-.04,.15l-.56,.32s-.04,.01-.05,.01Zm-5.26-.51c-.06,0-.11-.05-.11-.11v-.64c0-.06,.05-.11,.11-.11s.11,.05,.11,.11v.64c0,.06-.05,.11-.11,.11Zm6.37-.13s-.07-.02-.09-.05c-.03-.05-.01-.12,.04-.15l.56-.32c.05-.03,.12-.01,.15,.04,.03,.05,.01,.12-.04,.15l-.56,.32s-.04,.01-.05,.01Zm1.11-.64s-.07-.02-.09-.05c-.03-.05-.01-.12,.04-.15l.56-.32c.05-.03,.12-.01,.15,.04,.03,.05,.01,.12-.04,.15l-.56,.32s-.04,.01-.05,.01Zm-7.48-.51c-.06,0-.11-.05-.11-.11v-.64c0-.06,.05-.11,.11-.11s.11,.05,.11,.11v.64c0,.06-.05,.11-.11,.11Zm8.59-.13s-.07-.02-.09-.05c-.03-.05-.01-.12,.04-.15l.56-.32s.12-.01,.15,.04c.03,.05,.01,.12-.04,.15l-.56,.32s-.04,.01-.05,.01Zm1.11-.64s-.07-.02-.09-.05c-.03-.05-.01-.12,.04-.15l.56-.32c.05-.03,.12-.01,.15,.04,.03,.05,.01,.12-.04,.15l-.56,.32s-.04,.01-.05,.01Zm-9.7-.51c-.06,0-.11-.05-.11-.11v-.64c0-.06,.05-.11,.11-.11s.11,.05,.11,.11v.64c0,.06-.05,.11-.11,.11Zm0-1.28c-.06,0-.11-.05-.11-.11v-.64c0-.06,.05-.11,.11-.11s.11,.05,.11,.11v.64c0,.06-.05,.11-.11,.11Zm0-1.28c-.06,0-.11-.05-.11-.11v-.64c0-.06,.05-.11,.11-.11s.11,.05,.11,.11v.64c0,.06-.05,.11-.11,.11Zm0-1.28c-.06,0-.11-.05-.11-.11v-.64c0-.06,.05-.11,.11-.11s.11,.05,.11,.11v.64c0,.06-.05,.11-.11,.11Zm0-1.28c-.06,0-.11-.05-.11-.11v-.64c0-.06,.05-.11,.11-.11s.11,.05,.11,.11v.64c0,.06-.05,.11-.11,.11Zm0-1.28c-.06,0-.11-.05-.11-.11v-.64c0-.06,.05-.11,.11-.11s.11,.05,.11,.11v.64c0,.06-.05,.11-.11,.11Zm0-1.28c-.06,0-.11-.05-.11-.11v-.06s.02-.07,.05-.09l.5-.29c.05-.03,.12-.01,.15,.04,.03,.05,.01,.12-.04,.15l-.45,.26c0,.06-.05,.1-.11,.1Zm1.06-.67s-.07-.02-.09-.05c-.03-.05-.01-.12,.04-.15l.56-.32c.05-.03,.12-.01,.15,.04,.03,.05,.01,.12-.04,.15l-.56,.32s-.04,.01-.05,.01Zm1.11-.64s-.07-.02-.09-.05c-.03-.05-.01-.12,.04-.15l.56-.32s.12-.01,.15,.04c.03,.05,.01,.12-.04,.15l-.56,.32s-.04,.01-.05,.01Zm1.11-.64s-.07-.02-.09-.05c-.03-.05-.01-.12,.04-.15l.56-.32c.05-.03,.12-.01,.15,.04,.03,.05,.01,.12-.04,.15l-.56,.32s-.04,.01-.05,.01Zm1.11-.64s-.07-.02-.09-.05c-.03-.05-.01-.12,.04-.15l.56-.32s.12-.01,.15,.04c.03,.05,.01,.12-.04,.15l-.56,.32s-.04,.01-.05,.01Zm1.11-.64s-.07-.02-.09-.05c-.03-.05-.01-.12,.04-.15l.56-.32c.05-.03,.12-.01,.15,.04,.03,.05,.01,.12-.04,.15l-.56,.32s-.04,.01-.05,.01Zm1.11-.64s-.07-.02-.09-.05c-.03-.05-.01-.12,.04-.15l.56-.32c.05-.03,.12-.01,.15,.04,.03,.05,.01,.12-.04,.15l-.56,.32s-.04,.01-.05,.01Zm1.11-.64s-.07-.02-.09-.05c-.03-.05-.01-.12,.04-.15l.56-.32c.05-.03,.12-.01,.15,.04,.03,.05,.01,.12-.04,.15l-.56,.32s-.04,.01-.05,.01Zm1.11-.64s-.07-.02-.09-.05c-.03-.05-.01-.12,.04-.15l.56-.32c.05-.03,.12-.01,.15,.04,.03,.05,.01,.12-.04,.15l-.56,.32s-.04,.01-.05,.01Z" style="fill: #8ff5f0;"/>
          <path d="M10.2,54.51s-.04,0-.05-.01c-.03-.02-.05-.05-.05-.09v-.56c0-.06,.05-.11,.11-.11s.11,.05,.11,.11v.42s.04,.02,.05,.05c.03,.05,.01,.12-.04,.15l-.07,.04s-.04,.01-.05,.01Zm.62-.36s-.07-.02-.09-.05c-.03-.05-.01-.12,.04-.15l.56-.32c.05-.03,.12-.01,.15,.04,.03,.05,.01,.12-.04,.15l-.56,.32s-.04,.01-.05,.01Zm1.11-.64s-.07-.02-.09-.05c-.03-.05-.01-.12,.04-.15l.56-.32s.12-.01,.15,.04c.03,.05,.01,.12-.04,.15l-.56,.32s-.04,.01-.05,.01Zm-1.73-.2c-.06,0-.11-.05-.11-.11v-.64c0-.06,.05-.11,.11-.11s.11,.05,.11,.11v.64c0,.06-.05,.11-.11,.11Zm2.84-.44s-.07-.02-.09-.05c-.03-.05-.01-.12,.04-.15l.56-.32c.05-.03,.12-.01,.15,.04,.03,.05,.01,.12-.04,.15l-.56,.32s-.04,.01-.05,.01Zm1.11-.64s-.07-.02-.09-.05c-.03-.05-.01-.12,.04-.15l.56-.32s.12-.01,.15,.04c.03,.05,.01,.12-.04,.15l-.56,.32s-.04,.01-.05,.01Zm-3.95-.2c-.06,0-.11-.05-.11-.11v-.64c0-.06,.05-.11,.11-.11s.11,.05,.11,.11v.64c0,.06-.05,.11-.11,.11Zm5.07-.44s-.07-.02-.09-.05c-.03-.05-.01-.12,.04-.15l.56-.32c.05-.03,.12-.01,.15,.04,.03,.05,.01,.12-.04,.15l-.56,.32s-.04,.01-.05,.01Zm1.11-.64s-.07-.02-.09-.05c-.03-.05-.01-.12,.04-.15l.56-.32s.12-.01,.15,.04c.03,.05,.01,.12-.04,.15l-.56,.32s-.04,.01-.05,.01Zm-6.18-.2c-.06,0-.11-.05-.11-.11v-.64c0-.06,.05-.11,.11-.11s.11,.05,.11,.11v.64c0,.06-.05,.11-.11,.11Zm7.29-.44s-.07-.02-.09-.05c-.03-.05-.01-.12,.04-.15l.56-.32c.05-.03,.12-.01,.15,.04,.03,.05,.01,.12-.04,.15l-.56,.32s-.04,.01-.05,.01Zm1.11-.64s-.07-.02-.09-.05c-.03-.05-.01-.12,.04-.15l.56-.32c.05-.03,.12-.01,.15,.04,.03,.05,.01,.12-.04,.15l-.56,.32s-.04,.01-.05,.01Zm1.11-.64s-.07-.02-.09-.05c-.03-.05-.01-.12,.04-.15l.56-.32c.05-.03,.12-.01,.15,.04,.03,.05,.01,.12-.04,.15l-.56,.32s-.04,.01-.05,.01Zm1.11-.64s-.07-.02-.09-.05c-.03-.05-.01-.12,.04-.15l.56-.32s.12-.01,.15,.04c.03,.05,.01,.12-.04,.15l-.56,.32s-.04,.01-.05,.01Zm1.11-.64s-.07-.02-.09-.05c-.03-.05-.01-.12,.04-.15l.41-.24c.05-.03,.12-.01,.15,.04,.03,.05,.01,.12-.04,.15l-.41,.24s-.04,.01-.05,.01Z" style="fill: #8ff5f0;"/>
          <path d="M73.46,26.88c-.06,0-.11-.05-.11-.11v-.64c0-.06,.05-.11,.11-.11s.11,.05,.11,.11v.64c0,.06-.05,.11-.11,.11Zm0-1.28c-.06,0-.11-.05-.11-.11v-.64c0-.06,.05-.11,.11-.11s.11,.05,.11,.11v.64c0,.06-.05,.11-.11,.11Zm0-1.28c-.06,0-.11-.05-.11-.11v-.64c0-.06,.05-.11,.11-.11s.11,.05,.11,.11v.64c0,.06-.05,.11-.11,.11Zm0-1.28c-.06,0-.11-.05-.11-.11v-.64c0-.06,.05-.11,.11-.11s.11,.05,.11,.11v.64c0,.06-.05,.11-.11,.11Zm0-1.28c-.06,0-.11-.05-.11-.11v-.64c0-.06,.05-.11,.11-.11s.11,.05,.11,.11v.64c0,.06-.05,.11-.11,.11Zm0-1.28c-.06,0-.11-.05-.11-.11v-.64c0-.06,.05-.11,.11-.11s.11,.05,.11,.11v.64c0,.06-.05,.11-.11,.11Zm0-1.28c-.06,0-.11-.05-.11-.11v-.64c0-.06,.05-.11,.11-.11s.11,.05,.11,.11v.64c0,.06-.05,.11-.11,.11Zm0-1.28c-.06,0-.11-.05-.11-.11v-.64c0-.06,.05-.11,.11-.11s.11,.05,.11,.11v.64c0,.06-.05,.11-.11,.11Zm0-1.28c-.06,0-.11-.05-.11-.11v-.64c0-.06,.05-.11,.11-.11s.11,.05,.11,.11v.64c0,.06-.05,.11-.11,.11Zm0-1.28c-.06,0-.11-.05-.11-.11v-.64c0-.06,.05-.11,.11-.11s.11,.05,.11,.11v.64c0,.06-.05,.11-.11,.11Zm0-1.28c-.06,0-.11-.05-.11-.11v-.64c0-.06,.05-.11,.11-.11s.11,.05,.11,.11v.64c0,.06-.05,.11-.11,.11Zm0-1.28c-.06,0-.11-.05-.11-.11v-.64c0-.06,.05-.11,.11-.11s.11,.05,.11,.11v.64c0,.06-.05,.11-.11,.11Zm0-1.28c-.06,0-.11-.05-.11-.11v-.64c0-.06,.05-.11,.11-.11s.11,.05,.11,.11v.64c0,.06-.05,.11-.11,.11Zm0-1.28c-.06,0-.11-.05-.11-.11v-.64c0-.06,.05-.11,.11-.11s.11,.05,.11,.11v.64c0,.06-.05,.11-.11,.11Zm0-1.28c-.06,0-.11-.05-.11-.11v-.64c0-.06,.05-.11,.11-.11s.11,.05,.11,.11v.64c0,.06-.05,.11-.11,.11Zm0-1.28c-.06,0-.11-.05-.11-.11v-.64c0-.06,.05-.11,.11-.11s.11,.05,.11,.11v.64c0,.06-.05,.11-.11,.11Zm0-1.28c-.06,0-.11-.05-.11-.11v-.64c0-.06,.05-.11,.11-.11s.11,.05,.11,.11v.64c0,.06-.05,.11-.11,.11Zm-6.78-.44s-.07-.02-.09-.05c-.03-.05-.01-.12,.04-.15l.56-.32c.05-.03,.12-.01,.15,.04,.03,.05,.01,.12-.04,.15l-.56,.32s-.04,.01-.05,.01Zm1.11-.64s-.07-.02-.09-.05c-.03-.05-.01-.12,.04-.15l.56-.32s.12-.01,.15,.04c.03,.05,.01,.12-.04,.15l-.56,.32s-.04,.01-.05,.01Zm5.67-.2c-.06,0-.11-.05-.11-.11v-.64c0-.06,.05-.11,.11-.11s.11,.05,.11,.11v.64c0,.06-.05,.11-.11,.11Zm-4.56-.44s-.07-.02-.09-.05c-.03-.05-.01-.12,.04-.15l.56-.32c.05-.03,.12-.01,.15,.04,.03,.05,.01,.12-.04,.15l-.56,.32s-.04,.01-.05,.01Zm1.11-.64s-.07-.02-.09-.05c-.03-.05-.01-.12,.04-.15l.56-.32c.05-.03,.12-.01,.15,.04,.03,.05,.01,.12-.04,.15l-.56,.32s-.04,.01-.05,.01Zm3.45-.2c-.06,0-.11-.05-.11-.11v-.64c0-.06,.05-.11,.11-.11s.11,.05,.11,.11v.64c0,.06-.05,.11-.11,.11Zm-2.34-.44s-.07-.02-.09-.05c-.03-.05-.01-.12,.04-.15l.56-.32c.05-.03,.12-.01,.15,.04,.03,.05,.01,.12-.04,.15l-.56,.32s-.04,.01-.05,.01Zm1.11-.64s-.07-.02-.09-.05c-.03-.05-.01-.12,.04-.15l.56-.32c.05-.03,.12-.01,.15,.04,.03,.05,.01,.12-.04,.15l-.56,.32s-.04,.01-.05,.01Zm1.23-.2c-.06,0-.11-.05-.11-.11v-.33s-.08-.02-.1-.05c-.03-.05-.01-.12,.04-.15l.12-.07s.07-.02,.11,0c.03,.02,.05,.05,.05,.09v.51c0,.06-.05,.11-.11,.11Z" style="fill: #8ff5f0;"/>
          <path d="M30.06,13.57c-.06,0-.11-.05-.11-.11v-.64c0-.06,.05-.11,.11-.11s.11,.05,.11,.11v.64c0,.06-.05,.11-.11,.11Zm-7.21-.73c-.06,0-.11-.05-.11-.11v-.64c0-.06,.05-.11,.11-.11s.11,.05,.11,.11v.64c0,.06-.05,.11-.11,.11Zm7.21-.55c-.06,0-.11-.05-.11-.11v-.64c0-.06,.05-.11,.11-.11s.11,.05,.11,.11v.64c0,.06-.05,.11-.11,.11Zm-7.21-.73c-.06,0-.11-.05-.11-.11v-.64c0-.06,.05-.11,.11-.11s.11,.05,.11,.11v.64c0,.06-.05,.11-.11,.11Zm7.21-.55c-.06,0-.11-.05-.11-.11v-.64c0-.06,.05-.11,.11-.11s.11,.05,.11,.11v.64c0,.06-.05,.11-.11,.11Zm-7.21-.73c-.06,0-.11-.05-.11-.11v-.64c0-.06,.05-.11,.11-.11s.11,.05,.11,.11v.64c0,.06-.05,.11-.11,.11Zm7.21-.55c-.06,0-.11-.05-.11-.11v-.64c0-.06,.05-.11,.11-.11s.11,.05,.11,.11v.64c0,.06-.05,.11-.11,.11Zm-7.21-.73c-.06,0-.11-.05-.11-.11v-.64c0-.06,.05-.11,.11-.11s.11,.05,.11,.11v.64c0,.06-.05,.11-.11,.11Zm7.21-.55c-.06,0-.11-.05-.11-.11v-.64c0-.06,.05-.11,.11-.11s.11,.05,.11,.11v.64c0,.06-.05,.11-.11,.11Zm-7.21-.73c-.06,0-.11-.05-.11-.11v-.64c0-.06,.05-.11,.11-.11s.11,.05,.11,.11v.64c0,.06-.05,.11-.11,.11Zm7.21-.55c-.06,0-.11-.05-.11-.11v-.64c0-.06,.05-.11,.11-.11s.11,.05,.11,.11v.64c0,.06-.05,.11-.11,.11Zm-7.21-.73c-.06,0-.11-.05-.11-.11v-.64c0-.06,.05-.11,.11-.11s.11,.05,.11,.11v.64c0,.06-.05,.11-.11,.11Zm7.21-.55c-.06,0-.11-.05-.11-.11v-.64c0-.06,.05-.11,.11-.11s.11,.05,.11,.11v.64c0,.06-.05,.11-.11,.11Zm-7.21-.73c-.06,0-.11-.05-.11-.11v-.64c0-.06,.05-.11,.11-.11s.11,.05,.11,.11v.64c0,.06-.05,.11-.11,.11Zm7.21-.55c-.06,0-.11-.05-.11-.11v-.64c0-.06,.05-.11,.11-.11s.11,.05,.11,.11v.64c0,.06-.05,.11-.11,.11Zm-6.76-.47s-.07-.02-.09-.05c-.03-.05-.01-.12,.04-.15l.56-.32s.12-.01,.15,.04c.03,.05,.01,.12-.04,.15l-.56,.32s-.04,.01-.05,.01Zm1.11-.64s-.07-.02-.09-.05c-.03-.05-.01-.12,.04-.15l.56-.32c.05-.03,.12-.01,.15,.04,.03,.05,.01,.12-.04,.15l-.56,.32s-.04,.01-.05,.01Zm5.65-.17c-.06,0-.11-.05-.11-.11v-.64c0-.06,.05-.11,.11-.11s.11,.05,.11,.11v.64c0,.06-.05,.11-.11,.11Zm-4.54-.47s-.07-.02-.09-.05c-.03-.05-.01-.12,.04-.15l.56-.32s.12-.01,.15,.04c.03,.05,.01,.12-.04,.15l-.56,.32s-.04,.01-.05,.01Zm1.11-.64s-.07-.02-.09-.05c-.03-.05-.01-.12,.04-.15l.56-.32c.05-.03,.12-.01,.15,.04,.03,.05,.01,.12-.04,.15l-.56,.32s-.04,.01-.05,.01Zm3.43-.17c-.06,0-.11-.05-.11-.11v-.64c0-.06,.05-.11,.11-.11s.11,.05,.11,.11v.64c0,.06-.05,.11-.11,.11Zm-2.32-.47s-.07-.02-.09-.05c-.03-.05-.01-.12,.04-.15l.56-.32c.05-.03,.12-.01,.15,.04,.03,.05,.01,.12-.04,.15l-.56,.32s-.04,.01-.05,.01Zm1.11-.64s-.07-.02-.09-.05c-.03-.05-.01-.12,.04-.15l.56-.32c.05-.03,.12-.01,.15,.04,.03,.05,.01,.12-.04,.15l-.56,.32s-.04,.01-.05,.01Zm1.21-.17c-.06,0-.11-.05-.11-.11V.27s-.07-.02-.08-.05c-.03-.05-.01-.12,.04-.15l.1-.06s.07-.02,.11,0c.03,.02,.05,.05,.05,.09V.63c0,.06-.05,.11-.11,.11Z" style="fill: #8ff5f0;"/>
          <path d="M11.82,37.91c-.06,0-.11-.05-.11-.11v-.28c0-.06,.05-.11,.11-.11s.11,.05,.11,.11v.28c0,.06-.05,.11-.11,.11Zm0-.92c-.06,0-.11-.05-.11-.11v-.64c0-.06,.05-.11,.11-.11s.11,.05,.11,.11v.64c0,.06-.05,.11-.11,.11Zm0-1.28c-.06,0-.11-.05-.11-.11v-.64c0-.06,.05-.11,.11-.11s.11,.05,.11,.11v.64c0,.06-.05,.11-.11,.11Zm0-1.28c-.06,0-.11-.05-.11-.11v-.64c0-.06,.05-.11,.11-.11s.11,.05,.11,.11v.64c0,.06-.05,.11-.11,.11Zm0-1.28c-.06,0-.11-.05-.11-.11v-.64c0-.06,.05-.11,.11-.11s.11,.05,.11,.11v.64c0,.06-.05,.11-.11,.11Zm0-1.28c-.06,0-.11-.05-.11-.11v-.64c0-.06,.05-.11,.11-.11s.11,.05,.11,.11v.64c0,.06-.05,.11-.11,.11Zm0-1.28c-.06,0-.11-.05-.11-.11v-.64c0-.06,.05-.11,.11-.11s.11,.05,.11,.11v.64c0,.06-.05,.11-.11,.11Zm0-1.28c-.06,0-.11-.05-.11-.11v-.64c0-.06,.05-.11,.11-.11s.11,.05,.11,.11v.64c0,.06-.05,.11-.11,.11Zm.28-1.12s-.07-.02-.09-.05c-.03-.05-.01-.12,.04-.15l.56-.32c.05-.03,.12-.01,.15,.04,.03,.05,.01,.12-.04,.15l-.56,.32s-.04,.01-.05,.01Zm1.11-.64s-.07-.02-.09-.05c-.03-.05-.01-.12,.04-.15l.56-.32s.12-.01,.15,.04c.03,.05,.01,.12-.04,.15l-.56,.32s-.04,.01-.05,.01Zm1.11-.64s-.07-.02-.09-.05c-.03-.05-.01-.12,.04-.15l.56-.32c.05-.03,.12-.01,.15,.04,.03,.05,.01,.12-.04,.15l-.56,.32s-.04,.01-.05,.01Z" style="fill: #8ff5f0;"/>
          <path d="M15.12,42.81s-.07-.02-.09-.05c-.03-.05-.01-.12,.04-.15l.56-.32c.05-.03,.12-.01,.15,.04,.03,.05,.01,.12-.04,.15l-.56,.32s-.04,.01-.05,.01Zm1.11-.64s-.07-.02-.09-.05c-.03-.05-.01-.12,.04-.15l.56-.32c.05-.03,.12-.01,.15,.04,.03,.05,.01,.12-.04,.15l-.56,.32s-.04,.01-.05,.01Zm1.11-.64s-.07-.02-.09-.05c-.03-.05-.01-.12,.04-.15l.56-.32c.05-.03,.12-.01,.15,.04,.03,.05,.01,.12-.04,.15l-.56,.32s-.04,.01-.05,.01Zm1.11-.64s-.07-.02-.09-.05c-.03-.05-.01-.12,.04-.15l.56-.32c.05-.03,.12-.01,.15,.04,.03,.05,.01,.12-.04,.15l-.56,.32s-.04,.01-.05,.01Zm1.11-.64s-.07-.02-.09-.05c-.03-.05-.01-.12,.04-.15l.56-.32c.05-.03,.12-.01,.15,.04,.03,.05,.01,.12-.04,.15l-.56,.32s-.04,.01-.05,.01Zm1.11-.64s-.07-.02-.09-.05c-.03-.05-.01-.12,.04-.15l.56-.32c.05-.03,.12-.01,.15,.04,.03,.05,.01,.12-.04,.15l-.56,.32s-.04,.01-.05,.01Zm1.11-.64s-.07-.02-.09-.05c-.03-.05-.01-.12,.04-.15l.56-.32s.12-.01,.15,.04c.03,.05,.01,.12-.04,.15l-.56,.32s-.04,.01-.05,.01Zm1.11-.64s-.07-.02-.09-.05c-.03-.05-.01-.12,.04-.15l.56-.32c.05-.03,.12-.01,.15,.04,.03,.05,.01,.12-.04,.15l-.56,.32s-.04,.01-.05,.01Zm1.11-.64s-.07-.02-.09-.05c-.03-.05-.01-.12,.04-.15l.56-.32s.12-.01,.15,.04c.03,.05,.01,.12-.04,.15l-.56,.32s-.04,.01-.05,.01Zm1.11-.64s-.07-.02-.09-.05c-.03-.05-.01-.12,.04-.15l.56-.32c.05-.03,.12-.01,.15,.04,.03,.05,.01,.12-.04,.15l-.56,.32s-.04,.01-.05,.01Zm1.11-.64s-.07-.02-.09-.05c-.03-.05-.01-.12,.04-.15l.56-.32c.05-.03,.12-.01,.15,.04,.03,.05,.01,.12-.04,.15l-.56,.32s-.04,.01-.05,.01Zm1.11-.64s-.07-.02-.09-.05c-.03-.05-.01-.12,.04-.15l.56-.32c.05-.03,.12-.01,.15,.04,.03,.05,.01,.12-.04,.15l-.56,.32s-.04,.01-.05,.01Zm1.11-.64s-.07-.02-.09-.05c-.03-.05-.01-.12,.04-.15l.56-.32c.05-.03,.12-.01,.15,.04,.03,.05,.01,.12-.04,.15l-.56,.32s-.04,.01-.05,.01Zm1.11-.64s-.07-.02-.09-.05c-.03-.05-.01-.12,.04-.15l.56-.32c.05-.03,.12-.01,.15,.04,.03,.05,.01,.12-.04,.15l-.56,.32s-.04,.01-.05,.01Zm1.11-.64s-.07-.02-.09-.05c-.03-.05-.01-.12,.04-.15l.56-.32c.05-.03,.12-.01,.15,.04,.03,.05,.01,.12-.04,.15l-.56,.32s-.04,.01-.05,.01Zm1.11-.64s-.07-.02-.09-.05c-.03-.05-.01-.12,.04-.15l.56-.32s.12-.01,.15,.04c.03,.05,.01,.12-.04,.15l-.56,.32s-.04,.01-.05,.01Zm1.11-.64s-.07-.02-.09-.05c-.03-.05-.01-.12,.04-.15l.56-.32c.05-.03,.12-.01,.15,.04,.03,.05,.01,.12-.04,.15l-.56,.32s-.04,.01-.05,.01Zm1.11-.64s-.07-.02-.09-.05c-.03-.05-.01-.12,.04-.15l.56-.32s.12-.01,.15,.04c.03,.05,.01,.12-.04,.15l-.56,.32s-.04,.01-.05,.01Zm1.11-.64s-.07-.02-.09-.05c-.03-.05-.01-.11,.04-.14l-.24-.14c-.05-.03-.07-.09-.04-.15,.03-.05,.1-.07,.15-.04l.4,.23s.05,.05,.05,.09-.02,.07-.05,.09l-.16,.09s-.04,.01-.05,.01Zm-.8-.64s-.04,0-.05-.01l-.56-.32c-.05-.03-.07-.09-.04-.15,.03-.05,.09-.07,.15-.04l.56,.32c.05,.03,.07,.09,.04,.15-.02,.03-.06,.05-.09,.05Zm-1.11-.64s-.04,0-.05-.01l-.56-.32c-.05-.03-.07-.09-.04-.15,.03-.05,.1-.07,.15-.04l.56,.32c.05,.03,.07,.09,.04,.15-.02,.03-.06,.05-.09,.05Zm-1.11-.64s-.04,0-.05-.01l-.56-.32c-.05-.03-.07-.09-.04-.15s.1-.07,.15-.04l.56,.32c.05,.03,.07,.09,.04,.15-.02,.03-.06,.05-.09,.05Zm-1.11-.64s-.04,0-.05-.01l-.56-.32c-.05-.03-.07-.09-.04-.15,.03-.05,.1-.07,.15-.04l.56,.32c.05,.03,.07,.09,.04,.15-.02,.03-.06,.05-.09,.05Zm-1.11-.64s-.04,0-.05-.01l-.56-.32c-.05-.03-.07-.09-.04-.15,.03-.05,.1-.07,.15-.04l.56,.32c.05,.03,.07,.09,.04,.15-.02,.03-.06,.05-.09,.05Zm-1.11-.64s-.04,0-.05-.01l-.56-.32c-.05-.03-.07-.1-.04-.15,.03-.05,.09-.07,.15-.04l.56,.32c.05,.03,.07,.1,.04,.15-.02,.03-.06,.05-.09,.05Zm-1.11-.64s-.04,0-.05-.01l-.56-.32c-.05-.03-.07-.09-.04-.15,.03-.05,.1-.07,.15-.04l.56,.32c.05,.03,.07,.09,.04,.15-.02,.03-.06,.05-.09,.05Zm-1.11-.64s-.04,0-.05-.01l-.56-.32c-.05-.03-.07-.09-.04-.15,.03-.05,.1-.07,.15-.04l.56,.32c.05,.03,.07,.09,.04,.15-.02,.03-.06,.05-.09,.05Zm-1.11-.64s-.04,0-.05-.01l-.56-.32c-.05-.03-.07-.09-.04-.15,.03-.05,.1-.07,.15-.04l.56,.32c.05,.03,.07,.09,.04,.15-.02,.03-.06,.05-.09,.05Zm-1.11-.64s-.04,0-.05-.01l-.56-.32c-.05-.03-.07-.09-.04-.15,.03-.05,.1-.07,.15-.04l.56,.32c.05,.03,.07,.09,.04,.15-.02,.03-.06,.05-.09,.05Z" style="fill: #8ff5f0;"/>
          <path d="M70.17,50.65s-.04,0-.05-.01l-.56-.32c-.05-.03-.07-.09-.04-.15,.03-.05,.1-.07,.15-.04l.56,.32c.05,.03,.07,.09,.04,.15-.02,.03-.06,.05-.09,.05Zm-1.11-.64s-.04,0-.05-.01l-.56-.32c-.05-.03-.07-.09-.04-.15,.03-.05,.1-.07,.15-.04l.56,.32c.05,.03,.07,.09,.04,.15-.02,.03-.06,.05-.09,.05Zm-1.11-.64s-.04,0-.05-.01l-.56-.32c-.05-.03-.07-.09-.04-.15,.03-.05,.1-.07,.15-.04l.56,.32c.05,.03,.07,.09,.04,.15-.02,.03-.06,.05-.09,.05Zm-1.11-.64s-.04,0-.05-.01l-.56-.32c-.05-.03-.07-.09-.04-.15,.03-.05,.1-.07,.15-.04l.56,.32c.05,.03,.07,.09,.04,.15-.02,.03-.06,.05-.09,.05Zm-1.11-.64s-.04,0-.05-.01l-.56-.32c-.05-.03-.07-.1-.04-.15,.03-.05,.09-.07,.15-.04l.56,.32c.05,.03,.07,.1,.04,.15-.02,.03-.06,.05-.09,.05Zm-1.11-.64s-.04,0-.05-.01l-.56-.32c-.05-.03-.07-.09-.04-.15,.03-.05,.1-.07,.15-.04l.56,.32c.05,.03,.07,.09,.04,.15-.02,.03-.06,.05-.09,.05Zm-1.11-.64s-.04,0-.05-.01l-.56-.32c-.05-.03-.07-.09-.04-.15,.03-.05,.1-.07,.15-.04l.56,.32c.05,.03,.07,.09,.04,.15-.02,.03-.06,.05-.09,.05Zm-1.11-.64s-.04,0-.05-.01l-.56-.32c-.05-.03-.07-.09-.04-.15,.03-.05,.1-.07,.15-.04l.56,.32c.05,.03,.07,.09,.04,.15-.02,.03-.06,.05-.09,.05Zm-1.11-.64s-.04,0-.05-.01l-.56-.32c-.05-.03-.07-.09-.04-.15,.03-.05,.1-.07,.15-.04l.56,.32c.05,.03,.07,.09,.04,.15-.02,.03-.06,.05-.09,.05Zm-1.11-.64s-.04,0-.05-.01l-.56-.32c-.05-.03-.07-.09-.04-.15,.03-.05,.09-.07,.15-.04l.56,.32c.05,.03,.07,.09,.04,.15-.02,.03-.06,.05-.09,.05Zm-1.11-.64s-.04,0-.05-.01l-.56-.32c-.05-.03-.07-.09-.04-.15,.03-.05,.1-.07,.15-.04l.56,.32c.05,.03,.07,.09,.04,.15-.02,.03-.06,.05-.09,.05Zm-1.11-.64s-.04,0-.05-.01l-.56-.32c-.05-.03-.07-.09-.04-.15,.03-.05,.1-.07,.15-.04l.56,.32c.05,.03,.07,.09,.04,.15-.02,.03-.06,.05-.09,.05Zm-1.11-.64s-.04,0-.05-.01l-.56-.32c-.05-.03-.07-.09-.04-.15,.03-.05,.1-.07,.15-.04l.56,.32c.05,.03,.07,.09,.04,.15-.02,.03-.06,.05-.09,.05Zm-1.11-.64s-.04,0-.05-.01l-.56-.32c-.05-.03-.07-.09-.04-.15,.03-.05,.1-.07,.15-.04l.56,.32c.05,.03,.07,.09,.04,.15-.02,.03-.06,.05-.09,.05Zm-1.11-.64s-.04,0-.05-.01l-.56-.32c-.05-.03-.07-.1-.04-.15,.03-.05,.09-.07,.15-.04l.56,.32c.05,.03,.07,.1,.04,.15-.02,.03-.06,.05-.09,.05Zm-1.11-.64s-.04,0-.05-.01l-.15-.09c-.05-.03-.07-.09-.04-.15,.03-.05,.1-.07,.15-.04l.15,.09c.05,.03,.07,.09,.04,.15-.02,.03-.06,.05-.09,.05Z" style="fill: #8ff5f0;"/>
          <path d="M78.86,61.03c-.06,0-.11-.05-.11-.11v-.64c0-.06,.05-.11,.11-.11s.11,.05,.11,.11v.64c0,.06-.05,.11-.11,.11Zm0-1.28c-.06,0-.11-.05-.11-.11v-.64c0-.06,.05-.11,.11-.11s.11,.05,.11,.11v.64c0,.06-.05,.11-.11,.11Zm-6.7-.12s-.07-.02-.09-.05c-.03-.05-.01-.12,.04-.15l.17-.1c.05-.03,.12-.01,.15,.04,.03,.05,.01,.12-.04,.15l-.17,.1s-.04,.01-.05,.01Zm.72-.42s-.07-.02-.09-.05c-.03-.05-.01-.12,.04-.15l.56-.32c.05-.03,.12-.01,.15,.04,.03,.05,.01,.12-.04,.15l-.56,.32s-.04,.01-.05,.01Zm1.11-.64s-.07-.02-.09-.05c-.03-.05-.01-.12,.04-.15l.56-.32c.05-.03,.12-.01,.15,.04,.03,.05,.01,.12-.04,.15l-.56,.32s-.04,.01-.05,.01Zm4.87-.1c-.06,0-.11-.05-.11-.11v-.64c0-.06,.05-.11,.11-.11s.11,.05,.11,.11v.64c0,.06-.05,.11-.11,.11Zm-3.76-.54s-.07-.02-.09-.05c-.03-.05-.01-.12,.04-.15l.56-.32c.05-.03,.12-.01,.15,.04,.03,.05,.01,.12-.04,.15l-.56,.32s-.04,.01-.05,.01Zm1.11-.64s-.07-.02-.09-.05c-.03-.05-.01-.12,.04-.15l.56-.32s.12-.01,.15,.04c.03,.05,.01,.12-.04,.15l-.56,.32s-.04,.01-.05,.01Zm2.65-.1c-.06,0-.11-.05-.11-.11v-.64c0-.06,.05-.11,.11-.11s.11,.05,.11,.11v.64c0,.06-.05,.11-.11,.11Zm-1.54-.54s-.07-.02-.09-.05c-.03-.05-.01-.12,.04-.15l.56-.32c.05-.03,.12-.01,.15,.04,.03,.05,.01,.12-.04,.15l-.56,.32s-.04,.01-.05,.01Zm1.11-.64s-.07-.02-.09-.05c-.03-.05-.01-.12,.04-.15l.43-.25s.07-.02,.11,0c.03,.02,.05,.05,.05,.09v.15c0,.06-.05,.11-.11,.11-.05,0-.09-.03-.1-.07l-.27,.16s-.04,.01-.05,.01Z" style="fill: #8ff5f0;"/>
          <path d="M.11,52.68s-.04,0-.05-.01c-.03-.02-.05-.05-.05-.09v-.43c0-.06,.05-.11,.11-.11s.11,.05,.11,.11v.25c.07-.04,.14-.02,.17,.03,.03,.05,.01,.12-.04,.15l-.18,.1s-.04,.01-.05,.01Zm.74-.42s-.07-.02-.09-.05c-.03-.05-.01-.12,.04-.15l.56-.32s.12-.01,.15,.04c.03,.05,.01,.12-.04,.15l-.56,.32s-.04,.01-.05,.01Zm1.11-.64s-.07-.02-.09-.05c-.03-.05-.01-.12,.04-.15l.56-.32c.05-.03,.12-.01,.15,.04,.03,.05,.01,.12-.04,.15l-.56,.32s-.04,.01-.05,.01Zm-1.85,0c-.06,0-.11-.05-.11-.11v-.64c0-.06,.05-.11,.11-.11s.11,.05,.11,.11v.64c0,.06-.05,.11-.11,.11Zm2.96-.63s-.07-.02-.09-.05c-.03-.05-.01-.12,.04-.15l.56-.32s.12-.01,.15,.04c.03,.05,.01,.12-.04,.15l-.56,.32s-.04,.01-.05,.01Zm-2.96-.65c-.06,0-.11-.05-.11-.11v-.64c0-.06,.05-.11,.11-.11s.11,.05,.11,.11v.64c0,.06-.05,.11-.11,.11Zm0-1.28c-.06,0-.11-.05-.11-.11v-.64c0-.06,.05-.11,.11-.11s.11,.05,.11,.11v.64c0,.06-.05,.11-.11,.11Zm0-1.28c-.06,0-.11-.05-.11-.11v-.64c0-.06,.05-.11,.11-.11s.11,.05,.11,.11v.64c0,.06-.05,.11-.11,.11Zm0-1.28c-.06,0-.11-.05-.11-.11v-.64c0-.06,.05-.11,.11-.11s.11,.05,.11,.11v.64c0,.06-.05,.11-.11,.11Zm0-1.28c-.06,0-.11-.05-.11-.11v-.64c0-.06,.05-.11,.11-.11s.11,.05,.11,.11v.64c0,.06-.05,.11-.11,.11Zm0-1.28c-.06,0-.11-.05-.11-.11v-.64c0-.06,.05-.11,.11-.11s.11,.05,.11,.11v.64c0,.06-.05,.11-.11,.11Zm0-1.28c-.06,0-.11-.05-.11-.11v-.64c0-.06,.05-.11,.11-.11s.11,.05,.11,.11v.64c0,.06-.05,.11-.11,.11Zm0-1.28c-.06,0-.11-.05-.11-.11v-.64c0-.06,.05-.11,.11-.11s.11,.05,.11,.11v.64c0,.06-.05,.11-.11,.11Zm0-1.28c-.06,0-.11-.05-.11-.11v-.64c0-.06,.05-.11,.11-.11s.11,.05,.11,.11v.64c0,.06-.05,.11-.11,.11Zm0-1.28c-.06,0-.11-.05-.11-.11v-.64c0-.06,.05-.11,.11-.11s.11,.05,.11,.11v.64c0,.06-.05,.11-.11,.11Zm0-1.28c-.06,0-.11-.05-.11-.11v-.64c0-.06,.05-.11,.11-.11s.11,.05,.11,.11v.64c0,.06-.05,.11-.11,.11Zm0-1.28c-.06,0-.11-.05-.11-.11v-.64c0-.06,.05-.11,.11-.11s.11,.05,.11,.11v.64c0,.06-.05,.11-.11,.11Zm0-1.28c-.06,0-.11-.05-.11-.11v-.64c0-.06,.05-.11,.11-.11s.11,.05,.11,.11v.64c0,.06-.05,.11-.11,.11Zm0-1.28c-.06,0-.11-.05-.11-.11v-.64c0-.06,.05-.11,.11-.11s.11,.05,.11,.11v.64c0,.06-.05,.11-.11,.11Zm0-1.28c-.06,0-.11-.05-.11-.11v-.64c0-.06,.05-.11,.11-.11s.11,.05,.11,.11v.64c0,.06-.05,.11-.11,.11Zm0-1.28c-.06,0-.11-.05-.11-.11v-.64c0-.06,.05-.11,.11-.11s.11,.05,.11,.11v.64c0,.06-.05,.11-.11,.11Zm0-1.28c-.06,0-.11-.05-.11-.11v-.64c0-.06,.05-.11,.11-.11s.11,.05,.11,.11v.64c0,.06-.05,.11-.11,.11Zm0-1.28c-.06,0-.11-.05-.11-.11v-.08c0-.06,.05-.11,.11-.11s.11,.05,.11,.11v.08c0,.06-.05,.11-.11,.11Z" style="fill: #8ff5f0;"/>
          <path d="M82.53,31.34s-.07-.02-.09-.05c-.03-.05-.01-.12,.04-.15l.56-.32c.05-.03,.12-.01,.15,.04s.01,.12-.04,.15l-.56,.32s-.04,.01-.05,.01Zm1.11-.64s-.07-.02-.09-.05c-.03-.05-.01-.12,.04-.15l.56-.32s.12-.01,.15,.04c.03,.05,.01,.12-.04,.15l-.56,.32s-.04,.01-.05,.01Zm1.11-.64s-.07-.02-.09-.05c-.03-.05-.01-.12,.04-.15l.56-.32c.05-.03,.12-.01,.15,.04,.03,.05,.01,.12-.04,.15l-.56,.32s-.04,.01-.05,.01Zm1.11-.64s-.07-.02-.09-.05c-.03-.05-.01-.12,.04-.15l.56-.32c.05-.03,.12-.01,.15,.04,.03,.05,.01,.12-.04,.15l-.56,.32s-.04,.01-.05,.01Zm.86-.79c-.06,0-.11-.05-.11-.11v-.64c0-.06,.05-.11,.11-.11s.11,.05,.11,.11v.64c0,.06-.05,.11-.11,.11Zm0-1.28c-.06,0-.11-.05-.11-.11v-.64c0-.06,.05-.11,.11-.11s.11,.05,.11,.11v.64c0,.06-.05,.11-.11,.11Zm0-1.28c-.06,0-.11-.05-.11-.11v-.64c0-.06,.05-.11,.11-.11s.11,.05,.11,.11v.64c0,.06-.05,.11-.11,.11Zm0-1.28c-.06,0-.11-.05-.11-.11v-.64c0-.06,.05-.11,.11-.11s.11,.05,.11,.11v.64c0,.06-.05,.11-.11,.11Zm0-1.28c-.06,0-.11-.05-.11-.11v-.64c0-.06,.05-.11,.11-.11s.11,.05,.11,.11v.64c0,.06-.05,.11-.11,.11Zm0-1.28c-.06,0-.11-.05-.11-.11v-.64c0-.06,.05-.11,.11-.11s.11,.05,.11,.11v.64c0,.06-.05,.11-.11,.11Zm0-1.28c-.06,0-.11-.05-.11-.11v-.64c0-.06,.05-.11,.11-.11s.11,.05,.11,.11v.64c0,.06-.05,.11-.11,.11Zm0-1.28c-.06,0-.11-.05-.11-.11v-.64c0-.06,.05-.11,.11-.11s.11,.05,.11,.11v.64c0,.06-.05,.11-.11,.11Zm0-1.28c-.06,0-.11-.05-.11-.11v-.64c0-.06,.05-.11,.11-.11s.11,.05,.11,.11v.64c0,.06-.05,.11-.11,.11Zm0-1.28c-.06,0-.11-.05-.11-.11v-.64c0-.06,.05-.11,.11-.11s.11,.05,.11,.11v.64c0,.06-.05,.11-.11,.11Zm0-1.28c-.06,0-.11-.05-.11-.11v-.64c0-.06,.05-.11,.11-.11s.11,.05,.11,.11v.64c0,.06-.05,.11-.11,.11Zm0-1.28c-.06,0-.11-.05-.11-.11v-.39c0-.06,.05-.11,.11-.11s.11,.05,.11,.11v.39c0,.06-.05,.11-.11,.11Z" style="fill: #8ff5f0;"/>
        </g>
      </g>
    </g>
  </g>
</svg>