<?xml version="1.0" encoding="UTF-8"?>
<svg xmlns="http://www.w3.org/2000/svg" xmlns:xlink="http://www.w3.org/1999/xlink" viewBox="0 0 80.24 86.03">
  <defs>
    <linearGradient id="_Áåçûìÿííûé_ãðàäèåíò_478" data-name="Áåçûìÿííûé ãðàäèåíò 478" x1="34.68" y1="82.44" x2="38.18" y2="80.44" gradientUnits="userSpaceOnUse">
      <stop offset="0" stop-color="#bbc2cd"/>
      <stop offset="1" stop-color="#eef4ff"/>
    </linearGradient>
    <linearGradient id="_Áåçûìÿííûé_ãðàäèåíò_478-2" data-name="Áåçûìÿííûé ãðàäèåíò 478" x1="49.76" y1="75.52" x2="52.51" y2="72.77" xlink:href="#_Áåçûìÿííûé_ãðàäèåíò_478"/>
    <linearGradient id="_Áåçûìÿííûé_ãðàäèåíò_478-3" data-name="Áåçûìÿííûé ãðàäèåíò 478" x1="42.97" y1="64.26" x2="50.98" y2="64.26" xlink:href="#_Áåçûìÿííûé_ãðàäèåíò_478"/>
    <linearGradient id="_Áåçûìÿííûé_ãðàäèåíò_478-4" data-name="Áåçûìÿííûé ãðàäèåíò 478" x1="42.95" y1="49.96" x2="50.99" y2="49.96" xlink:href="#_Áåçûìÿííûé_ãðàäèåíò_478"/>
    <linearGradient id="_Áåçûìÿííûé_ãðàäèåíò_478-5" data-name="Áåçûìÿííûé ãðàäèåíò 478" x1="34.03" y1="43.17" x2="47.29" y2="43.17" xlink:href="#_Áåçûìÿííûé_ãðàäèåíò_478"/>
    <linearGradient id="_Áåçûìÿííûé_ãðàäèåíò_395" data-name="Áåçûìÿííûé ãðàäèåíò 395" x1="35.04" y1="41.11" x2="46.03" y2="38.02" gradientUnits="userSpaceOnUse">
      <stop offset="0" stop-color="#e5ecf8"/>
      <stop offset="1" stop-color="#f5f9ff"/>
    </linearGradient>
    <linearGradient id="_Áåçûìÿííûé_ãðàäèåíò_478-6" data-name="Áåçûìÿííûé ãðàäèåíò 478" x1="31.74" y1="27.32" x2="47.14" y2="27.32" xlink:href="#_Áåçûìÿííûé_ãðàäèåíò_478"/>
    <linearGradient id="_Áåçûìÿííûé_ãðàäèåíò_478-7" data-name="Áåçûìÿííûé ãðàäèåíò 478" x1="32.86" y1="69.78" x2="40.57" y2="69.78" xlink:href="#_Áåçûìÿííûé_ãðàäèåíò_478"/>
    <linearGradient id="_Áåçûìÿííûé_ãðàäèåíò_478-8" data-name="Áåçûìÿííûé ãðàäèåíò 478" x1="32.86" y1="53.92" x2="40.68" y2="53.92" xlink:href="#_Áåçûìÿííûé_ãðàäèåíò_478"/>
    <linearGradient id="_Áåçûìÿííûé_ãðàäèåíò_395-2" data-name="Áåçûìÿííûé ãðàäèåíò 395" x1="36.67" y1="16.97" x2="44.12" y2="12.61" xlink:href="#_Áåçûìÿííûé_ãðàäèåíò_395"/>
    <linearGradient id="_Áåçûìÿííûé_ãðàäèåíò_478-9" data-name="Áåçûìÿííûé ãðàäèåíò 478" x1="49.6" y1="23.94" x2="60.25" y2="23.94" xlink:href="#_Áåçûìÿííûé_ãðàäèåíò_478"/>
    <linearGradient id="_Áåçûìÿííûé_ãðàäèåíò_478-10" data-name="Áåçûìÿííûé ãðàäèåíò 478" x1="24.74" y1="52.97" x2="31.56" y2="52.97" xlink:href="#_Áåçûìÿííûé_ãðàäèåíò_478"/>
    <linearGradient id="_Áåçûìÿííûé_ãðàäèåíò_478-11" data-name="Áåçûìÿííûé ãðàäèåíò 478" x1="27.26" y1="42.1" x2="31.24" y2="42.1" xlink:href="#_Áåçûìÿííûé_ãðàäèåíò_478"/>
    <linearGradient id="_Áåçûìÿííûé_ãðàäèåíò_478-12" data-name="Áåçûìÿííûé ãðàäèåíò 478" x1="59.19" y1="20.8" x2="63.81" y2="14.97" xlink:href="#_Áåçûìÿííûé_ãðàäèåíò_478"/>
    <linearGradient id="_Áåçûìÿííûé_ãðàäèåíò_478-13" data-name="Áåçûìÿííûé ãðàäèåíò 478" x1="44.85" y1="22.01" x2="49.43" y2="16.24" gradientTransform="translate(26.16 -18.98) rotate(24.07)" xlink:href="#_Áåçûìÿííûé_ãðàäèåíò_478"/>
  </defs>
  <g style="isolation: isolate;">
    <g id="_0" data-name="0">
      <g id="_7" data-name="7">
        <path d="M26.17,76.51c-4.04,0,.55-3.3,5.07-3.3h18.22l-.26-5.65H26.09c-19.79,0-31.96,13.4-23.21,13.4H36.7l-2.06-4.44h-8.46Z" style="fill: #003893; mix-blend-mode: multiply; opacity: .5;"/>
        <g>
          <path d="M69.94,27.04l-12.5,7.21c-1.3,.75-2.36,.31-2.36-1v-3.09c0-1.3,1.06-2.97,2.36-3.72l12.5-7.21c1.3-.75,2.36-.31,2.36,1v3.09c0,1.3-1.06,2.97-2.36,3.72Z" style="fill: #3dc4bd;"/>
          <path d="M27.68,21.88l-11.1,6.41c-1.3,.75-2.36,.31-2.36-1v-3.09c0-1.3,1.06-2.97,2.36-3.72l11.1-6.41c1.3-.75,2.36-.31,2.36,1v3.09c0,1.3-1.06,2.97-2.36,3.72Z" style="fill: #0656d7;"/>
          <path d="M24.65,33.88l-15.4,8.89c-1.3,.75-2.36,.31-2.36-1v-3.09c0-1.3,1.06-2.97,2.36-3.72l15.4-8.89c1.3-.75,2.36-.31,2.36,1v3.09c0,1.3-1.06,2.97-2.36,3.72Z" style="fill: #0656d7;"/>
          <path d="M66.9,8.18l-8.44,4.87c-1.3,.75-2.36,.31-2.36-1v-3.09c0-1.3,1.06-2.97,2.36-3.72L66.9,.37c1.3-.75,2.36-.31,2.36,1v3.09c0,1.3-1.06,2.97-2.36,3.72Z" style="fill: #3dc4bd;"/>
          <g>
            <g>
              <path d="M33.54,79.3c-.24,.52-.23,1.23-.05,1.58,1.06,2.06,2.61,4.59,4.25,5,1.46,.37,2.94,.02,3.33-.79,.28-.59,.02-1.64-.31-2-.43-.48-1.63-.79-2.41-1.7-.82-.97-2.1-1.48-3.11-2.22-.45-.33-1.66,0-1.71,.13Z" style="fill: #251e28;"/>
              <path d="M33.67,80.42c-.41-1.14,.02-1.2,.03-1.76,.02-.74,.08-1.51,.34-1.77,.11-.11,.25-.18,.38-.24,.41-.2,.86-.15,1.31-.11,.67,.07,1.19,.26,1.75,.67,.38,.28,.15,.61,.44,1.34,.34,.86,3.01,3.57,3.22,5.39,.06,.53-.28,1.03-.79,1.2-.61,.21-1.43,.31-2.07,.22-2.03-.29-4.45-4.52-4.6-4.94Z" style="fill: url(#_Áåçûìÿííûé_ãðàäèåíò_478);"/>
            </g>
            <path d="M47.28,17.94l4.38,8.47c-.07,.72-.95,1.43-1.76,1.21-.14-.04-3.46-4.75-4.56-6.51-.46-.73,1.93-3.17,1.93-3.17Z" style="fill: #251e28;"/>
            <path d="M46.73,22.32c2.25-.78,2.91-5.26,.55-6.52-2.74-1.45-6.18,3.09-3.89,5.33,.48,.47,1.25,.99,1.91,1.19,.53,.16,1.01,.15,1.44,0Z" style="fill: #251e28;"/>
            <g>
              <g>
                <path d="M46.49,73.02c-.1,.22-.17,1.13,.23,1.4,.85,.57,1.27,.72,2.23,1.38,.65,.45,1.63,1.4,2.4,1.68,.77,.28,1.99,.56,2.81,.51,1.09-.06,1.98-.33,2.08-1.49,.06-.7-.51-1.22-.58-1.27-.56-.41-2.78-.56-3.93-1.14-1.22-.61-2.45-1.17-3.62-1.83-.52-.29-1.6,.62-1.63,.76Z" style="fill: #251e28;"/>
                <path d="M46.78,73.72c-.63-.56-.08-1.37,.03-2.03,.07-.39,.03-1.02,.36-1.3,.44-.39,1.39-.06,1.91-.02,.39,.03,1.08,.01,1.42,.22,.36,.23,.38,.81,.64,1.13,.69,.87,1.76,1.26,2.69,1.84,1,.61,2.3,1.44,2.41,2.73,.04,.42-.26,.86-.65,1.02-1.39,.56-3.24-.02-4.54-.78-1.06-.62-1.87-1.63-2.99-2.15-.44-.2-.92-.34-1.28-.66Z" style="fill: url(#_Áåçûìÿííûé_ãðàäèåíò_478-2);"/>
              </g>
              <path d="M50.26,68.28c0,.52,.19,2.25,.19,2.65,0,.69-1.01,.79-1.54,.79-1.06,0-1.4-.48-1.42-.77,0-.09-.03-2.04-.02-2.13,.13-.93,.76-.54,1.73-.54h1.06Z" style="fill: #251e28;"/>
              <path d="M50.12,58.28c-.87-.19-2.19-.02-3.18,.45-.84,.4-1.31,1.31-1.27,2.23,.13,2.72,1.12,1.65,1.47,8.33,.05,.87,1.04,1.29,1.65,.85,1.02-.74,.62-.4,1.44-.62,.33-.09,.37-.44,.3-.72-.36-1.62,.34-3.22,.45-9.4,0-.53-.35-1.01-.86-1.12Z" style="fill: url(#_Áåçûìÿííûé_ãðàäèåíò_478-3);"/>
              <path d="M50.23,58.07c-.37-.81-1.69-.05-2.54-.07-.35,0-.56-.08-.84,.19-2.26,2.18,5,3.48,3.37-.12Z" style="fill: #251e28;"/>
              <path d="M50.98,56.82c-.09-2.48-.74-12.91-3.1-15.58-.49-.55-.89-.35-1.44-.05-.89,.49-1.52,1.41-2.08,2.25-.84,1.27-1.28,2.86-1.39,4.37-.12,1.62,.47,3.81,1.01,5.84,.36,1.36,1.23,3.7,1.58,4.61,.86,1.53,5.44,.58,5.43-1.44Z" style="fill: url(#_Áåçûìÿííûé_ãðàäèåíò_478-4);"/>
              <path d="M47.28,40.97c-.97-.46-3.27,3.3-3.62,4.31-.32,.91-.39,2.81,.06,4.11,.38,1.1,1.75,1.55,2.67,.83,2.28-1.78,2.55-8.45,.89-9.25Z" style="fill: #94a0b4;"/>
            </g>
            <path d="M42.06,43.04l2.4,3.79c1.84,2.23,2.83-1.16,2.86-3.61,.02-1.52-.57-2.16-2.94-6.11-1.03,.64-2.33,5.5-2.32,5.93Z" style="fill: #251e28;"/>
            <path d="M40.67,46.2l-1.08,6.25c-2.14,.14-3.72-2.24-4.53-4.63l.45-5.46c1.68-.78,5.69,2.06,5.16,3.84Z" style="fill: #251e28;"/>
            <path d="M47.29,38.54l-13.26,1.97c-.05,.32,.11,.9,.11,1.22,.02,1.23,2.35,1.37,4.39,2.48,.77,.42,1.49,1.02,1.84,1.83,1.1,2.58,3.49,2.07,3.91,.17,.28-1.28,.56-2.72,1.33-4.07,.48-.85,.83-1.06,1.47-1.84,.14-.17,.21-.39,.21-.61v-1.15Z" style="fill: url(#_Áåçûìÿííûé_ãðàäèåíò_478-5);"/>
            <path d="M45.95,36.99c-2.21-1.06-6.37-.78-9.29,.61-2.92,1.4-3.49,3.39-1.28,4.45,2.21,1.06,6.37,.78,9.29-.61,2.92-1.4,3.49-3.39,1.28-4.45Z" style="fill: url(#_Áåçûìÿííûé_ãðàäèåíò_395);"/>
            <path d="M46.39,30.78l-.16,7.32c-.09,3.53-10.73,4.27-10.99,2.23l-.62-6.71,11.77-2.84Z" style="fill: #251e28;"/>
            <path d="M34.03,34.26c.66,2.29,2.74,3.35,5.01,2.64,1.24-.39,2.37-1.08,3.17-1.86,1.33-1.3,2.69-2.13,4.31-2.07,.35,.01,.63-.27,.63-.62-.17-9.19,.56-15.6-3.38-14.74-3.81,.83-9.19,3.5-12.02,6.19-.03,.2,1.27,6.95,2.28,10.47Z" style="fill: url(#_Áåçûìÿííûé_ãðàäèåíò_478-6);"/>
            <path d="M37.1,74.76c0,.52,.19,2.25,.19,2.65,0,.69-1.01,.79-1.54,.79-1.06,0-1.4-.48-1.42-.77,0-.09-.03-2.04-.02-2.13,.13-.93,.76-.54,1.73-.54h1.06Z" style="fill: #251e28;"/>
            <path d="M37.43,75.35c.3-2.19,1.01-6.39,1.7-10.54,.13-.76-.27-1.55-.98-1.84-1.57-.63-4.12,.27-4.12,1.44-.04,.61-.16,1.23-.35,1.82-1.19,3.85,.56,5.07,.23,9.02-.04,.53-.06,1.53,.74,1.53,.66,0,.78-.36,1.56-.5,.48-.09,.85,.27,1.1,.05,.24-.22,.1-.7,.13-.98Z" style="fill: url(#_Áåçûìÿííûé_ãðàäèåíò_478-7);"/>
            <path d="M38.56,62.46c-.37-.81-1.69-.05-2.54-.07-.35,0-.56-.08-.84,.19-2.26,2.18,5,3.48,3.37-.12Z" style="fill: #251e28;"/>
            <path d="M33.85,62c.39,1.5,2.77,1.69,4.37,1.06,.8-.31,1.36-1.03,1.49-1.88,.41-2.56,.96-6.27,.96-7.43,0-2.42,.11-4.6-1.4-6.55-.74-.95-1.67-2.1-2.82-2.61-2.36-1.05-3.14,3.72-3.28,4.87-.53,4.41-.46,8.2,.68,12.54Z" style="fill: url(#_Áåçûìÿííûé_ãðàäèåíò_478-8);"/>
            <path d="M38.66,19.65c-.27,.12-.5,.24-.68,.37-1.43,.98-.47,2.25,1.27,2.85,1.02,.35,3.28,.51,3.77-.8,1.04-2.83-2.63-3.15-4.35-2.42Z" style="fill: #94a0b4;"/>
            <path d="M42.65,16.84l-7.03-1.88c.45,.4,2.12,5.44,2.47,6.25,.64,1.45,4.16,1.62,4.55,.34,.08-.66,0-4.71,0-4.71Z" style="fill: #251e28;"/>
            <path d="M43.61,10.08c-.39-1.98-4.53-4.29-7.84-2.51-1.58,.85-2.76,2.47-2.5,5.42,.78,4.68,5.46,4.98,6.24,4.65,.66-.28,5.1-2.37,4.09-7.56Z" style="fill: #251e28;"/>
            <path d="M43.79,10.6c-.46-1.75-2.09-3.8-4.79-1.97-1.25,.85-2.68,2.95-2.2,5.26,1.15,5.51,5.8,6.4,7.04,5.87,.68-.29,.65-1.28,.67-2.04,.04-1.09,.31-1.64-.1-4.51-.13-.91-.39-1.74-.62-2.62Z" style="fill: url(#_Áåçûìÿííûé_ãðàäèåíò_395-2);"/>
            <path d="M49.73,28.26c.21,.58,.69,1,1.5,1.01,.74,.01,1.39-.46,1.87-.96,1-1.04,5.53-6.44,6.87-7.94,.97-1.08-.93-2.07-1.35-1.7-1.65,1.46-7.29,5.69-8.34,6.87-.61,.68-.87,1.86-.55,2.71Z" style="fill: url(#_Áåçûìÿííûé_ãðàäèåíò_478-9);"/>
            <path d="M60.29,19.71c.23-.15,1.05-1.3,1.14-1.52,.22-.51-1.06-.72-1.58-.5,0,0-.82,.62-.94,1.01-.14,.46,.53,1.13,1.07,1.11,.11,0,.21-.04,.31-.1Z" style="fill: #251e28;"/>
            <path d="M35.16,47.04s-.2,.69-.4,1.76c-.21,1.06-.41,2.5-.52,3.94-.12,1.44-.13,2.9-.1,3.98,0,.54,.04,1,.06,1.31,.02,.32,.03,.5,.03,.5,0,.03-.02,.06-.05,.06-.03,0-.05-.02-.06-.05,0,0-.02-.18-.04-.5-.03-.32-.07-.77-.1-1.32-.06-1.09-.09-2.55-.01-4.01,.07-1.46,.24-2.91,.42-3.99,.17-1.08,.36-1.8,.36-1.8,.03-.11,.14-.18,.26-.15,.11,.03,.18,.14,.15,.26,0,0,0,0,0,0Z" style="fill: #139288;"/>
            <g>
              <path d="M31.21,52.43c-.26-.11-.51-.28-.66-.54-.3-.52-.49-.87-.72-1.09-.45-.43-.3-1.18-.85-1.54-.25-.17-.59-.12-.87,0-.92,.36-1.21,1.13-1.65,1.93-.59,1.09-1.37,2.21-1.61,3.44-.05,.23-.11,.49-.1,.73,.01,.27,.2,.23,.34,.07,.13-.14,.23-.32,.29-.49,.03-.07,.03-.13,.03-.18,.02,.53,.07,1.56,.26,1.74,.14,.14,.44,.11,.47-.09,.11,.21,.28,.45,.51,.4,.5-.11,.14-.7,.27-1.09,.19,.04,.36-.13,.41-.31,.05-.18,.01-.38,0-.57-.1-1.4,1.05-2.48,1.85-2.33,.34,.06,.61,.31,.92,.48,1.09,.6,1.99-.18,1.11-.55Z" style="fill: url(#_Áåçûìÿííûé_ãðàäèåíò_478-10);"/>
              <g>
                <path d="M27.46,48.76c-.08,.26-.05,1.01,.02,1.24,.16,.53,1.37,.51,1.63,0,0,0,.22-1,.05-1.38-.19-.44-1.13-.51-1.53-.15-.08,.07-.14,.17-.17,.28Z" style="fill: #251e28;"/>
                <path d="M30.16,27.08l-1.69,9.43c.31,.65,1.39,1.01,2.07,.53,.12-.08,1.33-6.26,1.76-8.3l-2.14-1.66Z" style="fill: #251e28;"/>
                <path d="M29.89,35.39c-.54-.3-1.18-.31-1.8,.21-.57,.47-.76,1.25-.8,1.94-.08,1.44,0,8.49-.04,10.5-.03,1.45,2.06,.97,2.13,.4,.3-2.19,1.82-9.07,1.85-10.64,.02-.91-.56-1.98-1.35-2.42Z" style="fill: url(#_Áåçûìÿííûé_ãðàäèåíò_478-11);"/>
              </g>
              <path d="M32.82,29.37c2.25-.78,2.91-5.26,.55-6.52-2.74-1.45-6.18,3.09-3.89,5.33,.48,.47,1.25,.99,1.91,1.19,.53,.16,1.01,.15,1.44,0Z" style="fill: #251e28;"/>
              <path d="M28.77,36.69s-.09,.67-.18,1.69c-.09,1.02-.2,2.38-.29,3.74-.18,2.72-.3,5.45-.3,5.45,0,.06-.05,.11-.12,.11-.06,0-.11-.05-.11-.11,0,0,.07-2.73,.2-5.46,.06-1.36,.14-2.73,.22-3.75,.07-1.02,.15-1.71,.15-1.71,.01-.12,.12-.2,.23-.19,.12,.01,.2,.12,.19,.23,0,0,0,0,0,0Z" style="fill: #139288;"/>
            </g>
            <path d="M35.23,34.79c.55,.63,1.33,1.35,2.14,.97l-1.08-7.18s-.52,.99-1.75,1.54c-.23,.1-.38,.32-.35,.57,.1,1.06,.18,3.12,1.05,4.11Z" style="fill: #251e28;"/>
            <g>
              <path d="M63.12,15.43c0-.17,.77-1.03,1.07-1.34,.31-.32,.73-.75,.44-.94-.31-.21-2.93,1.76-3.38,2.18-1.69,1.63-1.67,2.52-1.67,2.52-.32,2.35,3.46,1.91,4.93-.9,.11-.22,.39-.36,.37-.6-.09-.74-1.75-.15-1.76-.92Z" style="fill: url(#_Áåçûìÿííûé_ãðàäèåíò_478-12);"/>
              <path d="M62.32,17.63c-.6,.87,.09,1.05,.64,.47,.12,.14,.35,.13,.51,.02,.04-.03,.43-.47,.44-.52-.08,.44,.44,.23,.63-.03,.24-.35,.43-.79,.4-1.22-.02-.28-.24-.45-.45-.45-.04,0-.05,0-.05-.05-.02-.22-.21-.39-.44-.38,0-.39-.37-.53-.66-.35-.24,.15-.21,.43-.23,.68-.04,.86-.38,1.25-.77,1.82Z" style="fill: url(#_Áåçûìÿííûé_ãðàäèåíò_478-13);"/>
            </g>
            <path d="M77.88,11.82l-13.19,7.62c-1.3,.75-2.36,.31-2.36-1v-3.09c0-1.3,1.06-2.97,2.36-3.72l13.19-7.62c1.3-.75,2.36-.31,2.36,1v3.09c0,1.3-1.06,2.97-2.36,3.72Z" style="fill: #0656d7;"/>
            <path d="M64.47,15.91s-.05,0-.05-.05c-.02-.22-.21-.39-.44-.38,0-.39-.37-.53-.66-.35-.04,.02-.06,.06-.09,.09,.22-.32,.73-.89,.97-1.14,.31-.32,.73-.75,.44-.94-.19-.13-1.23,.55-2.12,1.2-.11,.34-.18,.69-.18,1.01v3.09c0,.21,.04,.39,.09,.55,.54-.26,1.07-.65,1.52-1.18,.11,.13,.45-.04,.59-.24,.24-.35,.43-.79,.4-1.22-.02-.28-.24-.45-.45-.45Z" style="fill: #0656d7; mix-blend-mode: screen;"/>
          </g>
          <path d="M61.65,56.01l-11.1,6.41c-1.3,.75-2.36,.31-2.36-1v-3.09c0-1.3,1.06-2.97,2.36-3.72l11.1-6.41c1.3-.75,2.36-.31,2.36,1v3.09c0,1.3-1.06,2.97-2.36,3.72Z" style="fill: #0656d7;"/>
          <path d="M48.19,58.33v3.09c0,1.3,1.06,1.75,2.36,1l.12-.07c.03-.7,.06-1.48,.08-2.35,0-.44-.24-.83-.62-1.02-.03-.08-.06-.17-.1-.26,.44-.35,.73-.79,.72-1.3-.02-.58-.07-1.59-.17-2.83-1.33,.77-2.39,2.44-2.39,3.74Z" style="fill: #0656d7; mix-blend-mode: screen;"/>
        </g>
      </g>
    </g>
  </g>
</svg>