<?xml version="1.0" encoding="utf-8"?>
<!-- Generator: Adobe Illustrator 27.0.0, SVG Export Plug-In . SVG Version: 6.00 Build 0)  -->
<svg version="1.1" id="infranto_logo_tv" xmlns="http://www.w3.org/2000/svg" xmlns:xlink="http://www.w3.org/1999/xlink" x="0px"
	 y="0px" viewBox="0 0 400 400" style="enable-background:new 0 0 400 400;" xml:space="preserve">
<style type="text/css">
	.st0{fill:#F39323;}
	.st1{fill:#FFFFFF;}
	.st2{opacity:0;}
	.st3{fill:#010101;stroke:#010101;stroke-width:0.3;stroke-miterlimit:10;}
	.st4{fill:none;}
	.st5{fill:#010101;}
	.st6{fill:none;stroke:#010101;stroke-width:0.3;stroke-miterlimit:10;}
	.st7{fill:none;stroke:#010101;stroke-width:0.32;stroke-miterlimit:10;}
	.st8{fill:#010101;stroke:#010101;stroke-width:0.32;stroke-miterlimit:10;}
	.st9{fill:#3D64AD;}
</style>
<g>
	<path class="st0" d="M150.5,157.8c1.7-18.5,24.4-33.2,52.2-33.2s51.8,15.5,52.3,34.7h-53.2L150.5,157.8L150.5,157.8z"/>
	<g>
		<g>
			
				<rect x="208.4" y="102.1" transform="matrix(0.4555 -0.8902 0.8902 0.4555 38.7569 274.6139)" class="st0" width="71" height="7"/>
			
				<rect x="251" y="57.9" transform="matrix(0.4555 -0.8902 0.8902 0.4555 92.8877 270.4932)" class="st0" width="33.1" height="2.9"/>
		</g>
		<path class="st0" d="M280.4,34.8l-0.4-0.2l-3.2-1.6c-1.1-0.5-2.3,0.1-2.5,1.3l-1.1,8.1c-0.1,0.7,0.3,1.4,0.9,1.8l0.8,0.4l0.4,0.2
			l0.8,0.4c0.6,0.3,1.4,0.2,2-0.3l5.9-5.7c0.9-0.8,0.6-2.2-0.4-2.8L280.4,34.8L280.4,34.8z"/>
	</g>
	<path id="antenna_sx" class="st0" d="M163.4,89l-9.1-24.6l-1.9,0.7l-11.5-31l-0.3,0.1c0.7-0.3,1.1-0.9,1.1-1.7l-0.2-8.2
		c0-1.2-1.2-2-2.3-1.6l-3.4,1.2l-0.5,0.2l-3.4,1.2c-1.1,0.4-1.5,1.8-0.7,2.7l5.2,6.3c0.5,0.6,1.2,0.8,1.9,0.5l-0.3,0.1l11.5,31
		l-1.9,0.7l9.1,24.6l6.9,18.5l6.6-2.4L163.4,89L163.4,89z	">
<animate  accumulate="none" additive="replace" attributeName="d" begin="pomello_interno_rotazione_90.end-2" calcMode="linear" dur="7s" fill="remove" from="M99.75,66.26l-9.15-24.59-1.93,.72-11.54-31-.27,.1c.69-.26,1.14-.92,1.12-1.65l-.18-8.17c-.03-1.18-1.21-1.99-2.32-1.57l-3.36,1.25-.46,.17-3.36,1.25c-1.11,.41-1.48,1.79-.73,2.71l5.2,6.3c.47,.56,1.24,.77,1.93,.52l-.27,.1,11.54,31-1.93,.72,9.15,24.59,6.88,18.48,6.56-2.44-6.88-18.48Z" id="antenna_sx_piega_1" restart="always" to="M81.11,58.36l-24.36-9.74-.76,1.91-30.71-12.28-.11,.27c.27-.68,.08-1.46-.47-1.94l-6.17-5.35c-.89-.77-2.28-.44-2.72,.66l-1.33,3.33-.18,.45-1.33,3.33c-.44,1.1,.34,2.3,1.52,2.36l8.16,.38c.73,.03,1.4-.4,1.68-1.08l-.11,.27,30.71,12.28-.76,1.91,24.36,9.74,18.31,7.32,2.6-6.5-18.31-7.32Z">
			</animate>
		
			<animate  accumulate="none" additive="replace" attributeName="d" begin="antenna_sx_piega_1.end" calcMode="linear" dur="17s" fill="remove" id="antenna_sx_piega_1_freeze" restart="always" values="M81.11,58.36l-24.36-9.74-.76,1.91-30.71-12.28-.11,.27c.27-.68,.08-1.46-.47-1.94l-6.17-5.35c-.89-.77-2.28-.44-2.72,.66l-1.33,3.33-.18,.45-1.33,3.33c-.44,1.1,.34,2.3,1.52,2.36l8.16,.38c.73,.03,1.4-.4,1.68-1.08l-.11,.27,30.71,12.28-.76,1.91,24.36,9.74,18.31,7.32,2.6-6.5-18.31-7.32Z">
			</animate>
	</path>
	<polygon class="st0" points="156.5,90.9 165.4,114.3 174.7,138.8 181.2,136.3 171.9,111.8 163,88.4 	"/>
</g>
<rect x="106.5" y="180.4" class="st1" width="178.2" height="144.3"/>
<g id="frammento_00000054958842459457189100000001309303120385683633_" class="st2">
	<path class="st3" d="M135.6,267.9l-21-7.9l20.7,8.5C135.3,268.3,135.4,268.1,135.6,267.9z"/>
	<path class="st3" d="M114.5,269.9l-3.5-0.2l3.6,0.7C114.5,270.3,114.5,270.1,114.5,269.9L114.5,269.9z"/>
	<path class="st3" d="M219.6,236.8c-1.4-0.3-4.2-0.9-6.9-1.2c-0.2,0.5-0.6,0.9-1.2,1c-0.3,0.4-0.7,0.8-1.4,0.8c-0.4,0-0.7-0.1-1-0.3
		c-0.1,0-0.2,0.1-0.4,0.1c0.3-0.1-0.2,0.1-0.2,0.1c-0.2,0.1-0.3,0.1-0.5,0.2c-0.6,0.3-1.4,0.3-1.9-0.1c0,0,0,0-0.1,0
		c-0.6,0-1-0.2-1.3-0.6c-4,1.9-6.8,4.5-8.2,6.2c-2,1.1-5.1,2.4-8.8,3.1c-3.3,0.6-6.2,0.5-8.3,0.3c-0.7-18-2.5-27.2-5.3-27.5
		c-0.6-0.1-1.1,0.2-1.8,0.8c-0.7,5.2-1.4,10.4-2.1,15.6c1.9,0.2,1.8,3.4-0.2,3.4c-0.1,0-0.1,0-0.2,0l-0.9,6.4
		c0.2-0.1,0.3-0.2,0.5-0.3c1.9-1.1,3.5,1.8,1.7,2.9c-1.5,0.9-2.8,2.5-4.6,3c-1.7,0.4-3.1-0.7-4-2.1c-0.8-1.4-0.9-2.9-1-4.5
		c0-0.9,0-1.7-0.2-2.6c0-0.2-0.2-0.6-0.3-0.9c-0.1,0.2-0.2,0.5-0.2,0.5c-0.3,1.3-0.4,2.6-0.5,3.9c-0.2,2.3,0,5.5-1.3,7.4
		c-1,1.5-2.9,0.8-3.1-0.9c-0.7-5.3-1.1-10.7-2.4-15.9c-0.1-0.4-0.1-0.7,0.1-1c-0.5-1.4-1.1-2.8-1.7-4.2
		c-4.7-10.4-11.1-17.1-15.1-20.6l15,48c0.1,0,0.2,0,0.3,0.1c0.2,0,0.3-0.1,0.5-0.1c0.3,0,0.6,0.1,0.8,0.2c0.3-0.1,0.6-0.1,0.9,0
		c0.2,0,0.4,0.1,0.5,0.2c1.1-1.1,3.3,0.5,2.5,2.2c0,0,0,0,0,0.1c0.4,0.2,0.6,0.5,0.8,0.9c1.1,0.1,2.1,1.3,1.4,2.5
		c-0.4,0.7-1.1,1.4-1.7,2.1c-0.1,0.6-0.4,1.1-1,1.4c-0.3,0.6-0.5,1.2-0.5,1.8c0.1,2.2-3.2,2.2-3.4,0c0-0.7,0.1-1.3,0.3-1.9
		c-0.3-0.3-0.5-0.7-0.5-1.2c0-0.2,0-0.4,0-0.6c-0.4-0.5-0.4-1.3-0.2-1.9c-0.1,0-0.2-0.1-0.2-0.1c-0.7-0.4-1.1-1.5-0.7-2.2
		c-0.1,0-0.1,0-0.2,0c-0.4,0-0.8-0.1-1-0.3l-3.9,1.7l-17.4-37.2l16.8,46.4l-6.6-2.5c0,0.1,0,0.3,0,0.4c0.2,0.2,0.3,0.4,0.3,0.7
		l3.4,1.4l-3.3-0.2c-0.1,0.5-0.4,1-0.9,1.2c-0.2,0.5-0.7,0.9-1.4,0.9c-0.6,0-1.1-0.3-1.4-0.7c0,0-0.1,0-0.1,0
		c-1.1,0-1.6-0.9-1.6-1.7l-13.3-0.9c0,0-0.1,0.1-0.1,0.1c0,0,0,0,0,0c0,0-0.1,0.1-0.1,0.1c0,0,0,0,0,0c-0.1,0.1-0.2,0.2-0.3,0.2
		c0,0,0,0,0,0c-0.1,0-0.1,0-0.2,0.1c0,0,0,0,0,0c0,0-0.1,0-0.1,0c0,0,0,0-0.1,0c0,0-0.1,0-0.1,0c0,0,0,0-0.1,0c-0.1,0-0.1,0-0.2,0
		c0,0-0.1,0-0.1,0c0,0.1-0.1,0.1-0.1,0.2l20.7,3.9l-6.5,1.5h6.2l-23.6,10.4l23.6-6.5l-16.8,13.8l18-9.8l-1.8,8l3.8-3.4l-9.4,26.7
		l13-23l0.1,0.2c0.2-0.2,0.5-0.4,0.8-0.5c2.5-0.7,5.1-1.2,7.6-0.1c1.7,0.8,0.7,3-0.8,3.1c0.3,0.3,0.5,0.6,0.7,0.9
		c0.4,0.6,0.3,1.2,0,1.6l1.3,1.8l2.9-6.8c0,0,2-0.2,3.2,0.1c0.3-0.2,0.6-0.4,1.1-0.4c0.7,0,1.2,0.4,1.4,0.9c0.2-0.1,0.4-0.2,0.7-0.2
		c1.2,0,1.8,1.1,1.6,2l2,1.3h2.7v-1.5l1.8-0.6v19.7l2.7-19.4l10.3,29.5l-7.4-30.4l3.8-1.2l-1.5-5.8h12.7l-11.2-5.2l8.6-6.5
		c-2.4-0.5-4.9-1.1-7.3-1.6c-0.3-0.9-0.7-1.8-1-2.7l2.1-4.3c-0.8-0.9-0.5-2.5,0.8-2.8c0.2-0.6,0.7-1.2,1.5-1.2c0,0,0,0,0,0
		c0.3-0.2,0.6-0.4,1.1-0.4c0.4,0,0.7,0.1,0.9,0.3c6.7-4.9,12.4-8.1,16.7-10.2c2.5-1.2,5.3-2.4,8.8-5.1c5.2-4,8.6-8.6,10.6-12
		C225.4,236,222.9,237.4,219.6,236.8L219.6,236.8z"/>
	<g>
		<line class="st4" x1="226.1" y1="235.6" x2="293.1" y2="197.2"/>
		<path class="st5" d="M226.1,235.6c9.2-5.6,24-13.9,33.4-19.3c9.5-5.4,24.1-13.9,33.6-19.1c-9.2,5.6-24,13.9-33.4,19.3
			C250.2,222,235.6,230.5,226.1,235.6L226.1,235.6L226.1,235.6z"/>
	</g>
	<g>
		<path class="st5" d="M209.3,233.7C209.3,233.7,209.3,233.7,209.3,233.7c0.1,0,0.1,0,0.2,0l26.4-23.8c-2,1.3-3.9,2.7-5.9,4
			c-6,3.5-12,7-18,10.4c-1.2,2.9-2.5,5.8-3.7,8.7C208.7,233,209.1,233.3,209.3,233.7L209.3,233.7z"/>
		<path class="st5" d="M209.3,233.6c0,0,0.1,0,0.2,0h0l6.5-6.1c4.2-3.8,15.4-14,19.7-18l0.3,0.4l-5.8,3.9
			c-3.7,2.1-14.6,8.4-18.1,10.4l-3.8,8.6l0-0.1C208.7,233,209.1,233.3,209.3,233.6L209.3,233.6L209.3,233.6z M209.3,233.7
			c-0.3-0.4-0.7-0.6-1.1-0.7l3.7-8.7c0,0,12.1-7,12.1-7l6-3.5l5.8-3.9C235.8,209.9,209.5,233.9,209.3,233.7L209.3,233.7L209.3,233.7
			z"/>
	</g>
	<path class="st3" d="M185.4,279.8c7.4-1.8,16.8-8.3,26.3-13.3c19.3-10.3,31.5-24.2,38.1-33.2"/>
	<path class="st3" d="M170.3,338.5c2.2-12.1,3.6-24,3.6-24l-4.9,24C169.4,338.5,169.8,338.5,170.3,338.5z"/>
	<path class="st3" d="M154.9,338.4l1.5-38.2c0,0-2.5,25.5-2.5,38.2C154.3,338.3,154.6,338.4,154.9,338.4L154.9,338.4z"/>
	<path class="st3" d="M154,330.3c-1.1,2.4-2.1,4.8-3.2,7.1"/>
	<path class="st3" d="M133.7,316.1c-3.8,7.1-8.2,13.9-11.7,20.6"/>
	<line class="st6" x1="139.3" y1="292.7" x2="122.4" y2="306.9"/>
	<path class="st3" d="M113.1,305.3c0.7,0.5,1.2,1.2,1.5,2l8.5-12.7L113.1,305.3z"/>
	<path class="st3" d="M106.6,312.2l-3.6,3.9c0,0-6.4,14.5,0,8.6l7.1-10.6C108.4,314,107.3,313.3,106.6,312.2L106.6,312.2z"/>
	<line class="st6" x1="116.3" y1="287.2" x2="90.5" y2="294.1"/>
	<path class="st3" d="M92,252.9l-9-8C84.3,246.5,87.7,249.4,92,252.9z"/>
	<path class="st3" d="M116.1,271.5c-0.8,0-1.4-0.5-1.5-1.2c-6.3-4.9-15.6-11.9-22.5-17.4l18.9,16.9l8.2,4.8c0.1-0.1,0.2-0.1,0.4-0.2
		C118.7,273.6,117.5,272.6,116.1,271.5L116.1,271.5z"/>
	<path class="st3" d="M108.9,245.7c-2.7-3-4.5-5.6-4.8-7.3C103.9,239.6,104.4,242.1,108.9,245.7z"/>
	<path class="st3" d="M135.3,268.4l-12.9-15c-6.5-3-10.7-5.6-13.5-7.8c7.1,7.9,20.1,18.7,26,23.5c0.1-0.2,0.2-0.4,0.3-0.5
		C135.2,268.6,135.2,268.5,135.3,268.4z"/>
	<polyline class="st3" points="194.5,287.2 201.7,281.7 226.1,281.7 	"/>
	<ellipse class="st3" cx="143.6" cy="253.4" rx="1" ry="3.1"/>
	<path class="st5" d="M143.2,269.5c-0.9-0.7-1.9-1.5-2.5-2.5c-0.7-1.1-0.3-2,0.1-3.2c0.6-1.9,0.2-3.9-1.4-5
		c-0.2-0.5-0.7-0.9-1.5-0.9c-0.9,0-1.4,0.6-1.6,1.3c-0.4,0.7-0.3,1.7,0.6,2.1c1.4,0.6,0.4,1.8,0.1,2.9c-0.3,1-0.3,2,0.1,3
		c0,0.1,0,0.1,0.1,0.2c0.3,0.1,0.5,0.2,0.7,0.3c0,0,0,0,0,0c1.2,0,1.8,1.1,1.6,2c0.3,0.4,0.4,0.8,0.4,1.3c0.3,0.3,0.7,0.6,1,0.8
		C142.5,273.2,144.9,270.8,143.2,269.5L143.2,269.5z"/>
	<path class="st5" d="M139,272.8C139,272.8,139,272.8,139,272.8c-0.3,0.5-0.8,0.9-1.5,0.9c-0.6,0-1.1-0.3-1.4-0.7c0,0-0.1,0-0.1,0
		c-0.7,0-1.2-0.4-1.4-0.9c-4.6-0.2-9.2-0.2-13.8,0c-1.4,0-1.9,1.4-1.5,2.4c0.2-0.1,0.5-0.2,0.8-0.2c0.3,0,0.5,0.1,0.7,0.2
		c0.2-0.1,0.5-0.2,0.7-0.2c0.8,0,1.3,0.5,1.5,1.1c4.9-0.1,9.9-0.1,14.8,0.2C139.5,275.8,139.9,273.8,139,272.8L139,272.8z"/>
	<path class="st5" d="M150.9,296.8c-0.6,0-1-0.2-1.3-0.6c-0.2,0.1-0.5,0.2-0.9,0.2c-0.3,0-0.6-0.1-0.8-0.2c-0.5,0.9-1.1,1.7-1.8,2.4
		c-0.4,0.5-0.5,1-0.4,1.4c0.2,0,0.3-0.1,0.5-0.1c1,0,1.6,0.7,1.6,1.5c0.1,0,0.2-0.1,0.4-0.2c-0.7-1-0.3-2.8,1.3-2.8
		c0.3,0,0.6,0.1,0.8,0.2c0.4-0.6,0.8-1.3,1.2-2C151.4,296.8,151.2,296.8,150.9,296.8L150.9,296.8z"/>
	<path class="st5" d="M150,291.4c-0.2,0.6-0.4,1.2-0.6,1.7c0.2,0.1,0.4,0.3,0.6,0.5c0.2-0.2,0.5-0.2,0.9-0.2c0.9,0,1.4,0.5,1.6,1.2
		c0.3-0.7,0.6-1.5,0.8-2.2C153.9,290.2,150.6,289.3,150,291.4L150,291.4z"/>
	<g>
		<line class="st4" x1="183.3" y1="293.1" x2="208.7" y2="305.4"/>
		<polygon class="st5" points="183.4,292.9 208.7,305.4 183.2,293.2 183.4,292.9 		"/>
	</g>
	
		<ellipse transform="matrix(0.4577 -0.8891 0.8891 0.4577 -144.8544 233.7467)" class="st5" cx="119.2" cy="235.6" rx="0.4" ry="8.8"/>
	<path id="frammento" class="st5" d="M160.4,310C160.4,310,160.4,310,160.4,310c-1,0-1.5-0.6-1.6-1.4c0,0-0.1,0-0.1,0
		c-1.6,0-2.9,0.8-2.9,1.7s1.3,1.7,2.9,1.7s2.9-0.8,2.9-1.7c0,0,0,0-0.1,0C161,310.4,160.7,310.2,160.4,310L160.4,310z"/>
	
		<animate  accumulate="none" additive="replace" attributeName="opacity" begin="4;pomello_interno_rotazione_90.end" calcMode="linear" dur="7s" fill="remove" id="frammento_opacity_1" restart="always" values="0;1">
		</animate>
	
		<animate  accumulate="none" additive="replace" attributeName="opacity" begin="frammento_opacity_1.end" calcMode="linear" dur="17s" fill="remove" id="frammento_opacity_freeze" restart="always" values="1">
		</animate>
	
		<animate  accumulate="none" additive="replace" attributeName="opacity" begin="frammento_opacity_freeze.end" calcMode="linear" dur="3s" fill="remove" id="frammento_opacity_0" restart="always" values="1;0">
		</animate>
</g>
<line class="st7" x1="106.7" y1="292.1" x2="80.9" y2="300.1"/>
<path class="st8" d="M73.4,242.9c4.2,6.2,8.9,11.9,13.8,17.4l14.1,11.5L73.4,242.9L73.4,242.9z"/>
<path class="st8" d="M95.8,232.1c-0.3,0.7-0.6,1.4-0.8,2.1c-0.1,0.4-0.3,0.7-0.6,0.9c1,8.9,10.5,25.3,10.5,25.3L95.8,232.1
	L95.8,232.1z"/>
<path class="st9" d="M117.5,204l-46.1,0.9v104.1c0,0.1,0,0.2,0,0.3l46.1,0V204L117.5,204z"/>
<path class="st9" d="M315.5,308.9V203.4c0-1.1,0-2.1,0-3.1l-45.9,0.9v108.3l45.9,0C315.5,309.3,315.5,309.1,315.5,308.9L315.5,308.9
	z"/>
<path class="st9" d="M324.1,200.3c-0.4-16.5-3.7-27.9-10.1-34.2c-6.8-6.7-19.8-10-39-10H129.1c-19.2,0-32.2,3.4-39,10
	c-6.8,6.7-10.1,19.1-10.1,37.3v1.4l46.1-0.9v-12.1h152.1v9.3L324.1,200.3L324.1,200.3z M118,156.8L118,156.8z"/>
<path class="st9" d="M272.5,310.4v9.1H120.4v-9.3l-46.1,0c0,18.1,3.4,30.5,10.1,37.1c6.8,6.6,19.8,9.9,39,9.9h145.9
	c19.2,0,32.2-3.3,39-9.9s10-18.8,10.1-36.8L272.5,310.4L272.5,310.4z"/>
<g id="pomello_griglia">
	<ellipse class="st0" cx="292.8" cy="225.4" rx="8.1" ry="8.2"/>
	<g id="pomello_sup">
		<ellipse class="st9" cx="292.8" cy="225.4" rx="3.2" ry="3.3"/>
		<ellipse class="st5" cx="292.8" cy="225.4" rx="3.1" ry="3.1"/>
		<rect x="291.7" y="222.2" class="st1" width="2.2" height="6.6"/>
		
			<animateTransform  accumulate="none" additive="replace" attributeName="transform" attributeType="XML" begin="0;pomello_interno_rotazione_0_freeze.end+10" calcMode="linear" dur="4s" fill="remove" from="0 229.14 202.68" id="pomello_interno_rotazione_90" restart="always" to="90 229.14 202.68" type="rotate">
			</animateTransform>
		
			<animateTransform  accumulate="none" additive="replace" attributeName="transform" attributeType="XML" begin="pomello_interno_rotazione_90.end" calcMode="linear" dur="7s" fill="remove" id="pomello_interno_rotazione_90_freeze" restart="always" type="rotate" values="90 229.14 202.68">
			</animateTransform>
		
			<animateTransform  accumulate="none" additive="replace" attributeName="transform" attributeType="XML" begin="pomello_interno_rotazione_90_freeze.end" calcMode="linear" dur="4s" fill="remove" from="90 229.14 202.68" id="pomello_interno_rotazione_0" restart="always" to="0 229.14 202.68" type="rotate">
			</animateTransform>
		
			<animateTransform  accumulate="none" additive="replace" attributeName="transform" attributeType="XML" begin="pomello_interno_rotazione_0.end" calcMode="linear" dur="7s" fill="remove" id="pomello_interno_rotazione_0_freeze" restart="always" type="rotate" values="0 229.14 202.68">
			</animateTransform>
	</g>
	<ellipse class="st0" cx="292.8" cy="244.6" rx="8.1" ry="8.2"/>
	<g id="pomello_inf">
		<ellipse class="st9" cx="292.8" cy="244.6" rx="3.2" ry="3.3"/>
		<ellipse class="st5" cx="292.8" cy="244.6" rx="3.1" ry="3.1"/>
		<rect x="291.7" y="241.4" class="st1" width="2.2" height="6.6"/>
		
			<animateTransform  accumulate="none" additive="replace" attributeName="transform" attributeType="XML" begin="0;pomello_interno_rotazione_0_freeze.end+10" calcMode="linear" dur="4s" fill="remove" from="0 229.14 221.9" id="pomello_interno_rotazione_90" restart="always" to="-90 229.14 221.9" type="rotate">
			</animateTransform>
		
			<animateTransform  accumulate="none" additive="replace" attributeName="transform" attributeType="XML" begin="pomello_interno_rotazione_90.end" calcMode="linear" dur="7s" fill="remove" id="pomello_interno_rotazione_90_freeze" restart="always" type="rotate" values="-90 229.14 221.9">
			</animateTransform>
		
			<animateTransform  accumulate="none" additive="replace" attributeName="transform" attributeType="XML" begin="pomello_interno_rotazione_90_freeze.end" calcMode="linear" dur="4s" fill="remove" from="-90 229.14 221.9" id="pomello_interno_rotazione_0" restart="always" to="0 229.14 221.9" type="rotate">
			</animateTransform>
		
			<animateTransform  accumulate="none" additive="replace" attributeName="transform" attributeType="XML" begin="pomello_interno_rotazione_0.end" calcMode="linear" dur="7s" fill="remove" id="pomello_interno_rotazione_0_freeze" restart="always" type="rotate" values="0 229.14 221.9">
			</animateTransform>
	</g>
	<rect x="275.1" y="261.3" class="st0" width="35.4" height="43.6"/>
	<g>
		<rect x="275" y="277.6" class="st5" width="35.5" height="0.6"/>
		<rect x="275" y="279.7" class="st5" width="35.5" height="0.6"/>
		<rect x="275" y="281.8" class="st5" width="35.5" height="0.6"/>
		<rect x="275" y="283.9" class="st5" width="35.5" height="0.6"/>
		<rect x="275" y="286.1" class="st5" width="35.5" height="0.6"/>
		<rect x="275" y="288.2" class="st5" width="35.5" height="0.6"/>
		<rect x="275" y="290.3" class="st5" width="35.5" height="0.6"/>
		<rect x="275" y="292.4" class="st5" width="35.5" height="0.6"/>
		<rect x="275" y="275.5" class="st5" width="35.5" height="0.6"/>
		<rect x="275" y="294.5" class="st5" width="35.5" height="0.6"/>
	</g>
</g>
<g>
	<path class="st1" d="M165.9,255.8c0,0-0.1,0-0.1,0C165.8,255.8,165.8,255.8,165.9,255.8C165.8,255.8,165.9,255.8,165.9,255.8
		L165.9,255.8z"/>
	<path class="st1" d="M165.6,256c0.1-0.1,0.2-0.1,0.2-0.1c0.1,0,0.1,0,0.2-0.1c0,0,0,0,0,0c0,0,0,0-0.1,0c-0.1,0-0.1,0-0.2,0.1
		c0,0-0.1,0-0.1,0c0,0,0-0.1,0-0.1c0,0,0,0,0,0c0.1-0.1,0.2-0.3,0.3-0.4c0.2-0.1,0.3-0.2,0.5-0.2c0-0.1,0,0-0.1,0c0,0,0,0-0.1,0
		c-0.2,0.1-0.3,0.2-0.5,0.3c-0.2,0.1-0.3,0.3-0.4,0.5c0,0,0,0,0,0.1C165.6,255.9,165.6,255.9,165.6,256
		C165.5,255.9,165.5,255.9,165.6,256C165.5,256,165.5,256,165.6,256L165.6,256z"/>
	<path class="st1" d="M166.1,256.1C166.1,256.1,166.1,256.1,166.1,256.1C166.2,256.1,166.2,256.1,166.1,256.1c0.1,0,0.1,0,0.1-0.1
		c0,0,0,0,0.1,0c0.1,0,0.1-0.1,0.2-0.1s0.1-0.1,0.2-0.1c0,0,0,0,0,0c0,0,0,0,0,0c0,0.1-0.1,0.1-0.1,0.1c-0.1,0-0.1,0-0.2,0.1
		C166.3,256,166.2,256,166.1,256.1C166,256,166,256,166.1,256.1C166,256,166,256,166,256c0,0,0,0,0,0c0,0,0,0,0,0s0,0-0.1,0
		c0,0-0.1,0-0.1,0c0,0,0,0,0,0c0,0,0,0,0,0c0,0,0.1,0,0.1,0C166,256.1,166,256.1,166.1,256.1C166,256.1,166.1,256.1,166.1,256.1
		L166.1,256.1z"/>
	<path class="st1" d="M166.5,255L166.5,255L166.5,255L166.5,255L166.5,255L166.5,255z"/>
	<path class="st1" d="M166.2,256.1C166.2,256.1,166.3,256.1,166.2,256.1C166.3,256.1,166.3,256.1,166.2,256.1
		C166.2,256.1,166.2,256.1,166.2,256.1C166.2,256.1,166.2,256.1,166.2,256.1C166.2,256.1,166.2,256.1,166.2,256.1L166.2,256.1z"/>
	<path class="st1" d="M165.8,256.1L165.8,256.1L165.8,256.1c-0.1,0-0.1,0-0.2,0c0,0-0.1,0-0.1-0.1c0,0-0.1,0.1-0.1,0
		c0,0,0,0.1,0,0.1c0.1,0,0.1,0,0.2,0.1C165.7,256.1,165.8,256.1,165.8,256.1C165.8,256.1,165.8,256.1,165.8,256.1L165.8,256.1z"/>
	<path class="st1" d="M165.8,256.1C165.8,256.1,165.8,256.1,165.8,256.1C165.9,256.1,165.9,256.1,165.8,256.1
		C165.9,256.1,165.9,256,165.8,256.1z"/>
	<path class="st1" d="M165.5,255.2c0.1,0,0.1-0.1,0.2-0.1c0,0,0,0,0,0c0,0,0,0,0,0c0,0,0,0,0,0c0,0,0,0,0,0c0,0,0-0.1,0.1-0.1
		c-0.1,0-0.1,0-0.2-0.1c0,0-0.1,0.1-0.1,0.1l0,0c0,0,0,0,0,0l0,0c0,0,0,0,0,0c0,0,0,0,0,0c0,0,0,0,0,0l0,0c0,0,0,0-0.1,0
		C165.4,255.2,165.4,255.2,165.5,255.2C165.4,255.2,165.5,255.2,165.5,255.2C165.5,255.2,165.5,255.2,165.5,255.2L165.5,255.2z"/>
	<path class="st1" d="M165.8,255.2C165.8,255.2,165.8,255.2,165.8,255.2L165.8,255.2C165.8,255.2,165.8,255.1,165.8,255.2
		c0.1-0.1,0.1-0.2,0-0.2c0,0,0,0.1-0.1,0.1c-0.1,0-0.1,0.1-0.1,0.1C165.7,255.3,165.7,255.3,165.8,255.2
		C165.8,255.2,165.8,255.2,165.8,255.2L165.8,255.2z"/>
	<path class="st1" d="M165.6,255.8C165.6,255.8,165.6,255.8,165.6,255.8c-0.1,0.1-0.1,0.1-0.2,0.1c0,0,0,0,0,0
		C165.5,255.9,165.6,255.9,165.6,255.8L165.6,255.8z"/>
	<path class="st1" d="M165.8,256.1C165.8,256.1,165.8,256.1,165.8,256.1C165.8,256.1,165.7,256.1,165.8,256.1
		C165.7,256.1,165.8,256.1,165.8,256.1L165.8,256.1z"/>
	<path class="st1" d="M166,256.1C166,256.1,166.1,256.1,166,256.1C166.1,256.1,166.1,256.1,166,256.1z"/>
	<path class="st1" d="M166,256.1C166,256.1,166,256.1,166,256.1C166,256.1,166,256.1,166,256.1z"/>
	<path class="st1" d="M165.5,255.1C165.5,255.1,165.4,255.1,165.5,255.1L165.5,255.1L165.5,255.1
		C165.4,255.1,165.4,255.1,165.5,255.1C165.5,255.1,165.5,255.1,165.5,255.1L165.5,255.1z"/>
	<path class="st1" d="M165.5,255.1C165.5,255.1,165.5,255.1,165.5,255.1C165.5,255.1,165.5,255.1,165.5,255.1z"/>
	<path class="st1" d="M165.5,255.1C165.5,255.1,165.5,255.1,165.5,255.1C165.5,255.1,165.5,255.1,165.5,255.1z"/>
	<path class="st1" d="M165.6,255C165.6,255,165.6,255.1,165.6,255C165.5,255.1,165.6,255.1,165.6,255z"/>
	<path class="st1" d="M165.4,256L165.4,256C165.4,256,165.4,256,165.4,256c0.1-0.1,0.1-0.1,0.1-0.1c-0.1,0.1-0.2,0.1-0.3,0
		c0,0-0.1-0.1-0.1-0.1c0,0,0,0,0,0c0,0.1,0.1,0.1,0.2,0.2C165.2,256,165.3,256.1,165.4,256C165.4,256,165.4,256,165.4,256L165.4,256
		z"/>
	<path class="st1" d="M166.1,256.1C166.1,256.1,166.1,256.1,166.1,256.1C166.1,256.1,166.1,256.2,166.1,256.1
		C166.1,256.2,166.1,256.1,166.1,256.1z"/>
	<path class="st1" d="M165.1,255.7c0.1-0.1,0.2-0.1,0.2-0.2c0.1-0.1,0.2-0.2,0.4-0.3c0,0,0,0,0,0c0,0-0.1,0-0.1,0
		c-0.1,0.1-0.1,0.1-0.2,0.2c-0.1,0.1-0.3,0.2-0.4,0.3C165,255.8,165,255.8,165.1,255.7C165.1,255.8,165.1,255.8,165.1,255.7
		L165.1,255.7z"/>
	<path class="st1" d="M164.9,255.9C164.9,255.9,164.9,255.9,164.9,255.9c0.1-0.1,0.1-0.1,0.1-0.1c0,0,0.1,0,0.1,0l0,0c0,0,0,0,0,0
		c0,0,0,0,0,0c0,0,0-0.1-0.1-0.1c0,0,0,0,0,0c0,0,0,0-0.1,0c-0.1,0-0.1,0.1-0.1,0.1C164.8,255.8,164.8,255.9,164.9,255.9
		C164.8,255.9,164.8,256,164.9,255.9L164.9,255.9z"/>
	<path class="st1" d="M165.8,255.2C165.8,255.2,165.8,255.2,165.8,255.2C165.8,255.2,165.8,255.2,165.8,255.2z"/>
	<path class="st1" d="M165.1,255.6c0.1-0.1,0.2-0.2,0.3-0.4c0,0,0-0.1,0-0.1c0,0,0,0,0,0c0,0-0.1,0-0.1,0c0,0,0,0,0,0
		c0,0.1-0.1,0.1-0.1,0.2C165.2,255.4,165.1,255.5,165.1,255.6C165.1,255.7,165.1,255.6,165.1,255.6L165.1,255.6z"/>
	<path class="st1" d="M165.7,255.1C165.7,255.1,165.7,255.1,165.7,255.1C165.7,255,165.7,255,165.7,255.1z"/>
	<path class="st1" d="M165.5,255.2C165.5,255.2,165.5,255.2,165.5,255.2C165.4,255.2,165.5,255.2,165.5,255.2z"/>
	<path class="st1" d="M165.8,255C165.8,255,165.8,255.1,165.8,255C165.8,255.1,165.8,255,165.8,255z"/>
	<polygon class="st1" points="164,256.5 164.1,256.5 164.1,256.5 	"/>
	<path class="st1" d="M164.1,256.5C164.1,256.5,164.1,256.5,164.1,256.5C164.1,256.5,164.2,256.5,164.1,256.5
		c0.1-0.1,0.1-0.1,0.2-0.1c0.1-0.1,0.2-0.2,0.3-0.3c0,0,0,0,0-0.1c0,0,0,0,0,0c0,0,0,0,0,0c-0.1,0.1-0.2,0.1-0.2,0.2
		c0,0-0.1,0.1-0.1,0.1C164.2,256.4,164.2,256.5,164.1,256.5C164.1,256.5,164.1,256.5,164.1,256.5C164,256.5,164,256.5,164.1,256.5
		C164,256.5,164.1,256.5,164.1,256.5L164.1,256.5L164.1,256.5L164.1,256.5C164.1,256.6,164.1,256.5,164.1,256.5L164.1,256.5z"/>
	<path class="st1" d="M165.2,255.4C165.2,255.4,165.2,255.4,165.2,255.4C165.2,255.3,165.2,255.3,165.2,255.4c-0.1,0-0.1,0-0.2,0
		c0,0.1-0.1,0.1-0.1,0.1c0,0.1-0.1,0.1-0.2,0.2c0,0-0.1,0,0,0.1c0,0,0,0,0.1,0C165,255.7,165.1,255.5,165.2,255.4L165.2,255.4z"/>
	<path class="st1" d="M164.8,255.8C164.8,255.8,164.8,255.8,164.8,255.8c0.1-0.1,0.1-0.1,0.1-0.2c0,0,0,0,0-0.1l0,0c0,0,0,0,0,0
		c-0.1,0.1-0.2,0.2-0.3,0.3c0,0,0,0,0,0l0,0v0c0,0,0,0,0,0l0,0c0,0-0.1,0.1-0.1,0.1c0,0-0.1,0,0,0.1
		C164.6,256,164.7,255.9,164.8,255.8L164.8,255.8z"/>
	<path class="st1" d="M164.5,256.1C164.5,256.1,164.5,256,164.5,256.1c0.1-0.1,0.1-0.1,0.1-0.2c-0.1,0.1-0.2,0.2-0.3,0.3
		c0,0,0,0,0,0C164.4,256.2,164.5,256.2,164.5,256.1L164.5,256.1z"/>
	<path class="st1" d="M164.2,256.4L164.2,256.4C164.2,256.4,164.2,256.4,164.2,256.4c-0.1,0-0.1,0-0.2,0.1c0,0,0,0,0,0
		C164.1,256.5,164.1,256.5,164.2,256.4C164.2,256.5,164.2,256.4,164.2,256.4L164.2,256.4z"/>
	<path class="st1" d="M164.3,256.3C164.3,256.3,164.3,256.3,164.3,256.3C164.3,256.3,164.3,256.3,164.3,256.3
		C164.3,256.2,164.3,256.2,164.3,256.3c0-0.1,0-0.1,0-0.1l0,0C164.3,256.2,164.3,256.2,164.3,256.3L164.3,256.3
		C164.3,256.2,164.3,256.2,164.3,256.3C164.3,256.3,164.2,256.3,164.3,256.3c-0.1,0-0.1,0-0.1,0.1l0,0
		C164.2,256.4,164.3,256.3,164.3,256.3L164.3,256.3z"/>
	<path class="st1" d="M164.2,256.3C164.2,256.3,164.2,256.3,164.2,256.3c-0.1,0.1-0.1,0.1-0.2,0.2
		C164.1,256.4,164.2,256.4,164.2,256.3C164.2,256.3,164.2,256.3,164.2,256.3z"/>
	<path class="st1" d="M165.1,255.4L165.1,255.4L165.1,255.4C165.1,255.4,165.1,255.4,165.1,255.4
		C165.1,255.4,165.1,255.4,165.1,255.4C165.1,255.5,165.2,255.4,165.1,255.4L165.1,255.4z"/>
	<path class="st1" d="M165.4,255.1L165.4,255.1C165.4,255.1,165.4,255.2,165.4,255.1C165.3,255.2,165.3,255.2,165.4,255.1
		C165.4,255.2,165.4,255.2,165.4,255.1L165.4,255.1z"/>
	<path class="st1" d="M164.2,256.5C164.2,256.5,164.1,256.5,164.2,256.5L164.2,256.5C164.2,256.5,164.2,256.5,164.2,256.5z"/>
	<path class="st1" d="M164,256.5C164,256.5,164,256.5,164,256.5C164,256.5,164,256.5,164,256.5C164,256.5,164,256.5,164,256.5
		L164,256.5L164,256.5z"/>
	<path class="st1" d="M164,256.5C164,256.5,164.1,256.6,164,256.5C164.1,256.5,164.1,256.5,164,256.5z"/>
	<path class="st1" d="M164,256.5C164,256.5,164,256.5,164,256.5C164,256.5,164,256.5,164,256.5C164.1,256.5,164,256.5,164,256.5z"/>
	<path class="st1" d="M164.3,256.2C164.3,256.2,164.3,256.2,164.3,256.2C164.3,256.2,164.3,256.2,164.3,256.2z"/>
	<path class="st1" d="M164.3,256.2C164.3,256.2,164.3,256.2,164.3,256.2C164.3,256.2,164.3,256.2,164.3,256.2z"/>
	<path class="st1" d="M164.6,255.9L164.6,255.9C164.6,255.9,164.6,255.9,164.6,255.9C164.6,255.9,164.6,255.9,164.6,255.9
		L164.6,255.9L164.6,255.9z"/>
	<path class="st1" d="M164.6,255.9C164.6,255.9,164.6,255.9,164.6,255.9C164.6,255.9,164.6,255.9,164.6,255.9
		C164.6,255.9,164.6,255.9,164.6,255.9L164.6,255.9z"/>
	<path class="st1" d="M164.7,255.9C164.7,255.9,164.7,255.9,164.7,255.9C164.6,255.9,164.6,255.9,164.7,255.9z"/>
	<path class="st1" d="M164.9,255.6C164.9,255.6,164.9,255.6,164.9,255.6C164.9,255.6,164.9,255.6,164.9,255.6z"/>
	<path class="st1" d="M164.8,255.9C164.8,255.9,164.8,255.9,164.8,255.9c0.1,0,0.2-0.1,0.2-0.1c0,0,0,0-0.1-0.1c0,0-0.1,0-0.1,0
		C164.9,255.8,164.9,255.9,164.8,255.9C164.8,255.9,164.8,255.9,164.8,255.9c-0.1-0.1-0.1,0-0.1,0.1
		C164.7,256,164.7,256,164.8,255.9C164.7,256,164.8,255.9,164.8,255.9L164.8,255.9z"/>
	<path class="st1" d="M164.8,255.9C164.8,255.9,164.7,255.9,164.8,255.9c-0.1,0-0.1,0.1-0.1,0.1c0,0-0.1,0-0.1,0.1c0,0,0,0,0,0.1
		C164.7,256.1,164.7,256,164.8,255.9z"/>
	<path class="st1" d="M165.4,256C165.4,256,165.4,256,165.4,256C165.3,256,165.4,256,165.4,256z"/>
	<path class="st1" d="M165.1,255.6C165.1,255.6,165.1,255.6,165.1,255.6c-0.1,0-0.1,0.1-0.1,0.1c0,0,0,0,0,0.1
		C165,255.7,165.1,255.6,165.1,255.6C165.1,255.6,165.1,255.6,165.1,255.6L165.1,255.6z"/>
	<path class="st1" d="M165,255.8C165,255.8,164.9,255.8,165,255.8C164.9,255.8,165,255.8,165,255.8z"/>
	<polygon class="st1" points="165.2,255.3 165.2,255.3 165.2,255.3 	"/>
	<path class="st1" d="M165.2,255.4C165.2,255.4,165.3,255.3,165.2,255.4c0.1-0.1,0.1-0.1,0.1-0.2c0,0,0,0,0,0c0,0,0,0.1-0.1,0.1
		C165.2,255.3,165.2,255.3,165.2,255.4L165.2,255.4L165.2,255.4L165.2,255.4C165.2,255.3,165.2,255.3,165.2,255.4
		C165.2,255.3,165.2,255.3,165.2,255.4c-0.1-0.1-0.1,0-0.1,0l0,0C165.1,255.4,165.2,255.4,165.2,255.4
		C165.2,255.4,165.2,255.4,165.2,255.4L165.2,255.4z"/>
	<path class="st1" d="M165.4,255.2C165.4,255.2,165.4,255.2,165.4,255.2C165.3,255.2,165.3,255.2,165.4,255.2
		C165.3,255.2,165.3,255.2,165.4,255.2C165.3,255.2,165.3,255.2,165.4,255.2z"/>
	<path class="st1" d="M165.2,255.3C165.2,255.3,165.1,255.4,165.2,255.3C165.1,255.4,165.1,255.4,165.2,255.3
		C165.1,255.4,165.2,255.4,165.2,255.3L165.2,255.3z"/>
	<path class="st1" d="M165.2,255.3C165.2,255.3,165.2,255.3,165.2,255.3C165.2,255.3,165.2,255.3,165.2,255.3z"/>
	<path class="st1" d="M165.2,255.3C165.2,255.3,165.2,255.3,165.2,255.3C165.2,255.3,165.2,255.3,165.2,255.3z"/>
	<path class="st1" d="M164.3,256.3C164.3,256.3,164.3,256.3,164.3,256.3c0,0-0.1,0-0.1,0.1c0,0,0,0,0,0
		C164.3,256.4,164.3,256.3,164.3,256.3L164.3,256.3z"/>
	<path class="st1" d="M164.6,256.1C164.6,256.1,164.6,256.1,164.6,256.1C164.6,256,164.6,256.1,164.6,256.1z"/>
	<path class="st1" d="M164.4,256.2C164.4,256.2,164.3,256.2,164.4,256.2C164.3,256.3,164.3,256.2,164.4,256.2z"/>
</g>
</svg>
