<?xml version="1.0" encoding="utf-8"?>
<!-- Generator: Adobe Illustrator 27.0.0, SVG Export Plug-In . SVG Version: 6.00 Build 0)  -->
<svg version="1.1" id="saiga_logo" xmlns="http://www.w3.org/2000/svg" xmlns:xlink="http://www.w3.org/1999/xlink" x="0px" y="0px"
	 viewBox="0 0 350 350" style="enable-background:new 0 0 350 350;" xml:space="preserve">
<style type="text/css">
	.st0{fill:#4C2B17;}
	.st1{fill:#FBF2E1;}
	.st2{fill:#EDC492;stroke:#4C2B17;stroke-width:0.75;stroke-miterlimit:10;}
	.st3{fill:#FFFFFF;}
	.st4{fill:#3D1613;}
	.st5{fill:#BD793C;}
	.st6{fill:#874124;}
	.st7{fill:none;stroke:#622511;stroke-width:0.75;stroke-linecap:round;stroke-miterlimit:10;}
	.st8{fill:none;stroke:#874124;stroke-miterlimit:10;}
	.st9{fill:#F9C29E;stroke:#683C11;stroke-miterlimit:10;}
	.st10{fill:#432918;stroke:#683C11;stroke-miterlimit:10;}
	.st11{fill:#683C11;}
	.st12{fill:#EDC492;}
	.st13{opacity:0.47;}
</style>
<g>
	<g id="zambraccio_dx">
		<g>
			<path class="st0" d="M235,242.6c-0.2-0.4-0.4-0.9-0.4-1.3c-0.1-0.6-0.1-1.1-0.1-1.7c-0.2-1.4-0.9-2.7-1.7-3.9
				c-1.6-2.4-3.3-4.6-5.2-6.8c-0.2-0.2-0.3-0.4-0.3-0.6c0-0.2,0.2-0.4,0.4-0.6c1.3-1,2.6-2.1,4.1-2.8s3.2-1,4.8-0.5
				c1.7,0.6,2.9,1.9,3.9,3.4c2.4,3.6,3.7,8,3.5,12.4c0,0.4,0,0.8-0.2,1.1c-0.2,0.4-0.5,0.7-0.8,1c-1.1,1.1-3.6,3.2-5.3,3.2
				C235.8,245.7,235.7,244.3,235,242.6L235,242.6z"/>
			<path class="st1" d="M238.2,234l5.2,0.9c-0.2-0.8-0.4-1.6-0.8-2.6c-0.3-0.9-0.7-1.7-1.1-2.4C240.4,231.3,239.3,232.7,238.2,234
				L238.2,234z"/>
		</g>
		<path class="st2" d="M239.2,245.8c-1.5-3.4-2.9-6.9-4.4-10.4c-1.3-3.6-2.7-7.1-4-10.7c-1.8,1.3-4.3,3.4-6.8,6.6
			c-1.2,1.6-2.2,3.1-3,4.5c-1.2,0.4-2.5,1.1-3.9,2c-3.8,2.4-6.6,5.5-8.4,7.8l-1,10.7l-0.5,0.9l0.4,0.3l-0.1,0.6l0.8-0.2l7,4.2
			c2.2-1,5.6-2.7,9-6.2c1.3-1.3,2.3-2.6,3.2-3.8c1.2-0.3,2.7-0.7,4.2-1.4C234.9,249.3,237.4,247.3,239.2,245.8L239.2,245.8z"/>
		
			<animateTransform  accumulate="none" additive="replace" attributeName="transform" attributeType="XML" begin="0;zambraccio_dx_rotate_2.end" calcMode="linear" dur="3s" fill="remove" from="0 207.1451 262.2653" id="zambraccio_dx_rotate_1" restart="always" to="+17 207.1451 262.2653" type="rotate">
			</animateTransform>
		
			<animateTransform  accumulate="none" additive="replace" attributeName="transform" attributeType="XML" begin="zambraccio_dx_rotate_1.end" calcMode="linear" dur="3s" fill="remove" from="+17 207.1451 262.2653" id="zambraccio_dx_rotate_2" restart="always" to="0 207.1451 262.2653" type="rotate">
			</animateTransform>
	</g>
	<g id="zambraccio_sx">
		<g>
			<path class="st0" d="M113.1,242.8c0.2-0.4,0.3-0.9,0.4-1.3c0.1-0.6,0.1-1.1,0.1-1.7c0.2-1.4,0.9-2.7,1.7-3.9
				c1.6-2.4,3.3-4.6,5.2-6.8c0.2-0.2,0.3-0.4,0.3-0.6c0-0.2-0.2-0.4-0.4-0.6c-1.3-1-2.6-2.1-4.1-2.8s-3.2-1-4.8-0.5
				c-1.7,0.6-2.9,1.9-3.9,3.4c-2.4,3.6-3.7,8-3.5,12.4c0,0.4,0,0.8,0.2,1.1c0.2,0.4,0.5,0.7,0.8,1c1.2,1.1,3.6,3.2,5.3,3.2
				C112.3,245.9,112.4,244.5,113.1,242.8L113.1,242.8z"/>
			<path class="st1" d="M109.9,234.2l-5.2,0.9c0.2-0.8,0.4-1.6,0.8-2.6c0.3-0.9,0.7-1.7,1.1-2.4
				C107.6,231.5,108.7,232.9,109.9,234.2z"/>
		</g>
		<path class="st2" d="M108.9,245.9c1.5-3.4,2.9-6.9,4.4-10.4c1.3-3.6,2.7-7.1,4-10.7c1.8,1.3,4.3,3.4,6.8,6.6
			c1.2,1.6,2.2,3.1,3,4.5c1.2,0.4,2.5,1.1,3.9,2c3.8,2.4,6.6,5.5,8.4,7.8l1,10.7l0.5,0.9l-0.4,0.3l0.1,0.6l-0.8-0.2l-7,4.2
			c-2.2-1-5.6-2.7-9-6.2c-1.3-1.3-2.3-2.6-3.2-3.8c-1.2-0.3-2.7-0.7-4.2-1.4C113.1,249.5,110.6,247.5,108.9,245.9L108.9,245.9z"/>
		
			<animateTransform  accumulate="none" additive="replace" attributeName="transform" attributeType="XML" begin="0;zambraccio_sx_rotate_2.end" calcMode="linear" dur="3s" fill="remove" from="0 140.9047 262.2653" id="zambraccio_sx_rotate_1" restart="always" to="-17 140.9047 262.2653" type="rotate">
			</animateTransform>
		
			<animateTransform  accumulate="none" additive="replace" attributeName="transform" attributeType="XML" begin="zambraccio_sx_rotate_1.end" calcMode="linear" dur="3s" fill="remove" from="-17 140.9047 262.2653" id="zambraccio_sx_rotate_2" restart="always" to="0 140.9047 262.2653" type="rotate">
			</animateTransform>
	</g>
	<g>
		<g>
			<path class="st0" d="M148.1,326.7c0.4,0.1,0.8,0.2,1.1,0.4c0.4,0.2,0.8,0.6,1.3,0.8c1.1,0.6,2.3,0.7,3.6,0.8
				c2.4,0,4.9-0.1,7.3-0.5c0.2,0,0.4-0.1,0.6,0.1s0.2,0.4,0.2,0.7c0.1,1.6,0.2,3.3,0,4.9s-0.9,3.2-2,4.2c-1.2,1.1-2.8,1.3-4.3,1.3
				c-3.7,0-7.5-1.5-10.5-4c-0.3-0.2-0.5-0.5-0.7-0.8c-0.2-0.4-0.3-0.8-0.3-1.2c-0.2-1.5-0.6-4.8,0.2-6.2
				C145.5,325.5,146.6,326.3,148.1,326.7L148.1,326.7z"/>
			<path class="st1" d="M152.7,334.1l-3.1,3.8c0.6,0.3,1.4,0.6,2.2,0.8c0.8,0.2,1.5,0.4,2.2,0.5
				C153.5,337.5,153.1,335.8,152.7,334.1L152.7,334.1z"/>
		</g>
		<g>
			<path class="st0" d="M201,326.7c-0.4,0.1-0.8,0.2-1.1,0.4c-0.4,0.2-0.8,0.6-1.3,0.8c-1.1,0.6-2.3,0.7-3.6,0.8
				c-2.4,0-4.9-0.1-7.3-0.5c-0.2,0-0.4-0.1-0.6,0.1s-0.2,0.4-0.2,0.7c-0.1,1.6-0.2,3.3,0,4.9s0.9,3.2,2,4.2c1.2,1.1,2.8,1.3,4.3,1.3
				c3.7,0,7.5-1.5,10.5-4c0.3-0.2,0.5-0.5,0.7-0.8c0.2-0.4,0.3-0.8,0.3-1.2c0.2-1.5,0.6-4.8-0.2-6.2
				C203.6,325.5,202.6,326.3,201,326.7L201,326.7z"/>
			<path class="st1" d="M196.5,334.1l3.1,3.8c-0.6,0.3-1.4,0.6-2.2,0.8c-0.8,0.2-1.5,0.4-2.2,0.5C195.6,337.5,196,335.8,196.5,334.1
				L196.5,334.1z"/>
		</g>
		<path class="st2" d="M214.5,256c-2.6-11.3-5.9-20.9-9.1-28.5h-61.2c-3.2,7.6-6.5,17.2-9.1,28.5c-1.1,5-2,9.8-2.7,14.3
			c-1.4,9.4-0.8,19.1,1.7,28.1c0.8,2.8,1.7,5.7,2.8,8.7c2.9,8,6.1,14.7,9.1,20c5.5,1.4,10.9,2.8,16.4,4.2c0.6-2.5,1.1-6,0.8-10.1
			c-0.1-2.1-0.4-3.9-0.8-5.4c0.6-1.3,1.3-2.9,1.8-4.7c1.4-4.9,1.4-9.3,1.2-12.2h18.7c-0.2,2.9-0.2,7.3,1.2,12.2
			c0.5,1.8,1.2,3.4,1.8,4.7c-0.4,1.5-0.7,3.4-0.8,5.4c-0.3,4.2,0.2,7.7,0.8,10.1c5.5-1.4,10.9-2.8,16.4-4.2c3-5.3,6.2-12,9.1-20
			c1.1-3,2-5.9,2.8-8.7c2.6-9.1,3.1-18.7,1.7-28.1C216.5,265.8,215.6,261,214.5,256L214.5,256z"/>
	</g>
	<g id="orecchio_dx">
		<path class="st2" d="M224.7,88.2c2.8-2.4,6.1-4.2,9.4-6c5.7-3.1,11.7-6.3,18.2-6.4c0.8,0,1.7,0.1,2.3,0.6c0.6,0.5,0.7,1.3,0.8,2.1
			c1.5,11.5,1.8,23.6-3,34.1c-5.7,12.3-18.5,21-32,21.7c0.2-3.5-1.6-6.8-3.5-9.8c-1.7-2.9-4.5-6-4.5-9.3s1.3-7.1,2.2-10.2
			C216.5,98.7,219.6,92.6,224.7,88.2L224.7,88.2z"/>
		<path class="st3" d="M235.4,97.9c3.1-2.7,6.5-4.8,9.5-7.6c3-2.7,5.6-6.1,6.4-10.1c1.9,5.5,2.6,11.5,1.9,17.3
			c-1.3,10.7-7.2,20.6-15.6,27.2c-3.4,2.7-8.1,5.8-12.7,6c-4.6,0.2-3.1-6.4-2.6-9.8C223.7,112.1,228.5,103.8,235.4,97.9L235.4,97.9z
			"/>
		<path class="st0" d="M231.5,108c-0.5,0.4-1.1,0.8-1.2,1.4c0.3,0.2,0.8,0.1,1-0.2c0.2,1.6-0.4,3.2-1.4,4.4c-0.4,0.4-0.8,0.7-1,1.2
			c-0.2,0.4-0.2,0.8-0.3,1.3c-0.2,1.2-0.7,2.4-1.5,3.3c2.1-1.1,4.1-2.4,6-4c0.2,1.1-0.3,2.2-0.9,3.2c-2.4,4-6.1,7.2-10.4,9.1
			c0-0.1-0.1-0.4-0.1-0.6c-0.7-5.1,0.9-9.4,2.6-13.6c0.9-2.3,1.8-3.9,2.2-4.7c0.8-1.7,1.9-3.3,3-4.8c0.7-0.9,2.7-3.8,4-3.8
			c1.6,0,0.9,3,0.7,4C233.7,105.6,232.8,107,231.5,108L231.5,108z"/>
		
			<animateTransform  accumulate="none" additive="replace" attributeName="transform" attributeType="XML" begin="0;orecchio_dx_rotate_3.end" calcMode="linear" dur="7s" fill="remove" from="0 212.3933 134.3207" id="orecchio_dx_rotate_1" restart="always" to="7 212.3933 134.3207" type="rotate">
			</animateTransform>
		
			<animateTransform  accumulate="none" additive="replace" attributeName="transform" attributeType="XML" begin="orecchio_dx_rotate_1.end" calcMode="linear" dur="7s" fill="remove" id="orecchio_dx_rotate_middle" restart="always" type="rotate" values="7 212.3933 134.3207">
			</animateTransform>
		
			<animateTransform  accumulate="none" additive="replace" attributeName="transform" attributeType="XML" begin="orecchio_dx_rotate_middle.end" calcMode="linear" dur="7s" fill="remove" from="7 212.3933 134.3207" id="orecchio_dx_rotate_3" restart="always" to="0 212.3933 134.3207" type="rotate">
			</animateTransform>
	</g>
	<g id="orecchio_sx">
		<path class="st2" d="M125.3,88.2c-2.8-2.4-6.1-4.2-9.4-6c-5.7-3.1-11.7-6.3-18.2-6.4c-0.8,0-1.7,0.1-2.3,0.6
			c-0.6,0.5-0.7,1.3-0.8,2.1c-1.5,11.5-1.8,23.6,3,34.1c5.7,12.3,18.5,21,32,21.7c-0.2-3.5,1.6-6.8,3.5-9.8c1.7-2.9,4.5-6,4.5-9.3
			s-1.3-7.1-2.2-10.2C133.5,98.7,130.4,92.6,125.3,88.2L125.3,88.2z"/>
		<path class="st3" d="M114.7,97.9c-3.1-2.7-6.5-4.8-9.5-7.6s-5.6-6.1-6.4-10.1c-1.9,5.5-2.6,11.5-1.9,17.3
			c1.3,10.7,7.2,20.6,15.7,27.2c3.4,2.7,8.1,5.8,12.7,6c4.6,0.2,3.1-6.4,2.6-9.8C126.3,112.1,121.5,103.8,114.7,97.9L114.7,97.9z"/>
		<path class="st0" d="M118.5,108c0.5,0.4,1.1,0.8,1.2,1.4c-0.3,0.2-0.8,0.1-1-0.2c-0.2,1.6,0.3,3.2,1.4,4.4c0.4,0.4,0.8,0.7,1,1.2
			c0.2,0.4,0.2,0.8,0.3,1.3c0.2,1.2,0.7,2.4,1.5,3.3c-2.1-1.1-4.1-2.4-6-4c-0.2,1.1,0.3,2.2,0.9,3.2c2.4,4,6.1,7.2,10.4,9.1
			c0-0.1,0.1-0.4,0.1-0.6c0.7-5.1-0.9-9.4-2.6-13.6c-0.9-2.3-1.8-3.9-2.2-4.7c-0.8-1.7-1.8-3.3-3-4.8c-0.7-0.9-2.7-3.8-4-3.8
			c-1.6,0-0.9,3-0.7,4C116.3,105.6,117.2,107,118.5,108L118.5,108z"/>
		
			<animateTransform  accumulate="none" additive="replace" attributeName="transform" attributeType="XML" begin="0;orecchio_sx_rotate_3.end" calcMode="linear" dur="7s" fill="remove" from="0 137.6067 134.3207" id="orecchio_sx_rotate_1" restart="always" to="-7 137.6067 134.3207" type="rotate">
			</animateTransform>
		
			<animateTransform  accumulate="none" additive="replace" attributeName="transform" attributeType="XML" begin="orecchio_sx_rotate_1.end" calcMode="linear" dur="7s" fill="remove" id="orecchio_sx_rotate_middle" restart="always" type="rotate" values="-7 137.6067 134.3207">
			</animateTransform>
		
			<animateTransform  accumulate="none" additive="replace" attributeName="transform" attributeType="XML" begin="orecchio_sx_rotate_middle.end" calcMode="linear" dur="7s" fill="remove" from="-7 137.6067 134.3207" id="orecchio_sx_rotate_3" restart="always" to="0 137.6067 134.3207" type="rotate">
			</animateTransform>
	</g>
	<path class="st2" d="M213.3,167.4c0.6-1.5,1.6-2.5,4.6-8.1c1-1.9,1.8-3.3,1.9-3.4c1.1-2.1,3.1-7.5,1.9-21.4
		c-0.5-3.9-1.4-8.5-2.9-13.4c-0.4-1.3-0.8-2.6-1.3-3.8c-1.4-4.1-5-7-9.3-7.5c-2.2-0.3-4.4-0.5-6.8-0.6c-10.4-0.6-19.4,0.3-26.7,1.6
		c-7.3-1.3-16.4-2.3-26.7-1.6c-2.3,0.1-4.6,0.4-6.8,0.6c-4.3,0.5-7.9,3.5-9.3,7.5c-0.4,1.2-0.9,2.5-1.3,3.8
		c-1.5,4.9-2.4,9.5-2.9,13.4c-1.1,13.9,0.9,19.3,1.9,21.4c0.1,0.1,0.8,1.6,1.9,3.4c3.1,5.6,4,6.6,4.6,8.1c1.7,4-0.5,7.8-2.8,13.8
		c-1.6,4.4-3.6,10.9-4.7,19.6v2.6c0,7.6,1.9,15.1,5.6,21.6c1.2,2.1,2.6,4.3,4.3,6.6c5.6,7.4,11.8,12.1,16.3,14.9
		c1.4,0.8,3.1,0.6,4.1-0.6c0,0,0,0,0,0l15.4,2h0.5l15.4-2c0,0,0,0,0,0c1,1.2,2.8,1.5,4.1,0.6c4.5-2.8,10.8-7.6,16.3-14.9
		c1.7-2.2,3.1-4.4,4.3-6.6c3.7-6.6,5.6-14.1,5.6-21.6v-2.6c-1.1-8.6-3.1-15.1-4.7-19.6C213.8,175.2,211.6,171.4,213.3,167.4
		L213.3,167.4z"/>
	<g>
		<path class="st1" d="M205.4,131.5c-1.2-7.2-13.9-21.4-30.8-21.4c-16.7,0-29.8,14-30.6,21.4c-0.4,4,0.3,8.2,0.3,8.2
			c0.6,3,1.5,5.2,1.9,6.3c4.7,11,9.6,16.9,11.7,25.5c1,3.9,1.6,7.9,1.5,11.9c-0.3,12.4-7.6,24-7,36.4c0.3,6.9,3.1,13.3,5,19.9
			s3,14,0.1,20.2c-0.6,1.3-1.4,2.7-1.2,4.2c0.2,1.3,1.4,2.3,2.5,3c4,2.3,9.1,2.1,12.9-0.5v0.1h5.6c3.8,2.4,8.9,2.6,12.8,0.4
			c1.1-0.7,2.2-1.6,2.5-3c0.3-1.5-0.5-2.9-1.2-4.2c-2.9-6.2-1.8-13.6,0.1-20.2c1.9-6.6,4.7-13,5-19.9c0.6-12.4-6.7-24-7-36.4
			c-0.1-4,0.6-8,1.5-11.9c1.3-5.4,3.8-9.7,11.7-25.5c0.6-1.1,1.7-3.5,2.3-6.7C205.4,139.3,206.1,135.4,205.4,131.5L205.4,131.5z"/>
		
			<ellipse transform="matrix(0.4242 -0.9056 0.9056 0.4242 -132.27 316.2565)" class="st4" cx="182.6" cy="262.1" rx="1.7" ry="4.5"/>
		
			<ellipse transform="matrix(0.9056 -0.4242 0.4242 0.9056 -95.4411 95.4566)" class="st4" cx="166.7" cy="262.1" rx="4.6" ry="1.7"/>
	</g>
	<g id="occhio_sx">
		<ellipse class="st3" cx="147.3" cy="178.4" rx="9.6" ry="8.8"/>
		<ellipse class="st5" cx="147.6" cy="177.9" rx="6.1" ry="6.7"/>
		<g>
			<ellipse class="st4" cx="147.4" cy="177.6" rx="3.9" ry="4.6"/>
			<circle class="st3" cx="144.6" cy="175.7" r="2.7"/>
		</g>
	</g>
	<g id="occhio_dx">
		<ellipse class="st3" cx="201.8" cy="178.4" rx="9.6" ry="8.8"/>
		<ellipse class="st5" cx="202.1" cy="177.9" rx="6.1" ry="6.7"/>
		<g>
			<ellipse class="st4" cx="201.9" cy="177.6" rx="3.9" ry="4.6"/>
			<circle class="st3" cx="199.1" cy="175.7" r="2.7"/>
		</g>
	</g>
	<path class="st6" d="M176.1,224.6c-0.1,11.4,0.8,15.4,0.8,15.4c-0.4,4.7-1,10.9-1.9,18c-0.9-7.2-1.5-13.3-1.9-18
		c0,0,1.2-4,1.1-15.4c0-1.9-1.6-5.1-0.6-8.2c0.1-0.4,0.3-0.7,0.4-1.1c0.5-1.2,1.4-1.2,1.9,0c0.1,0.3,0.3,0.7,0.4,1.1
		C177.3,219.5,176.1,222.7,176.1,224.6L176.1,224.6z"/>
	<g>
		<path class="st7" d="M159.5,183.4c-0.3,12.4-7.6,24-7,36.4"/>
		<path class="st7" d="M196.9,219.8c0.6-12.4-6.7-24-7-36.4"/>
		<path class="st7" d="M152.5,219.8c0.3,6.9,3.1,13.3,5,19.9s3,14,0.1,20.2c-0.6,1.3-1.4,2.7-1.2,4.2c0.2,1.3,1.4,2.3,2.5,3
			c4,2.3,9.1,2.1,12.9-0.5v0.1h5.6c3.8,2.4,8.9,2.6,12.8,0.4c1.1-0.7,2.2-1.6,2.5-3c0.3-1.5-0.5-2.9-1.2-4.2
			c-2.9-6.2-1.8-13.6,0.1-20.2c1.9-6.6,4.7-13,5-19.9"/>
	</g>
	<path id="sopracciglio_sx" class="st6" d="M142.1,154.8c-3.6,0-6.7,2.6-8.2,6.5h1.3c1.7-2.4,4.1-4,6.9-4s5.2,1.5,6.9,4h1.3
		C148.8,157.4,145.7,154.8,142.1,154.8L142.1,154.8z	">
<animateTransform  accumulate="none" additive="replace" attributeName="transform" attributeType="xml" begin="7; sopracciglia_sx_freeze.end" calcMode="linear" dur="4s" fill="remove" id="sopracciglia_sx_move" restart="always" type="translate" values="0,0; 0,-7; 0,0;">
			</animateTransform>
		
			<animateTransform  accumulate="none" additive="replace" attributeName="transform" attributeType="xml" begin="sopracciglia_sx_move.end" calcMode="linear" dur="7s" fill="remove" id="sopracciglia_sx_freeze" restart="always" type="translate" values="0,0">
			</animateTransform>
	</path>
	<path id="sopracciglio_dx" class="st6" d="M206.8,154.8c-3.6,0-6.7,2.6-8.2,6.5h1.3c1.7-2.4,4.1-4,6.9-4s5.2,1.5,6.9,4h1.3
		C213.4,157.4,210.4,154.8,206.8,154.8L206.8,154.8z	">
<animateTransform  accumulate="none" additive="replace" attributeName="transform" attributeType="xml" begin="7;sopracciglia_dx_freeze.end" calcMode="linear" dur="4s" fill="remove" id="sopracciglia_dx_move" restart="always" type="translate" values="0,0; 0,-7; 0,0;">
			</animateTransform>
		
			<animateTransform  accumulate="none" additive="replace" attributeName="transform" attributeType="xml" begin="sopracciglia_dx_move.end" calcMode="linear" dur="7s" fill="remove" id="sopracciglia_dx_freeze" restart="always" type="translate" values="0,0">
			</animateTransform>
	</path>
	<path class="st8" d="M153.6,295.3c4,1.6,22.5,8.3,42.6-0.4"/>
	<g id="corno_sx">
		<g>
			<path class="st9" d="M148.4,49.3c0.1,3.7-0.3,7.4-0.5,11.1c-0.7,9.7-0.3,19.4,1.1,29c0.4,3.1,1,6.1,2.2,8.9
				c0.7,1.7,1.7,3.3,2.4,5c1.2,3,1.5,6.1,1.6,9.3c0.1,2.6-2.1,4.8-4.8,4.6c-2.2-0.2-4.4-0.6-6.5-1.3c-1-0.3-1.9-0.8-2.7-1.4
				c-1.1-1-1.5-2.4-1.9-3.8c-2.2-7-4.4-14-5.2-21.2c-1.3-11.4,0.6-23,3.1-34.2c0.5-2.3,1-4.6,1.3-7c1-8.7-1.6-17.4-2.4-26.1
				c-0.2-2.5-0.3-5.1,0.7-7.4c0.6-1.5,1.7-2.9,3.2-3.6c2.2-1.1,2.3-0.2,2.3,1.8c0,4.1,0.4,8,1.3,12C145.3,33,148.1,40.9,148.4,49.3
				L148.4,49.3z"/>
			<path class="st10" d="M136.3,24.2c0.1,0.5,0.5,0.9,1,0.9h6.3c0,0,0-0.1,0-0.2c-0.9-4-1.3-7.9-1.3-12c0-2-0.1-2.9-2.3-1.8
				c-1.4,0.7-2.6,2.1-3.2,3.6c-0.9,2.3-0.9,4.9-0.7,7.4C136.1,22.9,136.2,23.5,136.3,24.2"/>
		</g>
		<g>
			
				<ellipse transform="matrix(0.9759 -0.2183 0.2183 0.9759 -11.4858 32.4014)" class="st11" cx="140.9" cy="68.2" rx="7" ry="0.6"/>
			<path class="st12" d="M147.7,66.7c0-0.1-1.4,0.3-6.8,1.5c-5.5,1.2-6.8,1.5-6.8,1.6c0,0.1,3.3-0.3,7-1.1
				C144.7,67.8,147.7,66.8,147.7,66.7L147.7,66.7z"/>
		</g>
		<g>
			
				<ellipse transform="matrix(0.9881 -0.1537 0.1537 0.9881 -6.4204 22.6327)" class="st11" cx="143.2" cy="52.8" rx="6.3" ry="0.6"/>
			<path class="st12" d="M149.4,51.9c0-0.1-1.2,0.2-6.2,0.9c-5,0.8-6.2,0.9-6.2,1c0,0.1,3,0,6.4-0.6C146.6,52.7,149.4,52,149.4,51.9
				L149.4,51.9z"/>
		</g>
		<g>
			
				<ellipse transform="matrix(0.9977 -6.731876e-02 6.731876e-02 0.9977 -2.2046 9.6663)" class="st11" cx="142.3" cy="37.5" rx="4.6" ry="0.4"/>
			<path class="st12" d="M146.9,37.2c0,0-0.9,0-4.6,0.3c-3.7,0.2-4.5,0.3-4.5,0.3c0,0.1,2.2,0.2,4.6,0
				C144.8,37.7,146.9,37.3,146.9,37.2L146.9,37.2z"/>
		</g>
		<g class="st13">
			<path class="st10" d="M151.2,98.4c-1.2-2.8-1.8-5.9-2.2-8.9c-0.4-2.5-0.6-4.9-0.9-7.4l-14.4,3c0.1,1.5,0.2,3,0.4,4.5
				c0.9,7.2,3,14.3,5.2,21.2c0.4,1.4,0.9,2.8,1.9,3.8c0.7,0.7,1.7,1.1,2.7,1.4c2.1,0.7,4.3,1.2,6.5,1.3c2.6,0.2,4.8-2,4.8-4.6
				c-0.1-3.2-0.4-6.4-1.6-9.3C152.9,101.7,151.9,100.1,151.2,98.4z"/>
		</g>
		<g>
			
				<ellipse transform="matrix(0.9759 -0.2183 0.2183 0.9759 -14.8303 32.772)" class="st11" cx="140.9" cy="83.5" rx="7.8" ry="0.7"/>
			<path class="st12" d="M148.4,81.8c0-0.1-1.5,0.3-7.6,1.7c-6.1,1.4-7.6,1.6-7.6,1.7c0,0.1,3.7-0.3,7.8-1.2
				C145.1,83.1,148.5,81.9,148.4,81.8L148.4,81.8z"/>
		</g>
		<g>
			
				<ellipse transform="matrix(0.9759 -0.2183 0.2183 0.9759 -18.1094 33.7325)" class="st11" cx="143.6" cy="98.8" rx="7.8" ry="0.7"/>
			<path class="st12" d="M151.2,97.1c0-0.1-1.5,0.3-7.6,1.7c-6.1,1.4-7.6,1.6-7.6,1.7c0,0.1,3.7-0.3,7.8-1.2
				C147.8,98.4,151.2,97.2,151.2,97.1L151.2,97.1z"/>
		</g>
	</g>
	<g id="corno_dx">
		<g>
			<path class="st9" d="M201,49.3c-0.1,3.7,0.3,7.4,0.5,11.1c0.7,9.7,0.3,19.4-1.1,29c-0.4,3.1-1,6.1-2.2,8.9
				c-0.7,1.7-1.7,3.3-2.4,5c-1.2,3-1.5,6.1-1.6,9.3c-0.1,2.6,2.1,4.8,4.8,4.6c2.2-0.2,4.4-0.6,6.5-1.3c1-0.3,1.9-0.8,2.7-1.4
				c1.1-1,1.5-2.4,1.9-3.8c2.2-7,4.4-14,5.2-21.2c1.3-11.4-0.6-23-3.1-34.2c-0.5-2.3-1-4.6-1.3-7c-1-8.7,1.6-17.4,2.4-26.1
				c0.2-2.5,0.3-5.1-0.7-7.4c-0.6-1.5-1.7-2.9-3.2-3.6c-2.2-1.1-2.3-0.2-2.3,1.8c0,4.1-0.4,8-1.3,12C204.1,33,201.2,40.9,201,49.3
				L201,49.3z"/>
			<path class="st10" d="M213.1,24.2c-0.1,0.5-0.5,0.9-1,0.9h-6.3c0,0,0-0.1,0-0.2c0.9-4,1.3-7.9,1.3-12c0-2,0.1-2.9,2.3-1.8
				c1.4,0.7,2.6,2.1,3.2,3.6c0.9,2.3,0.9,4.9,0.7,7.4C213.2,22.9,213.2,23.5,213.1,24.2"/>
		</g>
		<g>
			
				<ellipse transform="matrix(0.2183 -0.9759 0.9759 0.2183 96.4501 256.7339)" class="st11" cx="208.5" cy="68.2" rx="0.6" ry="7"/>
			<path class="st12" d="M201.7,66.7c0-0.1,1.4,0.3,6.8,1.5c5.5,1.2,6.8,1.5,6.8,1.6c0,0.1-3.3-0.3-7-1.1
				C204.7,67.8,201.7,66.8,201.7,66.7L201.7,66.7z"/>
		</g>
		<g>
			
				<ellipse transform="matrix(0.1537 -0.9881 0.9881 0.1537 122.2778 248.4868)" class="st11" cx="206.2" cy="52.9" rx="0.6" ry="6.3"/>
			<path class="st12" d="M200,51.9c0-0.1,1.2,0.2,6.2,0.9c5,0.8,6.2,0.9,6.2,1c0,0.1-3,0-6.4-0.6C202.8,52.7,200,52,200,51.9
				L200,51.9z"/>
		</g>
		<g>
			
				<ellipse transform="matrix(6.731877e-02 -0.9977 0.9977 6.731877e-02 155.6635 241.5941)" class="st11" cx="207.1" cy="37.5" rx="0.4" ry="4.6"/>
			<path class="st12" d="M202.5,37.2c0,0,0.9,0,4.6,0.3c3.7,0.2,4.5,0.3,4.5,0.3c0,0.1-2.2,0.2-4.6,0
				C204.6,37.7,202.5,37.3,202.5,37.2L202.5,37.2z"/>
		</g>
		<g class="st13">
			<path class="st10" d="M198.2,98.4c1.2-2.8,1.8-5.9,2.2-8.9c0.4-2.5,0.6-4.9,0.9-7.4l14.4,3c-0.1,1.5-0.2,3-0.4,4.5
				c-0.9,7.2-3,14.3-5.2,21.2c-0.4,1.4-0.9,2.8-1.9,3.8c-0.7,0.7-1.7,1.1-2.7,1.4c-2.1,0.7-4.3,1.2-6.5,1.3c-2.6,0.2-4.8-2-4.8-4.6
				c0.1-3.2,0.4-6.4,1.6-9.3C196.5,101.7,197.5,100.1,198.2,98.4z"/>
		</g>
		<g>
			
				<ellipse transform="matrix(0.2183 -0.9759 0.9759 0.2183 81.4955 268.7133)" class="st11" cx="208.5" cy="83.5" rx="0.7" ry="7.8"/>
			<path class="st12" d="M200.9,81.8c0-0.1,1.5,0.3,7.6,1.7c6.1,1.4,7.6,1.6,7.6,1.7c0,0.1-3.7-0.3-7.8-1.2
				C204.3,83.1,200.9,81.9,200.9,81.8L200.9,81.8z"/>
		</g>
		<g>
			
				<ellipse transform="matrix(0.2183 -0.9759 0.9759 0.2183 64.4308 278.0233)" class="st11" cx="205.8" cy="98.8" rx="0.7" ry="7.8"/>
			<path class="st12" d="M198.2,97.1c0-0.1,1.5,0.3,7.6,1.7c6.1,1.4,7.6,1.6,7.6,1.7c0,0.1-3.7-0.3-7.8-1.2
				C201.6,98.4,198.2,97.2,198.2,97.1L198.2,97.1z"/>
		</g>
	</g>
</g>
</svg>
