<?xml version="1.0" encoding="utf-8"?>
<!-- Generator: Adobe Illustrator 27.0.0, SVG Export Plug-In . SVG Version: 6.00 Build 0)  -->
<svg version="1.1" id="mahekeh_logo_manichino" xmlns="http://www.w3.org/2000/svg" xmlns:xlink="http://www.w3.org/1999/xlink"
	 x="0px" y="0px" viewBox="0 0 350 350" style="enable-background:new 0 0 350 350;" xml:space="preserve">
<style type="text/css">
	.st0{fill:#FFCC03;}
	.st1{opacity:0.4;fill:#009FE3;stroke:#1D1D1B;stroke-width:0.25;stroke-miterlimit:10;enable-background:new    ;}
	.st2{fill:#FFED00;stroke:#1D1D1B;stroke-width:0.25;stroke-miterlimit:10;}
	.st3{stroke:#1D1D1B;stroke-width:0.25;stroke-miterlimit:10;}
	.st4{fill:#1D1D1B;stroke:#1D1D1B;stroke-width:0.25;stroke-miterlimit:10;}
	.st5{fill:#1D1D1B;}
	.st6{fill:#BE1622;stroke:#1D1D1B;stroke-miterlimit:10;}
	.st7{fill:#FFFFFF;stroke:#1D1D1B;stroke-miterlimit:10;}
	.st8{fill:#1D1D1B;stroke:#1D1D1B;stroke-miterlimit:10;}
	.st9{fill:#1D1D1B;stroke:#FFFFFF;stroke-width:3;stroke-miterlimit:10;}
	.st10{fill:#FFFFFF;stroke:#FFFFFF;stroke-width:0.25;stroke-miterlimit:10;}
	.st11{opacity:0.53;fill:#C1A604;enable-background:new    ;}
	.st12{fill:#FFFFFF;}
	.st13{fill:none;stroke:#FFFFFF;stroke-width:0.5;stroke-miterlimit:10;}
	.st14{fill:none;stroke:#FFFFFF;stroke-width:0.75;stroke-miterlimit:10;}
	.st15{font-family:'Impact';}
	.st16{font-size:7.78px;}
	.st17{fill:#1D1D1B;stroke:#FFFFFF;stroke-miterlimit:10;stroke-dasharray:0,0.5;}
	.st18{fill:none;}
	.st19{fill:#BE1622;}
	.st20{fill:none;stroke:#FFED00;stroke-width:3;stroke-miterlimit:10;}
	.st21{fill:#FFED00;}
	.st22{fill:#1D1D1B;stroke:#FFED00;stroke-width:0.5;stroke-miterlimit:10;}
	.st23{fill:#333333;stroke:#1D1D1B;stroke-width:0.5;stroke-miterlimit:10;}
	.st24{fill:#4C2B17;}
	.st25{fill:#FBF2E1;}
	.st26{fill:#EDC492;stroke:#4C2B17;stroke-width:0.15;stroke-miterlimit:10;}
	.st27{fill:#3D1613;}
	.st28{fill:#BD793C;}
	.st29{fill:#874124;}
	.st30{fill:none;stroke:#622511;stroke-width:0.25;stroke-linecap:round;stroke-miterlimit:10;}
	.st31{fill:none;stroke:#874124;stroke-width:0.1;stroke-miterlimit:10;}
	.st32{fill:#F9C29E;stroke:#683C11;stroke-width:0.15;stroke-miterlimit:10;}
	.st33{fill:#432918;stroke:#683C11;stroke-width:0.15;stroke-miterlimit:10;}
	.st34{fill:#683C11;}
	.st35{fill:#EDC492;}
	.st36{opacity:0.47;}
	.st37{fill:#432918;stroke:#683C11;stroke-width:0.25;stroke-miterlimit:10;}
	.st38{opacity:0;}
	.st39{fill:#1D1D1B;stroke:#FFFFFF;stroke-width:0.15;stroke-miterlimit:10;}
	.st40{fill:#7F1717;}
	.st41{opacity:0.38;fill:#E30613;enable-background:new    ;}
	.st42{opacity:0.38;fill:#C70C0F;enable-background:new    ;}
	.st43{fill:#1D1D1B;stroke:#E30613;stroke-width:0.15;stroke-miterlimit:10;}
	.st44{fill:#FFFFFF;stroke:#1D1D1B;stroke-width:0.5;stroke-miterlimit:10;}
	.st45{font-family:'ArialMT';}
	.st46{font-size:15.56px;}
</style>
<g>
	<g>
		<path class="st0" d="M231.8,106.4c0.5-5.7,0.1-10.2-0.3-13.2c-0.6-4-1.4-6.3-1.4-11c0-4.1,0.5-4.7,0.6-8.2
			c0.2-5.2-0.9-8.8-3.1-15.9c-1.9-6.3-2.9-9.7-5.5-14c-0.8-1.4-3.5-5.7-8.3-10.1c-4.1-3.8-7.8-5.8-10.9-7.6
			c-3.1-1.7-6.6-3.7-11.8-5.1c-1.8-0.5-3.3-1.1-5.1-1.5c-3.3-0.5-7.1-0.8-11.3-0.9c-4.5,0-8.6,0.4-12,0.9c-1.8,0.4-3.3,1-5.1,1.5
			c-5.2,1.5-8.7,3.4-11.8,5.1c-3.1,1.7-6.8,3.8-10.9,7.6c-4.8,4.4-7.5,8.7-8.3,10.1c-2.6,4.3-3.6,7.7-5.5,14
			c-2.1,7.1-3.2,10.7-3.1,15.9c0.1,3.5,0.7,4.1,0.6,8.2c-0.1,4.7-0.8,7.1-1.4,11c-0.4,3.1-0.8,7.6-0.3,13.2c0,0.4,0.1,0.8,0,1.2
			c-0.1,3.8,0,8.3,0.6,13.2c0.6,4.7,1.5,8.8,2.5,12.3c0.2,0.5,0.3,1,0.3,1.6c0.3,2.2,1.1,8.6,1.4,10.6c0.1,0.4,0.1,0.8,0.2,1.1
			c1.3,5.1,3.5,11.8,7.4,18.9c0.8,4.5,1.4,16.6-1.2,26.3c-0.1,0.4-0.2,0.9-0.4,1.3c-2.7,9,2.9,18.4,12.1,20.2l34.2,6.5v0.1l0.2-0.1
			l0.2,0.1v-0.1l34.2-6.5c9.3-1.8,14.9-11.2,12.1-20.2c-0.1-0.4-0.3-0.9-0.4-1.3c-2.6-9.6-2-21.8-1.2-26.3c4-7.1,6.2-13.8,7.4-18.9
			c0.1-0.4,0.2-0.8,0.2-1.1c0.2-1.9,1.1-8.3,1.4-10.6c0.1-0.5,0.2-1.1,0.3-1.6c1-3.5,1.9-7.7,2.5-12.3c0.6-4.9,0.8-9.4,0.6-13.2
			C231.7,107.2,231.7,106.8,231.8,106.4L231.8,106.4z"/>
		<g id="logo_impact_testa">
			<g>
				<circle class="st1" cx="173.9" cy="52.2" r="17.5"/>
				<g>
					<path class="st2" d="M191.3,52.2c0-1.2-0.1-7.2-4.9-12.2c-5-5.2-11.4-5.3-12.5-5.3v17.5H191.3L191.3,52.2z"/>
					<path class="st3" d="M156.4,52.2c0-1.2,0.1-7.2,4.9-12.2c5-5.2,11.4-5.3,12.5-5.3v17.5H156.4L156.4,52.2z"/>
					<path class="st4" d="M191.3,52.2c0,1.2-0.1,7.2-4.9,12.2c-5,5.2-11.4,5.3-12.5,5.3V52.2L191.3,52.2L191.3,52.2z"/>
					<path class="st2" d="M156.4,52.2c0,1.2,0.1,7.2,4.9,12.2c5,5.2,11.4,5.3,12.5,5.3V52.2L156.4,52.2L156.4,52.2z"/>
				</g>
			</g>
			<g>
				<circle class="st1" cx="173.9" cy="52.2" r="3.5"/>
				<g>
					<path class="st2" d="M173.9,48.7c-0.2,0-1.4,0-2.4,1c-1,1-1.1,2.3-1.1,2.5h3.5L173.9,48.7L173.9,48.7z"/>
					<path class="st3" d="M173.9,55.7c-0.2,0-1.4,0-2.4-1c-1-1-1.1-2.3-1.1-2.5h3.5L173.9,55.7L173.9,55.7z"/>
					<path class="st4" d="M173.9,48.7c0.2,0,1.4,0,2.4,1c1,1,1.1,2.3,1.1,2.5h-3.5L173.9,48.7L173.9,48.7z"/>
					<path class="st2" d="M173.9,55.7c0.2,0,1.4,0,2.4-1c1-1,1.1-2.3,1.1-2.5h-3.5L173.9,55.7L173.9,55.7z"/>
				</g>
			</g>
		</g>
		<path class="st5" d="M218.7,194.9c0.6-0.5,0.6-1.4,0.9-2.1c0.4-1.2,1.5-1.9,2.1-3.1c0.9-1.8,0.5-4-0.1-5.9s-1.4-3.9-1-5.9
			c0.2-0.9,0.6-1.8,0.7-2.7c0.3-2.6-2.9-5.2-3.1-1.6c-0.1,3.2-0.3,6.2-1.3,9.3c-0.3,0.9-0.6,1.7-0.7,2.6c-0.2,1.2-0.1,2.5,0,3.8
			c0,1.4-0.1,2.8-0.4,4.1c-0.1,0.4-0.5,4.4-0.3,4.7L218.7,194.9L218.7,194.9z"/>
		<path class="st5" d="M168.3,215.4c-4.8-0.3-8.7-1.4-11.5-2.4c-0.1,0-0.1,0-0.1-0.1c-4.4-2.9-9.4-6.7-14.5-11.8
			c-3.7-3.7-6.7-7.3-9.1-10.6c0,0,0,0,0,0c0,0,0,0,0,0c-1.8-3.2-2-8.1-2-8.1c-0.1-1.8,0.1-1.7,0-4.4c0-0.7-0.6-1.5-0.6-2.8
			c0-1.4,0-1.4,0.1-1.6c0.1-0.2,0-1.3-0.1-1.5c-0.2-0.4-0.6-1-0.9-0.7c-0.9,1.1-1.6,2.9-2.1,3.4c-0.9,1-1.5,2.2-1.9,3.5
			c-0.8,3.2-1.7,6.4-2.5,9.6c-0.8,3.2-1.6,6.4-2.3,9.5c-0.3,1.4-0.6,2.8-0.7,4.2c-0.5,6.3,1.3,12.5,5,17.7c3.5,4.8,8.4,10,15.5,14.1
			c15,8.9,30,7.6,36.3,6.6c1.3-0.2,2.3-1.4,2.3-2.8v-17.5c0-2.6-2.2-4.6-4.8-4.4C172.5,215.5,170.5,215.5,168.3,215.4L168.3,215.4z"
			/>
		<path class="st6" d="M32.4,241.4c0,0.2,0.1,0.3,0.1,0.5l0,0C32.5,241.8,32.4,241.6,32.4,241.4z"/>
		<path class="st6" d="M32.5,241.9L32.5,241.9c10,33.3,15.7,61,19.2,80.2C46.5,292.4,39.7,265.6,32.5,241.9z"/>
		<path class="st6" d="M51.7,322.1c-3.4-19.2-9.2-46.9-19.2-80.2c-5.1,5.6-8.9,12.5-10.8,20.1c-5.5,21.3-10.9,43.2-16,65.6
			c-1.7,7.5-3.4,14.9-5,22.3H56c-0.4-2.7-0.8-5.5-1.2-8.4C53.9,335,52.8,328.5,51.7,322.1L51.7,322.1z"/>
		<path class="st6" d="M178.3,217.9c-4,11.4-13.6,11.7-24.9,13.3c-14.1,2.1-28.7-6.7-34.2-21.5L55,227.9c-8.8,2.5-16.6,7.4-22.5,14
			c7.2,23.7,13.9,50.5,19.2,80.2c0,0.2,0.1,0.4,0.1,0.6c1.8,10,3.1,18.6,4.2,27.3h122.3L178.3,217.9L178.3,217.9z"/>
		<polygon class="st5" points="169.8,242.5 163.4,242.5 166.9,350 169.8,350 		"/>
		<rect x="166.9" y="242.5" class="st6" width="6" height="107.5"/>
		<polygon class="st5" points="123.6,235 49.4,249.2 47.2,240.4 120.3,222 		"/>
		
			<rect x="46" y="227.7" transform="matrix(0.9699 -0.2434 0.2434 0.9699 -54.5389 27.422)" class="st7" width="75.4" height="13.4"/>
		<path class="st6" d="M345.6,327.7c-5.2-22.5-10.5-44.3-16-65.6c-2-7.6-5.7-14.5-10.8-20.1c-10,33.3-15.7,61-19.2,80.2
			c-1.1,6.4-2.2,12.9-3.2,19.5c-0.4,2.9-0.8,5.6-1.2,8.4h55.4C349,342.6,347.3,335.2,345.6,327.7L345.6,327.7z"/>
		<path class="st6" d="M296.2,227.9L232,209.8c-5.5,14.7-20,23.5-34.1,21.5c-11.3-1.6-21-1.9-24.9-13.3V350h122.3
			c1.2-8.7,2.5-17.3,4.2-27.3c0-0.2,0.1-0.4,0.1-0.6c5.2-29.7,12-56.5,19.2-80.2C312.8,235.3,305.1,230.4,296.2,227.9L296.2,227.9z"
			/>
		<polygon class="st5" points="227.7,235 301.9,249.2 304.1,240.4 230.9,222 		"/>
		
			<rect x="260.8" y="196.7" transform="matrix(0.2434 -0.9699 0.9699 0.2434 -24.9236 436.8068)" class="st7" width="13.4" height="75.4"/>
		<path class="st6" d="M166.8,217c-4.8-0.3-8.7-1.4-11.5-2.4c-0.1,0-0.1,0-0.1-0.1c-4.4-2.9-9.4-6.7-14.5-11.8
			c-3.7-3.7-6.7-7.3-9.1-10.6c0,0,0,0,0,0c0,0,0,0,0,0c-1.8-3.2-2-8.1-2-8.1c-0.1-1.8,0.1-1.7,0-4.4c0-0.7-0.1-1.7-0.1-3
			c0-1.4,0-2.1,0.1-2.3c0.1-0.2,0.2-0.5,0.1-0.8c-0.2-0.4-0.9-0.7-1.1-0.4c-0.9,1.1-2,2.8-2.5,3.3c-0.9,1-1.5,2.2-1.9,3.5
			c-0.8,3.2-1.7,6.4-2.5,9.6c-0.8,3.2-1.6,6.4-2.3,9.5c-0.3,1.4-0.6,2.8-0.7,4.2c-0.5,6.3,1.3,12.5,5,17.7c3.5,4.8,8.4,10,15.5,14.1
			c15,8.9,30,7.6,36.3,6.6c1.3-0.2,2.3-1.4,2.3-2.8v-17.5c0-2.6-2.2-4.6-4.8-4.4C171,217.1,168.9,217.1,166.8,217L166.8,217z"/>
		<g>
			<path class="st8" d="M146.8,214.7h1.9c0.5,0,0.9,0.4,0.9,0.9v25.8c0,0.5-0.4,0.9-0.9,0.9h-1.9c-0.5,0-0.9-0.4-0.9-0.9v-25.8
				C145.9,215.1,146.3,214.7,146.8,214.7z"/>
			<path class="st6" d="M184.8,217c4.8-0.3,8.7-1.4,11.5-2.4c4.4-2.9,9.4-6.7,14.6-11.8c1.5-1.5,2.9-3,4.2-4.5
				c3.1-3.5,4.6-8.1,4.3-12.7c-0.1-0.7-0.1-1.4-0.1-2.1c-0.6-10.4,0.3-11.1,0.7-11.2c0.4-0.1,1.2,0.1,2.6,1.8
				c0.9,0.5,2.5,1.7,3.1,2.5c0.9,1,1.5,2.2,1.9,3.5c0.8,3.2,1.7,6.4,2.5,9.6c0.8,3.2,1.6,6.4,2.4,9.5c0.3,1.4,0.6,2.8,0.7,4.2
				c0.5,6.3-1.3,12.5-5,17.7c-3.5,4.8-8.4,10-15.5,14.1c-15.4,9.2-25.7,11.2-38.1,11.9c-1,0.1-28.6,0.9-28.6-0.2l1.5-32.2
				c0-2.2,28.5,2.2,30.7,2.4C180.1,217.1,182.4,217.2,184.8,217L184.8,217z"/>
			<path class="st5" d="M195.7,228c-0.6,0.4,0,1.3,0.6,1c4.5-2.2,9.7-5.3,15.1-9.5c4.9-3.9,8.8-7.8,11.9-11.4
				c0.5-0.5-0.2-1.3-0.8-0.9C213.5,214.1,204.6,221,195.7,228L195.7,228z"/>
		</g>
		<g id="volto">
			<g id="occhio_sx">
				<circle class="st9" cx="147.4" cy="103.7" r="8.1"/>
				<circle class="st10" cx="151" cy="100.2" r="1.7"/>
			</g>
			<path id="sopracciglio_sx" class="st5" d="M163.2,82c0-0.4-0.3-0.7-0.6-0.7c-3.2-0.4-6.7-0.7-10.7-0.7c-4.4,0-8.4,0.3-11.8,0.8
				c-0.1,0-0.1,0-0.2,0.1c-1.5,0.6-3.1,1.4-4.8,2.4c-3.2,1.9-5.8,4-7.8,6c-0.5,0.4-0.1,1.2,0.5,1.2l0,0c0.1,0,0.3,0,0.4-0.1
				c1.9-1.2,4.2-2.6,7.1-3.7c2.1-0.8,4.1-1.4,5.8-1.8c0.1,0,0.1,0,0.2,0c3.8,0.1,7.5,0.2,11.3,0.4c0,0,0,0,0.1,0
				c3.2,0.4,6.4,0.8,9.7,1.2c0.4,0.1,0.8-0.3,0.8-0.7C163.2,86.2,163.2,82,163.2,82z"/>
			<path class="st11" d="M165.4,141.1c0.7-1.6,1.4-3.1,2.1-4.6c0.8-1.7,1.6-3.5,2.3-5.2c0,0,0-0.1,0-0.1l1.5-23.3
				c0.1-0.9,0.3-5.2-1.7-9.2l-4.1,1.2c0.2,0.3,0.2,0.2,0.2,0.4c3.3,12.4-0.3,26.1-0.3,26.1c-0.8,2.9-0.7,6.1-1.5,9
				c-0.4,1.5-1.1,3.8,0.1,5.4L165.4,141.1L165.4,141.1z"/>
			<g id="occhio_dx">
				<circle class="st9" cx="201.1" cy="103.7" r="8.1"/>
				<circle class="st10" cx="197.5" cy="100.2" r="1.7"/>
			</g>
			<path class="st11" d="M231.5,93.2c-0.3-2.2-0.5-4.6-1.1-6.7c-0.5-1.8,0.2-4.4-0.4-4.8c-1.2-1.1-3.8-1.2-4.9,0
				c-0.7,0.8-0.5,1.9-0.5,2.3c0.8,7,0.3,24.5-0.3,31.3c-0.2,2.6-0.6,6-2,9.9c-1,2.9-2.1,4.8-2.7,6.1c-5.1,9.5-4.3,10.4-11,23.6
				c-3,5.9-3.2,5.8-4.7,9.2c-1.1,2.5-1.8,4.3-5.5,14.4c-3.1,8.6-4,11-6.8,13.3c-1.4,1.1-3.1,2.5-5.7,2.9c-2,0.3-7,0.5-10.3,0.2
				c-0.2,0-1-0.1-1.3,0.3c-0.3-0.4-1.1-0.3-1.3-0.3c-3.3,0.3-8.3,0.1-10.3-0.2c-2.6-0.4-4.3-1.8-5.7-2.9c-2.9-2.3-3.7-4.8-6.8-13.3
				c-3.7-10.1-4.4-11.9-5.5-14.4c-1.6-3.4-1.7-3.3-4.7-9.2c-6.8-13.2-6-14.1-11-23.6c-0.7-1.3-1.8-3.2-2.7-6.1c-1.4-4-1.8-7.3-2-9.9
				c-0.6-6.8-1-24.3-0.3-31.3c0-0.4,0.2-1.5-0.5-2.3c-1.1-1.2-3.7-1.2-4.9,0c-0.5,0.5,0.2,3-0.4,4.8c-0.6,2.1-0.8,4.5-1.1,6.7
				c-0.4,3.1-0.8,7.5-0.3,13.2c0,0.5,0.1,0.9,0,1.4c-0.1,3.8,0,8.2,0.6,13.1c0.6,4.7,1.5,8.8,2.5,12.3c0.2,0.6,0.3,1.1,0.3,1.7
				c0.3,2.4,1.1,8.5,1.3,10.4c0.1,0.4,0.1,0.8,0.2,1.1c1.3,5.1,3.5,11.8,7.4,18.9c3,5.4,6.3,9.8,9.2,13.1c0.3,0.4,0.6,0.8,0.9,1.2
				c1.7,2.5,3.7,5.1,6.1,7.8c1.5,1.6,3.2,3.3,5,4.9l0,0c2.6,2.3,5.7,3.9,9,4.8c0.8,0.2,0.6,0.1,2.7,0.6c2,0.5,2.3,0.6,3.6,0.9
				c1.1,0.2,2.1,0.4,4.2,0.8c0,0,0.6,0.1,2.1,0.2c1.3,0.1,1.8,0.1,2-0.2c0.3,0.2,0.7,0.3,2,0.2c1.5-0.1,2.1-0.2,2.1-0.2
				c2.1-0.4,3.1-0.5,4.2-0.8c1.3-0.3,1.6-0.4,3.6-0.9c2.1-0.5,1.9-0.4,2.7-0.6c3.3-0.9,6.4-2.5,9-4.8l0,0c1.8-1.6,3.5-3.3,5-4.9
				c2.4-2.6,4.4-5.3,6.1-7.8c0.3-0.4,0.6-0.8,0.9-1.2c2.9-3.4,6.2-7.7,9.2-13.1c4-7.1,6.2-13.8,7.4-18.9c0.1-0.4,0.2-0.8,0.2-1.1
				c0.2-1.9,1-8.1,1.3-10.4c0.1-0.6,0.2-1.2,0.4-1.7c1-3.5,1.9-7.7,2.5-12.3c0.6-4.9,0.8-9.3,0.6-13.1c0-0.5,0-0.9,0-1.4
				C232.3,100.7,231.9,96.2,231.5,93.2L231.5,93.2z"/>
			<path class="st12" d="M174.9,194.1l-12.3-0.3c-1,0-1.9-0.4-2.7-1.1l-1.1-0.9c-1.3-1.1-2.3-2.5-3-4.1l-4.6-10.8
				c-0.2-0.4-0.4-0.9-0.5-1.3l-3.1-8.9c0,0,0-0.1-0.1-0.1l-9.3-18.1c0,0,0,0,0,0l-7.5-16.7c0,0-2-5.7-5.7-16.4
				c-0.2-0.9-0.3-1.8-0.5-2.8V99.6c0,0,0,0,0-0.1l0.3-4.8c0,0,0-0.1,0-0.1c-0.1-3.6,0-7.8,0.6-12.5c0.1-0.8-0.6-1.3-1.2-0.9
				c-0.6,0.4-0.9,1-1,1.7c-0.5,4.8-0.5,8.7-0.4,11.4V111c0,2.3,0.3,4.7,1,6.9c1.4,4.7,3.1,9.7,5.1,14.9c2.2,5.8,4.5,11.1,6.8,15.9
				c2.8,5.3,5.6,10.6,8.3,15.9c0.9,1.8,1.7,3.7,2.4,5.6l1.8,5.5c0.3,1,0.7,2,1.2,3l4.7,9.7c1,2.1,2.6,3.9,4.4,5.1l1.1,0.7
				c0.7,0.4,1.5,0.7,2.3,0.8l11.7,0.6"/>
			<path class="st12" d="M173.6,195.7l13-0.6c0.8,0,1.6-0.3,2.3-0.8l1.1-0.7c1.9-1.2,3.4-3,4.4-5.1l4.7-9.7c0.5-1,0.9-2,1.2-3
				l1.8-5.5c0.6-2,1.4-3.9,2.4-5.6c2.8-5.3,5.6-10.6,8.3-15.9c2.3-4.8,4.6-10.1,6.8-15.9c2-5.2,3.7-10.2,5.1-14.9
				c0.7-2.2,1-4.6,1-6.9V94.4c0.1-2.6,0.1-6.6-0.4-11.4c-0.1-0.7-0.4-1.4-1-1.7c-0.6-0.4-1.3,0.2-1.2,0.9c0.6,4.7,0.7,8.9,0.6,12.5
				c0,0,0,0.1,0,0.1l0.3,4.8c0,0,0,0,0,0.1v12.9c-0.2,0.9-0.3,1.8-0.5,2.8c-3.7,10.7-5.7,16.4-5.7,16.4l-7.5,16.7c0,0,0,0,0,0
				l-9.3,18.1c0,0,0,0.1-0.1,0.1l-3.1,8.9c-0.1,0.4-0.3,0.9-0.5,1.3l-4.6,10.8c-0.7,1.6-1.7,3-3,4.1l-1.1,0.9
				c-0.8,0.7-1.7,1-2.7,1.1l-11.1,0.3"/>
			<path class="st5" d="M185.3,82c0-0.4,0.3-0.7,0.6-0.7c3.2-0.4,6.7-0.7,10.7-0.7c4.4,0,8.4,0.3,11.8,0.8c0.1,0,0.1,0,0.2,0.1
				c1.5,0.6,3.1,1.4,4.8,2.4c3.2,1.9,5.8,4,7.8,6c0.5,0.4,0.1,1.2-0.5,1.2l0,0c-0.1,0-0.3,0-0.4-0.1c-1.9-1.2-4.2-2.6-7.1-3.7
				c-2.1-0.8-4.1-1.4-5.8-1.8c-0.1,0-0.1,0-0.2,0c-3.8,0.1-7.5,0.2-11.3,0.4c0,0,0,0-0.1,0c-3.2,0.4-6.4,0.8-9.7,1.2
				c-0.4,0.1-0.8-0.3-0.8-0.7L185.3,82L185.3,82z"/>
			<path class="st11" d="M183.2,141.1l-4.2-10h-9.5l-4.2,10c1.3,0.2,2.9,0.4,4.6,0.4c1.6,0,3.1-0.2,4.4-0.4c1.2,0.2,2.7,0.4,4.4,0.4
				C180.4,141.5,181.9,141.4,183.2,141.1L183.2,141.1z"/>
			<ellipse class="st5" cx="176.8" cy="135.9" rx="2.3" ry="0.4"/>
			<path class="st11" d="M183.1,141.1c-0.7-1.6-1.4-3.1-2.1-4.6c-0.8-1.7-1.6-3.5-2.3-5.2c0,0,0-0.1,0-0.1l-1.5-23.3
				c-0.1-0.9-0.3-5.2,1.7-9.2l4.1,1.2c-0.2,0.3-0.2,0.2-0.2,0.4c-3.3,12.4,0.3,26.1,0.3,26.1c0.8,2.9,0.7,6.1,1.5,9
				c0.4,1.5,1.1,3.8-0.1,5.4L183.1,141.1L183.1,141.1z"/>
			<g>
				<path class="st13" d="M169.5,98.5c-0.7-1.3-1.6-2.6-2.9-3.7c-1.1-1-2.3-1.6-3.4-2.1c-1.2-0.7-3.1-1.6-5.6-2.1
					c-2.9-0.5-5.3-0.1-6.7,0.2"/>
				<path class="st14" d="M165.5,99.8c3.3,12.4-0.3,26.1-0.3,26.1c-0.8,2.9-0.7,6.1-1.5,9c-0.4,1.5-1.1,3.8,0.1,5.4
					c0.4,0.6,1.5,1,1.9,1.1"/>
				<path class="st13" d="M179,98.5c0.7-1.3,1.6-2.6,2.9-3.7c1.1-1,2.3-1.6,3.4-2.1c1.2-0.7,3.1-1.6,5.6-2.1
					c2.9-0.5,5.3-0.1,6.7,0.2"/>
				<path class="st14" d="M183.1,99.8c-3.3,12.4,0.3,26.1,0.3,26.1c0.8,2.9,0.7,6.1,1.5,9c0.4,1.5,1.1,3.8-0.1,5.4
					c-0.4,0.6-1.5,1-1.9,1.1"/>
				<path class="st14" d="M169.5,98.5c2,3.9,1.8,8.2,1.7,9.2l-1.5,23.3c0,0,0,0.1,0,0.1c-0.8,1.7-1.6,3.5-2.3,5.2
					c-0.7,1.6-1.4,3.1-2.1,4.6c-0.1,0.2,0,0.4,0.3,0.5c1.4,0.2,2.9,0.3,4.7,0.3c1.5,0,2.9-0.2,4.1-0.4h-0.3c1.2,0.2,2.6,0.3,4.1,0.4
					c1.7,0,3.3-0.1,4.7-0.3c0.2,0,0.4-0.3,0.3-0.5c-0.7-1.6-1.4-3.1-2.1-4.6c-0.8-1.7-1.6-3.5-2.3-5.2c0,0,0-0.1,0-0.1l-1.5-23.3
					c-0.1-0.9-0.3-5.2,1.7-9.2"/>
			</g>
			<ellipse class="st5" cx="171.7" cy="135.9" rx="2.3" ry="0.4"/>
			<path id="bocca" d="M187.3,174.1h-26v-9.6h26V174.1z			">
<animate  accumulate="none" additive="replace" attributeName="d" begin="4s;change_bocca_return.end+7" calcMode="linear" dur="3s" fill="remove" from="M187.26,174.11h-26.02v-9.62h26.02v9.62Z" id="change_bocca" restart="always" to="M187.26,170.36c-2.74,1.57-7.31,3.63-13.1,3.61-5.7-.02-10.2-2.05-12.92-3.61v-4.31c0-1.13,.79-1.89,1.49-1.41,2.45,1.69,6.4,3.75,11.39,3.79,5.12,.04,9.17-2.07,11.66-3.79,.7-.48,1.48,.28,1.48,1.41v4.31Z">
					</animate>
				
					<animate  accumulate="none" additive="replace" attributeName="d" begin="change_bocca.end;" calcMode="linear" dur="15s" fill="remove" id="change_bocca_freeze" restart="always" values="M187.26,170.36c-2.74,1.57-7.31,3.63-13.1,3.61-5.7-.02-10.2-2.05-12.92-3.61v-4.31c0-1.13,.79-1.89,1.49-1.41,2.45,1.69,6.4,3.75,11.39,3.79,5.12,.04,9.17-2.07,11.66-3.79,.7-.48,1.48,.28,1.48,1.41v4.31Z">
					</animate>
				
					<animate  accumulate="none" additive="replace" attributeName="d" begin="change_bocca_freeze.end;" calcMode="linear" dur="3s" fill="remove" from="M187.26,170.36c-2.74,1.57-7.31,3.63-13.1,3.61-5.7-.02-10.2-2.05-12.92-3.61v-4.31c0-1.13,.79-1.89,1.49-1.41,2.45,1.69,6.4,3.75,11.39,3.79,5.12,.04,9.17-2.07,11.66-3.79,.7-.48,1.48,.28,1.48,1.41v4.31Z" id="change_bocca_return" restart="always" to="M187.26,174.11h-26.02v-9.62h26.02v9.62Z">
					</animate>
			</path>
			<g>
				
					<ellipse transform="matrix(0.9648 -0.263 0.263 0.9648 -34.7452 39.0479)" class="st1" cx="128.5" cy="149.3" rx="3.4" ry="17"/>
				<g>
					<path class="st2" d="M131.3,146.9c-0.3-1.1-2-6.7-4.1-10.6c-2.2-4.1-3.3-3.3-3.5-3.2l4.8,16.2L131.3,146.9L131.3,146.9z"/>
					<path class="st3" d="M125.6,151.8c-0.3-1.1-1.9-6.8-2.5-12c-0.6-5.5,0.4-6.5,0.6-6.7l4.8,16.2L125.6,151.8L125.6,151.8z"/>
					<path class="st4" d="M131.3,146.9c0.3,1.1,1.9,6.8,2.5,12c0.6,5.5-0.4,6.5-0.6,6.7l-4.8-16.2L131.3,146.9L131.3,146.9z"/>
					<path class="st2" d="M125.6,151.8c0.3,1.1,2,6.7,4.1,10.6c2.2,4.1,3.3,3.3,3.5,3.2l-4.8-16.2L125.6,151.8L125.6,151.8z"/>
				</g>
			</g>
			<g>
				
					<ellipse transform="matrix(0.9648 -0.263 0.263 0.9648 -34.7452 39.0478)" class="st1" cx="128.5" cy="149.3" rx="0.7" ry="3.4"/>
				<g>
					<path class="st2" d="M127.5,146.1c0,0-0.2,0.2-0.1,1.3c0.1,1.1,0.4,2.3,0.5,2.5l0.6-0.5L127.5,146.1L127.5,146.1z"/>
					<path class="st3" d="M129.4,152.6c0,0-0.2,0.2-0.7-0.6c-0.4-0.8-0.8-2-0.8-2.2l0.6-0.5L129.4,152.6L129.4,152.6z"/>
					<path class="st4" d="M127.5,146.1c0,0,0.2-0.2,0.7,0.6c0.4,0.8,0.8,2,0.9,2.2l-0.6,0.5L127.5,146.1L127.5,146.1z"/>
					<path class="st2" d="M129.4,152.6c0,0,0.2-0.2,0.1-1.3c-0.1-1.1-0.4-2.3-0.5-2.5l-0.6,0.5L129.4,152.6L129.4,152.6z"/>
				</g>
			</g>
			<g>
				
					<ellipse transform="matrix(0.263 -0.9648 0.9648 0.263 18.1954 322.4454)" class="st1" cx="220.2" cy="149.3" rx="17" ry="3.4"/>
				<g>
					<path class="st2" d="M217.3,146.9c0.3-1.1,2-6.7,4.1-10.6c2.2-4.1,3.3-3.3,3.5-3.2l-4.8,16.2L217.3,146.9L217.3,146.9z"/>
					<path class="st3" d="M223,151.8c0.3-1.1,1.9-6.8,2.5-12c0.6-5.5-0.4-6.5-0.6-6.7l-4.8,16.2L223,151.8L223,151.8z"/>
					<path class="st4" d="M217.3,146.9c-0.3,1.1-1.9,6.8-2.5,12c-0.6,5.5,0.4,6.5,0.6,6.7l4.8-16.2L217.3,146.9L217.3,146.9z"/>
					<path class="st2" d="M223,151.8c-0.3,1.1-2,6.7-4.1,10.6c-2.2,4.1-3.3,3.3-3.5,3.2l4.8-16.2L223,151.8L223,151.8z"/>
				</g>
			</g>
			<g>
				
					<ellipse transform="matrix(0.263 -0.9648 0.9648 0.263 18.1954 322.4454)" class="st1" cx="220.2" cy="149.3" rx="3.4" ry="0.7"/>
				<g>
					<path class="st2" d="M221.1,146.1c0,0,0.2,0.2,0.1,1.3c-0.1,1.1-0.4,2.3-0.5,2.5l-0.6-0.5L221.1,146.1L221.1,146.1z"/>
					<path class="st3" d="M219.2,152.6c0,0,0.2,0.2,0.7-0.6c0.4-0.8,0.8-2,0.9-2.2l-0.6-0.5L219.2,152.6L219.2,152.6z"/>
					<path class="st4" d="M221.1,146.1c0,0-0.2-0.2-0.7,0.6c-0.4,0.8-0.8,2-0.9,2.2l0.6,0.5L221.1,146.1L221.1,146.1z"/>
					<path class="st2" d="M219.2,152.6c0,0-0.2-0.2-0.1-1.3c0.1-1.1,0.4-2.3,0.5-2.5l0.6,0.5L219.2,152.6L219.2,152.6z"/>
				</g>
			</g>
		</g>
		<text transform="matrix(0.9699 -0.2434 0.2434 0.9699 57.64 244.04)" class="st5 st15 st16">Disassemble me</text>
		<g>
			<g>
				<g>
					<g>
						<rect x="2.8" y="339.9" class="st12" width="0.2" height="1"/>
						<path class="st12" d="M177.6,340.9h-0.5v-1h0.5V340.9z M176.6,340.9h-0.5v-1h0.5V340.9z M175.6,340.9h-0.5v-1h0.5V340.9z
							 M174.6,340.9h-0.5v-1h0.5V340.9z M173.6,340.9h-0.5v-1h0.5V340.9z M172.6,340.9h-0.5v-1h0.5V340.9z M171.6,340.9h-0.5v-1h0.5
							V340.9z M170.6,340.9h-0.5v-1h0.5V340.9z M169.6,340.9h-0.5v-1h0.5V340.9z M168.6,340.9h-0.5v-1h0.5V340.9z M167.6,340.9h-0.5
							v-1h0.5V340.9z M166.6,340.9h-0.5v-1h0.5V340.9z M165.6,340.9h-0.5v-1h0.5V340.9z M164.6,340.9h-0.5v-1h0.5V340.9z
							 M163.6,340.9h-0.5v-1h0.5V340.9z M162.6,340.9h-0.5v-1h0.5V340.9z M161.6,340.9h-0.5v-1h0.5V340.9z M160.6,340.9h-0.5v-1h0.5
							V340.9z M159.6,340.9h-0.5v-1h0.5V340.9z M158.6,340.9h-0.5v-1h0.5V340.9z M157.6,340.9h-0.5v-1h0.5V340.9z M156.6,340.9h-0.5
							v-1h0.5V340.9z M155.6,340.9h-0.5v-1h0.5V340.9z M154.6,340.9h-0.5v-1h0.5V340.9z M153.6,340.9h-0.5v-1h0.5V340.9z
							 M152.6,340.9h-0.5v-1h0.5V340.9z M151.6,340.9h-0.5v-1h0.5V340.9z M150.6,340.9h-0.5v-1h0.5V340.9z M149.6,340.9h-0.5v-1h0.5
							V340.9z M148.6,340.9h-0.5v-1h0.5V340.9z M147.6,340.9h-0.5v-1h0.5V340.9z M146.6,340.9h-0.5v-1h0.5V340.9z M145.6,340.9h-0.5
							v-1h0.5V340.9z M144.6,340.9h-0.5v-1h0.5V340.9z M143.6,340.9h-0.5v-1h0.5V340.9z M142.6,340.9h-0.5v-1h0.5V340.9z
							 M141.6,340.9h-0.5v-1h0.5V340.9z M140.6,340.9h-0.5v-1h0.5V340.9z M139.6,340.9h-0.5v-1h0.5V340.9z M138.6,340.9h-0.5v-1h0.5
							V340.9z M137.6,340.9h-0.5v-1h0.5V340.9z M136.6,340.9h-0.5v-1h0.5V340.9z M135.6,340.9h-0.5v-1h0.5V340.9z M134.6,340.9h-0.5
							v-1h0.5V340.9z M133.6,340.9h-0.5v-1h0.5V340.9z M132.6,340.9h-0.5v-1h0.5V340.9z M131.6,340.9h-0.5v-1h0.5V340.9z
							 M130.6,340.9h-0.5v-1h0.5V340.9z M129.6,340.9h-0.5v-1h0.5V340.9z M128.6,340.9h-0.5v-1h0.5V340.9z M127.6,340.9h-0.5v-1h0.5
							V340.9z M126.6,340.9h-0.5v-1h0.5V340.9z M125.6,340.9h-0.5v-1h0.5V340.9z M124.6,340.9h-0.5v-1h0.5V340.9z M123.6,340.9h-0.5
							v-1h0.5V340.9z M122.6,340.9h-0.5v-1h0.5V340.9z M121.6,340.9h-0.5v-1h0.5V340.9z M120.6,340.9h-0.5v-1h0.5V340.9z
							 M119.6,340.9h-0.5v-1h0.5V340.9z M118.6,340.9h-0.5v-1h0.5V340.9z M117.6,340.9h-0.5v-1h0.5V340.9z M116.6,340.9h-0.5v-1h0.5
							V340.9z M115.6,340.9h-0.5v-1h0.5V340.9z M114.6,340.9h-0.5v-1h0.5V340.9z M113.6,340.9h-0.5v-1h0.5V340.9z M112.6,340.9h-0.5
							v-1h0.5V340.9z M111.6,340.9h-0.5v-1h0.5V340.9z M110.6,340.9h-0.5v-1h0.5V340.9z M109.6,340.9h-0.5v-1h0.5V340.9z
							 M108.6,340.9h-0.5v-1h0.5V340.9z M107.6,340.9h-0.5v-1h0.5V340.9z M106.6,340.9h-0.5v-1h0.5V340.9z M105.6,340.9h-0.5v-1h0.5
							V340.9z M104.6,340.9h-0.5v-1h0.5V340.9z M103.6,340.9h-0.5v-1h0.5V340.9z M102.6,340.9h-0.5v-1h0.5V340.9z M101.6,340.9h-0.5
							v-1h0.5V340.9z M100.6,340.9h-0.5v-1h0.5V340.9z M99.6,340.9h-0.5v-1h0.5V340.9z M98.6,340.9h-0.5v-1h0.5V340.9z M97.6,340.9
							h-0.5v-1h0.5V340.9z M96.6,340.9h-0.5v-1h0.5V340.9z M95.6,340.9h-0.5v-1h0.5V340.9z M94.6,340.9h-0.5v-1h0.5V340.9z
							 M93.6,340.9h-0.5v-1h0.5V340.9z M92.6,340.9h-0.5v-1h0.5V340.9z M91.6,340.9h-0.5v-1h0.5V340.9z M90.6,340.9h-0.5v-1h0.5
							V340.9z M89.6,340.9h-0.5v-1h0.5V340.9z M88.6,340.9h-0.5v-1h0.5V340.9z M87.6,340.9h-0.5v-1h0.5V340.9z M86.6,340.9h-0.5v-1
							h0.5V340.9z M85.6,340.9h-0.5v-1h0.5V340.9z M84.6,340.9h-0.5v-1h0.5V340.9z M83.6,340.9h-0.5v-1h0.5V340.9z M82.6,340.9h-0.5
							v-1h0.5V340.9z M81.6,340.9h-0.5v-1h0.5V340.9z M80.6,340.9h-0.5v-1h0.5V340.9z M79.6,340.9h-0.5v-1h0.5V340.9z M78.6,340.9
							h-0.5v-1h0.5V340.9z M77.6,340.9h-0.5v-1h0.5V340.9z M76.6,340.9h-0.5v-1h0.5V340.9z M75.6,340.9h-0.5v-1h0.5V340.9z
							 M74.6,340.9h-0.5v-1h0.5V340.9z M73.6,340.9h-0.5v-1h0.5V340.9z M72.6,340.9h-0.5v-1h0.5V340.9z M71.6,340.9h-0.5v-1h0.5
							V340.9z M70.6,340.9h-0.5v-1h0.5V340.9z M69.6,340.9h-0.5v-1h0.5V340.9z M68.6,340.9h-0.5v-1h0.5V340.9z M67.6,340.9h-0.5v-1
							h0.5V340.9z M66.6,340.9h-0.5v-1h0.5V340.9z M65.6,340.9h-0.5v-1h0.5V340.9z M64.6,340.9h-0.5v-1h0.5V340.9z M63.6,340.9h-0.5
							v-1h0.5V340.9z M62.6,340.9h-0.5v-1h0.5V340.9z M61.6,340.9h-0.5v-1h0.5V340.9z M60.6,340.9h-0.5v-1h0.5V340.9z M59.6,340.9
							h-0.5v-1h0.5V340.9z M58.6,340.9h-0.5v-1h0.5V340.9z M57.6,340.9h-0.5v-1h0.5V340.9z M56.6,340.9h-0.5v-1h0.5V340.9z
							 M55.6,340.9h-0.5v-1h0.5V340.9z M54.6,340.9h-0.5v-1h0.5V340.9z M53.6,340.9h-0.5v-1h0.5V340.9z M52.6,340.9h-0.5v-1h0.5
							V340.9z M51.6,340.9h-0.5v-1h0.5V340.9z M50.6,340.9h-0.5v-1h0.5V340.9z M49.6,340.9h-0.5v-1h0.5V340.9z M48.6,340.9h-0.5v-1
							h0.5V340.9z M47.6,340.9h-0.5v-1h0.5V340.9z M46.6,340.9h-0.5v-1h0.5V340.9z M45.6,340.9h-0.5v-1h0.5V340.9z M44.6,340.9h-0.5
							v-1h0.5V340.9z M43.6,340.9h-0.5v-1h0.5V340.9z M42.6,340.9h-0.5v-1h0.5V340.9z M41.6,340.9h-0.5v-1h0.5V340.9z M40.6,340.9
							h-0.5v-1h0.5V340.9z M39.6,340.9h-0.5v-1h0.5V340.9z M38.6,340.9h-0.5v-1h0.5V340.9z M37.6,340.9h-0.5v-1h0.5V340.9z
							 M36.6,340.9h-0.5v-1h0.5V340.9z M35.6,340.9h-0.5v-1h0.5V340.9z M34.6,340.9h-0.5v-1h0.5V340.9z M33.6,340.9h-0.5v-1h0.5
							V340.9z M32.6,340.9h-0.5v-1h0.5V340.9z M31.6,340.9h-0.5v-1h0.5V340.9z M30.6,340.9h-0.5v-1h0.5V340.9z M29.6,340.9h-0.5v-1
							h0.5V340.9z M28.6,340.9h-0.5v-1h0.5V340.9z M27.6,340.9h-0.5v-1h0.5V340.9z M26.6,340.9h-0.5v-1h0.5V340.9z M25.6,340.9h-0.5
							v-1h0.5V340.9z M24.6,340.9h-0.5v-1h0.5V340.9z M23.6,340.9h-0.5v-1h0.5V340.9z M22.6,340.9h-0.5v-1h0.5V340.9z M21.6,340.9
							h-0.5v-1h0.5V340.9z M20.6,340.9h-0.5v-1h0.5V340.9z M19.6,340.9h-0.5v-1h0.5V340.9z M18.6,340.9h-0.5v-1h0.5V340.9z
							 M17.6,340.9h-0.5v-1h0.5V340.9z M16.6,340.9h-0.5v-1h0.5V340.9z M15.6,340.9h-0.5v-1h0.5V340.9z M14.6,340.9h-0.5v-1h0.5
							V340.9z M13.6,340.9h-0.5v-1h0.5V340.9z M12.6,340.9h-0.5v-1h0.5V340.9z M11.6,340.9h-0.5v-1h0.5V340.9z M10.6,340.9h-0.5v-1
							h0.5V340.9z M9.6,340.9H9.1v-1h0.5V340.9z M8.6,340.9H8.1v-1h0.5V340.9z M7.6,340.9H7.1v-1h0.5V340.9z M6.6,340.9H6.1v-1h0.5
							V340.9z M5.6,340.9H5.1v-1h0.5V340.9z M4.6,340.9H4.1v-1h0.5V340.9z M3.6,340.9H3.1v-1h0.5V340.9z"/>
						<rect x="178.1" y="339.9" class="st12" width="0.2" height="1"/>
					</g>
				</g>
				<g>
					<g>
						<g>
							<rect x="87.7" y="224.5" class="st12" width="1" height="0.2"/>
							<path class="st12" d="M88.7,224h-1v-0.5h1V224z M88.7,223h-1v-0.5h1V223z M88.7,221.9h-1v-0.5h1V221.9z M88.7,220.9h-1v-0.5
								h1V220.9z M88.7,219.8h-1v-0.5h1V219.8z"/>
							<rect x="87.7" y="218.6" class="st12" width="1" height="0.2"/>
						</g>
					</g>
					<path class="st17" d="M88.2,224.8"/>
					<path class="st17" d="M88.2,227.5"/>
					<g>
						<g>
							<rect x="87.7" y="349.8" class="st12" width="1" height="0.2"/>
							<path class="st12" d="M88.7,349.2h-1v-0.5h1V349.2z M88.7,348.2h-1v-0.5h1V348.2z M88.7,347.2h-1v-0.5h1V347.2z M88.7,346.2
								h-1v-0.5h1V346.2z M88.7,345.2h-1v-0.5h1V345.2z M88.7,344.2h-1v-0.5h1V344.2z M88.7,343.2h-1v-0.5h1V343.2z M88.7,342.2h-1
								v-0.5h1V342.2z M88.7,341.2h-1v-0.5h1V341.2z M88.7,340.2h-1v-0.5h1V340.2z M88.7,339.2h-1v-0.5h1V339.2z M88.7,338.2h-1
								v-0.5h1V338.2z M88.7,337.2h-1v-0.5h1V337.2z M88.7,336.2h-1v-0.5h1V336.2z M88.7,335.2h-1v-0.5h1V335.2z M88.7,334.2h-1
								v-0.5h1V334.2z M88.7,333.2h-1v-0.5h1V333.2z M88.7,332.2h-1v-0.5h1V332.2z M88.7,331.2h-1v-0.5h1V331.2z M88.7,330.2h-1
								v-0.5h1V330.2z M88.7,329.2h-1v-0.5h1V329.2z M88.7,328.2h-1v-0.5h1V328.2z M88.7,327.2h-1v-0.5h1V327.2z M88.7,326.2h-1
								v-0.5h1V326.2z M88.7,325.2h-1v-0.5h1V325.2z M88.7,324.2h-1v-0.5h1V324.2z M88.7,323.2h-1v-0.5h1V323.2z M88.7,322.2h-1
								v-0.5h1V322.2z M88.7,321.2h-1v-0.5h1V321.2z M88.7,320.2h-1v-0.5h1V320.2z M88.7,319.2h-1v-0.5h1V319.2z M88.7,318.2h-1
								v-0.5h1V318.2z M88.7,317.2h-1v-0.5h1V317.2z M88.7,316.2h-1v-0.5h1V316.2z M88.7,315.2h-1v-0.5h1V315.2z M88.7,314.2h-1
								v-0.5h1V314.2z M88.7,313.2h-1v-0.5h1V313.2z M88.7,312.2h-1v-0.5h1V312.2z M88.7,311.2h-1v-0.5h1V311.2z M88.7,310.2h-1
								v-0.5h1V310.2z M88.7,309.2h-1v-0.5h1V309.2z M88.7,308.2h-1v-0.5h1V308.2z M88.7,307.2h-1v-0.5h1V307.2z M88.7,306.2h-1
								v-0.5h1V306.2z M88.7,305.2h-1v-0.5h1V305.2z M88.7,304.2h-1v-0.5h1V304.2z M88.7,303.2h-1v-0.5h1V303.2z M88.7,302.2h-1
								v-0.5h1V302.2z M88.7,301.2h-1v-0.5h1V301.2z M88.7,300.2h-1v-0.5h1V300.2z M88.7,299.2h-1v-0.5h1V299.2z M88.7,298.2h-1
								v-0.5h1V298.2z M88.7,297.2h-1v-0.5h1V297.2z M88.7,296.2h-1v-0.5h1V296.2z M88.7,295.2h-1v-0.5h1V295.2z M88.7,294.2h-1
								v-0.5h1V294.2z M88.7,293.2h-1v-0.5h1V293.2z M88.7,292.2h-1v-0.5h1V292.2z M88.7,291.2h-1v-0.5h1V291.2z M88.7,290.2h-1
								v-0.5h1V290.2z M88.7,289.2h-1v-0.5h1V289.2z M88.7,288.2h-1v-0.5h1V288.2z M88.7,287.2h-1v-0.5h1V287.2z M88.7,286.2h-1
								v-0.5h1V286.2z M88.7,285.2h-1v-0.5h1V285.2z M88.7,284.2h-1v-0.5h1V284.2z M88.7,283.2h-1v-0.5h1V283.2z M88.7,282.2h-1
								v-0.5h1V282.2z M88.7,281.2h-1v-0.5h1V281.2z M88.7,280.2h-1v-0.5h1V280.2z M88.7,279.2h-1v-0.5h1V279.2z M88.7,278.2h-1
								v-0.5h1V278.2z M88.7,277.2h-1v-0.5h1V277.2z M88.7,276.2h-1v-0.5h1V276.2z M88.7,275.2h-1v-0.5h1V275.2z M88.7,274.2h-1
								v-0.5h1V274.2z M88.7,273.2h-1v-0.5h1V273.2z M88.7,272.2h-1v-0.5h1V272.2z M88.7,271.2h-1v-0.5h1V271.2z M88.7,270.2h-1
								v-0.5h1V270.2z M88.7,269.2h-1v-0.5h1V269.2z M88.7,268.2h-1v-0.5h1V268.2z M88.7,267.2h-1v-0.5h1V267.2z M88.7,266.2h-1
								v-0.5h1V266.2z M88.7,265.2h-1v-0.5h1V265.2z M88.7,264.2h-1v-0.5h1V264.2z M88.7,263.2h-1v-0.5h1V263.2z M88.7,262.2h-1
								v-0.5h1V262.2z M88.7,261.2h-1v-0.5h1V261.2z M88.7,260.2h-1v-0.5h1V260.2z M88.7,259.2h-1v-0.5h1V259.2z M88.7,258.2h-1
								v-0.5h1V258.2z M88.7,257.2h-1v-0.5h1V257.2z M88.7,256.2h-1v-0.5h1V256.2z M88.7,255.2h-1v-0.5h1V255.2z M88.7,254.2h-1
								v-0.5h1V254.2z M88.7,253.2h-1v-0.5h1V253.2z M88.7,252.2h-1v-0.5h1V252.2z M88.7,251.2h-1v-0.5h1V251.2z M88.7,250.2h-1
								v-0.5h1V250.2z M88.7,249.2h-1v-0.5h1V249.2z M88.7,248.2h-1v-0.5h1V248.2z M88.7,247.2h-1v-0.5h1V247.2z M88.7,246.2h-1
								v-0.5h1V246.2z M88.7,245.2h-1v-0.5h1V245.2z M88.7,244.2h-1v-0.5h1V244.2z M88.7,243.2h-1v-0.5h1V243.2z"/>
							<rect x="87.7" y="242.4" class="st12" width="1" height="0.2"/>
						</g>
					</g>
					<g>
						<g>
							<rect x="138.8" y="349.8" class="st12" width="1" height="0.2"/>
							<path class="st12" d="M139.8,349.2h-1v-0.5h1V349.2z M139.8,348.2h-1v-0.5h1V348.2z M139.8,347.2h-1v-0.5h1V347.2z
								 M139.8,346.2h-1v-0.5h1V346.2z M139.8,345.2h-1v-0.5h1V345.2z M139.8,344.2h-1v-0.5h1V344.2z M139.8,343.2h-1v-0.5h1V343.2z
								 M139.8,342.2h-1v-0.5h1V342.2z M139.8,341.2h-1v-0.5h1V341.2z M139.8,340.2h-1v-0.5h1V340.2z M139.8,339.2h-1v-0.5h1V339.2z
								 M139.8,338.2h-1v-0.5h1V338.2z M139.8,337.2h-1v-0.5h1V337.2z M139.8,336.2h-1v-0.5h1V336.2z M139.8,335.2h-1v-0.5h1V335.2z
								 M139.8,334.2h-1v-0.5h1V334.2z M139.8,333.2h-1v-0.5h1V333.2z M139.8,332.2h-1v-0.5h1V332.2z M139.8,331.2h-1v-0.5h1V331.2z
								 M139.8,330.2h-1v-0.5h1V330.2z M139.8,329.2h-1v-0.5h1V329.2z M139.8,328.2h-1v-0.5h1V328.2z M139.8,327.2h-1v-0.5h1V327.2z
								 M139.8,326.2h-1v-0.5h1V326.2z M139.8,325.2h-1v-0.5h1V325.2z M139.8,324.2h-1v-0.5h1V324.2z M139.8,323.2h-1v-0.5h1V323.2z
								 M139.8,322.2h-1v-0.5h1V322.2z M139.8,321.2h-1v-0.5h1V321.2z M139.8,320.2h-1v-0.5h1V320.2z M139.8,319.2h-1v-0.5h1V319.2z
								 M139.8,318.2h-1v-0.5h1V318.2z M139.8,317.2h-1v-0.5h1V317.2z M139.8,316.2h-1v-0.5h1V316.2z M139.8,315.2h-1v-0.5h1V315.2z
								 M139.8,314.2h-1v-0.5h1V314.2z M139.8,313.2h-1v-0.5h1V313.2z M139.8,312.2h-1v-0.5h1V312.2z M139.8,311.2h-1v-0.5h1V311.2z
								 M139.8,310.2h-1v-0.5h1V310.2z M139.8,309.2h-1v-0.5h1V309.2z M139.8,308.2h-1v-0.5h1V308.2z M139.8,307.2h-1v-0.5h1V307.2z
								 M139.8,306.2h-1v-0.5h1V306.2z M139.8,305.2h-1v-0.5h1V305.2z M139.8,304.2h-1v-0.5h1V304.2z M139.8,303.2h-1v-0.5h1V303.2z
								 M139.8,302.2h-1v-0.5h1V302.2z M139.8,301.2h-1v-0.5h1V301.2z M139.8,300.2h-1v-0.5h1V300.2z M139.8,299.2h-1v-0.5h1V299.2z
								 M139.8,298.2h-1v-0.5h1V298.2z M139.8,297.2h-1v-0.5h1V297.2z M139.8,296.2h-1v-0.5h1V296.2z M139.8,295.2h-1v-0.5h1V295.2z
								 M139.8,294.2h-1v-0.5h1V294.2z M139.8,293.2h-1v-0.5h1V293.2z M139.8,292.2h-1v-0.5h1V292.2z M139.8,291.2h-1v-0.5h1V291.2z
								 M139.8,290.2h-1v-0.5h1V290.2z M139.8,289.2h-1v-0.5h1V289.2z M139.8,288.2h-1v-0.5h1V288.2z M139.8,287.2h-1v-0.5h1V287.2z
								 M139.8,286.2h-1v-0.5h1V286.2z M139.8,285.2h-1v-0.5h1V285.2z M139.8,284.2h-1v-0.5h1V284.2z M139.8,283.2h-1v-0.5h1V283.2z
								 M139.8,282.2h-1v-0.5h1V282.2z M139.8,281.2h-1v-0.5h1V281.2z M139.8,280.2h-1v-0.5h1V280.2z M139.8,279.2h-1v-0.5h1V279.2z
								 M139.8,278.2h-1v-0.5h1V278.2z M139.8,277.2h-1v-0.5h1V277.2z M139.8,276.2h-1v-0.5h1V276.2z M139.8,275.2h-1v-0.5h1V275.2z
								 M139.8,274.2h-1v-0.5h1V274.2z M139.8,273.2h-1v-0.5h1V273.2z M139.8,272.2h-1v-0.5h1V272.2z M139.8,271.2h-1v-0.5h1V271.2z
								 M139.8,270.2h-1v-0.5h1V270.2z M139.8,269.2h-1v-0.5h1V269.2z M139.8,268.2h-1v-0.5h1V268.2z M139.8,267.2h-1v-0.5h1V267.2z
								 M139.8,266.2h-1v-0.5h1V266.2z M139.8,265.2h-1v-0.5h1V265.2z M139.8,264.2h-1v-0.5h1V264.2z M139.8,263.2h-1v-0.5h1V263.2z
								 M139.8,262.2h-1v-0.5h1V262.2z M139.8,261.2h-1v-0.5h1V261.2z M139.8,260.2h-1v-0.5h1V260.2z M139.8,259.2h-1v-0.5h1V259.2z
								 M139.8,258.2h-1v-0.5h1V258.2z M139.8,257.2h-1v-0.5h1V257.2z M139.8,256.2h-1v-0.5h1V256.2z M139.8,255.2h-1v-0.5h1V255.2z
								 M139.8,254.2h-1v-0.5h1V254.2z M139.8,253.2h-1v-0.5h1V253.2z M139.8,252.2h-1v-0.5h1V252.2z M139.8,251.2h-1v-0.5h1V251.2z
								 M139.8,250.2h-1v-0.5h1V250.2z M139.8,249.2h-1v-0.5h1V249.2z M139.8,248.2h-1v-0.5h1V248.2z M139.8,247.2h-1v-0.5h1V247.2z
								 M139.8,246.2h-1v-0.5h1V246.2z M139.8,245.2h-1v-0.5h1V245.2z M139.8,244.2h-1v-0.5h1V244.2z M139.8,243.2h-1v-0.5h1V243.2z
								 M139.8,242.2h-1v-0.5h1V242.2z M139.8,241.2h-1v-0.5h1V241.2z M139.8,240.2h-1v-0.5h1V240.2z M139.8,239.2h-1v-0.5h1V239.2z
								 M139.8,238.2h-1v-0.5h1V238.2z"/>
							<rect x="138.8" y="237.5" class="st12" width="1" height="0.2"/>
						</g>
					</g>
					<g>
						<g>
							<rect x="14.9" y="288.5" class="st12" width="0.2" height="1"/>
							<path class="st12" d="M177.6,289.5h-0.5v-1h0.5V289.5z M176.6,289.5h-0.5v-1h0.5V289.5z M175.6,289.5h-0.5v-1h0.5V289.5z
								 M174.6,289.5h-0.5v-1h0.5V289.5z M173.6,289.5h-0.5v-1h0.5V289.5z M172.6,289.5h-0.5v-1h0.5V289.5z M171.6,289.5h-0.5v-1
								h0.5V289.5z M170.6,289.5h-0.5v-1h0.5V289.5z M169.6,289.5h-0.5v-1h0.5V289.5z M168.6,289.5h-0.5v-1h0.5V289.5z M167.6,289.5
								h-0.5v-1h0.5V289.5z M166.6,289.5h-0.5v-1h0.5V289.5z M165.6,289.5h-0.5v-1h0.5V289.5z M164.6,289.5h-0.5v-1h0.5V289.5z
								 M163.6,289.5h-0.5v-1h0.5V289.5z M162.6,289.5h-0.5v-1h0.5V289.5z M161.6,289.5h-0.5v-1h0.5V289.5z M160.6,289.5h-0.5v-1
								h0.5V289.5z M159.6,289.5h-0.5v-1h0.5V289.5z M158.6,289.5h-0.5v-1h0.5V289.5z M157.6,289.5h-0.5v-1h0.5V289.5z M156.6,289.5
								h-0.5v-1h0.5V289.5z M155.6,289.5h-0.5v-1h0.5V289.5z M154.6,289.5h-0.5v-1h0.5V289.5z M153.6,289.5h-0.5v-1h0.5V289.5z
								 M152.6,289.5h-0.5v-1h0.5V289.5z M151.6,289.5h-0.5v-1h0.5V289.5z M150.6,289.5h-0.5v-1h0.5V289.5z M149.6,289.5h-0.5v-1
								h0.5V289.5z M148.6,289.5h-0.5v-1h0.5V289.5z M147.6,289.5h-0.5v-1h0.5V289.5z M146.6,289.5h-0.5v-1h0.5V289.5z M145.6,289.5
								h-0.5v-1h0.5V289.5z M144.6,289.5h-0.5v-1h0.5V289.5z M143.6,289.5h-0.5v-1h0.5V289.5z M142.6,289.5h-0.5v-1h0.5V289.5z
								 M141.6,289.5h-0.5v-1h0.5V289.5z M140.6,289.5h-0.5v-1h0.5V289.5z M139.6,289.5h-0.5v-1h0.5V289.5z M138.6,289.5h-0.5v-1
								h0.5V289.5z M137.6,289.5h-0.5v-1h0.5V289.5z M136.6,289.5h-0.5v-1h0.5V289.5z M135.6,289.5h-0.5v-1h0.5V289.5z M134.6,289.5
								h-0.5v-1h0.5V289.5z M133.6,289.5h-0.5v-1h0.5V289.5z M132.6,289.5h-0.5v-1h0.5V289.5z M131.6,289.5h-0.5v-1h0.5V289.5z
								 M130.6,289.5h-0.5v-1h0.5V289.5z M129.6,289.5h-0.5v-1h0.5V289.5z M128.6,289.5h-0.5v-1h0.5V289.5z M127.6,289.5h-0.5v-1
								h0.5V289.5z M126.6,289.5h-0.5v-1h0.5V289.5z M125.6,289.5h-0.5v-1h0.5V289.5z M124.6,289.5h-0.5v-1h0.5V289.5z M123.6,289.5
								h-0.5v-1h0.5V289.5z M122.6,289.5h-0.5v-1h0.5V289.5z M121.6,289.5h-0.5v-1h0.5V289.5z M120.6,289.5h-0.5v-1h0.5V289.5z
								 M119.6,289.5h-0.5v-1h0.5V289.5z M118.6,289.5h-0.5v-1h0.5V289.5z M117.6,289.5h-0.5v-1h0.5V289.5z M116.6,289.5h-0.5v-1
								h0.5V289.5z M115.6,289.5h-0.5v-1h0.5V289.5z M114.6,289.5h-0.5v-1h0.5V289.5z M113.6,289.5h-0.5v-1h0.5V289.5z M112.6,289.5
								h-0.5v-1h0.5V289.5z M111.6,289.5h-0.5v-1h0.5V289.5z M110.6,289.5h-0.5v-1h0.5V289.5z M109.6,289.5h-0.5v-1h0.5V289.5z
								 M108.6,289.5h-0.5v-1h0.5V289.5z M107.6,289.5h-0.5v-1h0.5V289.5z M106.6,289.5h-0.5v-1h0.5V289.5z M105.6,289.5h-0.5v-1
								h0.5V289.5z M104.6,289.5h-0.5v-1h0.5V289.5z M103.6,289.5h-0.5v-1h0.5V289.5z M102.6,289.5h-0.5v-1h0.5V289.5z M101.6,289.5
								h-0.5v-1h0.5V289.5z M100.6,289.5h-0.5v-1h0.5V289.5z M99.6,289.5h-0.5v-1h0.5V289.5z M98.6,289.5h-0.5v-1h0.5V289.5z
								 M97.6,289.5h-0.5v-1h0.5V289.5z M96.6,289.5h-0.5v-1h0.5V289.5z M95.6,289.5h-0.5v-1h0.5V289.5z M94.6,289.5h-0.5v-1h0.5
								V289.5z M93.6,289.5h-0.5v-1h0.5V289.5z M92.6,289.5h-0.5v-1h0.5V289.5z M91.6,289.5h-0.5v-1h0.5V289.5z M90.6,289.5h-0.5v-1
								h0.5V289.5z M89.6,289.5h-0.5v-1h0.5V289.5z M88.6,289.5h-0.5v-1h0.5V289.5z M87.6,289.5h-0.5v-1h0.5V289.5z M86.6,289.5
								h-0.5v-1h0.5V289.5z M85.6,289.5h-0.5v-1h0.5V289.5z M84.6,289.5h-0.5v-1h0.5V289.5z M83.6,289.5h-0.5v-1h0.5V289.5z
								 M82.6,289.5h-0.5v-1h0.5V289.5z M81.6,289.5h-0.5v-1h0.5V289.5z M80.6,289.5h-0.5v-1h0.5V289.5z M79.6,289.5h-0.5v-1h0.5
								V289.5z M78.6,289.5h-0.5v-1h0.5V289.5z M77.6,289.5h-0.5v-1h0.5V289.5z M76.6,289.5h-0.5v-1h0.5V289.5z M75.6,289.5h-0.5v-1
								h0.5V289.5z M74.6,289.5h-0.5v-1h0.5V289.5z M73.6,289.5h-0.5v-1h0.5V289.5z M72.6,289.5h-0.5v-1h0.5V289.5z M71.6,289.5
								h-0.5v-1h0.5V289.5z M70.6,289.5h-0.5v-1h0.5V289.5z M69.6,289.5h-0.5v-1h0.5V289.5z M68.6,289.5h-0.5v-1h0.5V289.5z
								 M67.6,289.5h-0.5v-1h0.5V289.5z M66.6,289.5h-0.5v-1h0.5V289.5z M65.6,289.5h-0.5v-1h0.5V289.5z M64.6,289.5h-0.5v-1h0.5
								V289.5z M63.6,289.5h-0.5v-1h0.5V289.5z M62.6,289.5h-0.5v-1h0.5V289.5z M61.6,289.5h-0.5v-1h0.5V289.5z M60.6,289.5h-0.5v-1
								h0.5V289.5z M59.6,289.5h-0.5v-1h0.5V289.5z M58.6,289.5h-0.5v-1h0.5V289.5z M57.6,289.5h-0.5v-1h0.5V289.5z M56.6,289.5
								h-0.5v-1h0.5V289.5z M55.6,289.5h-0.5v-1h0.5V289.5z M54.6,289.5h-0.5v-1h0.5V289.5z M53.6,289.5h-0.5v-1h0.5V289.5z
								 M52.6,289.5h-0.5v-1h0.5V289.5z M51.6,289.5h-0.5v-1h0.5V289.5z M50.6,289.5h-0.5v-1h0.5V289.5z M49.6,289.5h-0.5v-1h0.5
								V289.5z M48.6,289.5h-0.5v-1h0.5V289.5z M47.6,289.5h-0.5v-1h0.5V289.5z M46.6,289.5h-0.5v-1h0.5V289.5z M45.6,289.5h-0.5v-1
								h0.5V289.5z M44.6,289.5h-0.5v-1h0.5V289.5z M43.6,289.5h-0.5v-1h0.5V289.5z M42.6,289.5h-0.5v-1h0.5V289.5z M41.6,289.5
								h-0.5v-1h0.5V289.5z M40.6,289.5h-0.5v-1h0.5V289.5z M39.6,289.5h-0.5v-1h0.5V289.5z M38.6,289.5h-0.5v-1h0.5V289.5z
								 M37.6,289.5h-0.5v-1h0.5V289.5z M36.6,289.5h-0.5v-1h0.5V289.5z M35.6,289.5h-0.5v-1h0.5V289.5z M34.6,289.5h-0.5v-1h0.5
								V289.5z M33.6,289.5h-0.5v-1h0.5V289.5z M32.6,289.5h-0.5v-1h0.5V289.5z M31.6,289.5h-0.5v-1h0.5V289.5z M30.6,289.5h-0.5v-1
								h0.5V289.5z M29.6,289.5h-0.5v-1h0.5V289.5z M28.6,289.5h-0.5v-1h0.5V289.5z M27.6,289.5h-0.5v-1h0.5V289.5z M26.6,289.5
								h-0.5v-1h0.5V289.5z M25.6,289.5h-0.5v-1h0.5V289.5z M24.6,289.5h-0.5v-1h0.5V289.5z M23.6,289.5h-0.5v-1h0.5V289.5z
								 M22.6,289.5h-0.5v-1h0.5V289.5z M21.6,289.5h-0.5v-1h0.5V289.5z M20.6,289.5h-0.5v-1h0.5V289.5z M19.6,289.5h-0.5v-1h0.5
								V289.5z M18.6,289.5h-0.5v-1h0.5V289.5z M17.6,289.5h-0.5v-1h0.5V289.5z M16.6,289.5h-0.5v-1h0.5V289.5z"/>
							<rect x="178.1" y="288.5" class="st12" width="0.2" height="1"/>
						</g>
					</g>
					<g>
						<g>
							<rect x="262.5" y="225.3" class="st12" width="1" height="0.2"/>
							<path class="st12" d="M263.5,224.8h-1v-0.5h1V224.8z M263.5,223.8h-1v-0.5h1V223.8z M263.5,222.8h-1v-0.5h1V222.8z
								 M263.5,221.8h-1v-0.5h1V221.8z M263.5,220.8h-1v-0.5h1V220.8z M263.5,219.8h-1v-0.5h1V219.8z"/>
							<rect x="262.5" y="218.6" class="st12" width="1" height="0.2"/>
						</g>
					</g>
					<g>
						<g>
							<rect x="262.5" y="349.8" class="st12" width="1" height="0.2"/>
							<path class="st12" d="M263.5,349.2h-1v-0.5h1V349.2z M263.5,348.2h-1v-0.5h1V348.2z M263.5,347.2h-1v-0.5h1V347.2z
								 M263.5,346.2h-1v-0.5h1V346.2z M263.5,345.2h-1v-0.5h1V345.2z M263.5,344.2h-1v-0.5h1V344.2z M263.5,343.2h-1v-0.5h1V343.2z
								 M263.5,342.2h-1v-0.5h1V342.2z M263.5,341.2h-1v-0.5h1V341.2z M263.5,340.2h-1v-0.5h1V340.2z M263.5,339.2h-1v-0.5h1V339.2z
								 M263.5,338.2h-1v-0.5h1V338.2z M263.5,337.2h-1v-0.5h1V337.2z M263.5,336.2h-1v-0.5h1V336.2z M263.5,335.2h-1v-0.5h1V335.2z
								 M263.5,334.2h-1v-0.5h1V334.2z M263.5,333.2h-1v-0.5h1V333.2z M263.5,332.2h-1v-0.5h1V332.2z M263.5,331.2h-1v-0.5h1V331.2z
								 M263.5,330.2h-1v-0.5h1V330.2z M263.5,329.2h-1v-0.5h1V329.2z M263.5,328.2h-1v-0.5h1V328.2z M263.5,327.2h-1v-0.5h1V327.2z
								 M263.5,326.2h-1v-0.5h1V326.2z M263.5,325.2h-1v-0.5h1V325.2z M263.5,324.2h-1v-0.5h1V324.2z M263.5,323.2h-1v-0.5h1V323.2z
								 M263.5,322.2h-1v-0.5h1V322.2z M263.5,321.2h-1v-0.5h1V321.2z M263.5,320.2h-1v-0.5h1V320.2z M263.5,319.2h-1v-0.5h1V319.2z
								 M263.5,318.2h-1v-0.5h1V318.2z M263.5,317.2h-1v-0.5h1V317.2z M263.5,316.2h-1v-0.5h1V316.2z M263.5,315.2h-1v-0.5h1V315.2z
								 M263.5,314.2h-1v-0.5h1V314.2z M263.5,313.2h-1v-0.5h1V313.2z M263.5,312.2h-1v-0.5h1V312.2z M263.5,311.2h-1v-0.5h1V311.2z
								 M263.5,310.2h-1v-0.5h1V310.2z M263.5,309.2h-1v-0.5h1V309.2z M263.5,308.2h-1v-0.5h1V308.2z M263.5,307.2h-1v-0.5h1V307.2z
								 M263.5,306.2h-1v-0.5h1V306.2z M263.5,305.2h-1v-0.5h1V305.2z M263.5,304.2h-1v-0.5h1V304.2z M263.5,303.2h-1v-0.5h1V303.2z
								 M263.5,302.2h-1v-0.5h1V302.2z M263.5,301.2h-1v-0.5h1V301.2z M263.5,300.2h-1v-0.5h1V300.2z M263.5,299.2h-1v-0.5h1V299.2z
								 M263.5,298.2h-1v-0.5h1V298.2z M263.5,297.2h-1v-0.5h1V297.2z M263.5,296.2h-1v-0.5h1V296.2z M263.5,295.2h-1v-0.5h1V295.2z
								 M263.5,294.2h-1v-0.5h1V294.2z M263.5,293.2h-1v-0.5h1V293.2z M263.5,292.2h-1v-0.5h1V292.2z M263.5,291.2h-1v-0.5h1V291.2z
								 M263.5,290.2h-1v-0.5h1V290.2z M263.5,289.2h-1v-0.5h1V289.2z M263.5,288.2h-1v-0.5h1V288.2z M263.5,287.2h-1v-0.5h1V287.2z
								 M263.5,286.2h-1v-0.5h1V286.2z M263.5,285.2h-1v-0.5h1V285.2z M263.5,284.2h-1v-0.5h1V284.2z M263.5,283.2h-1v-0.5h1V283.2z
								 M263.5,282.2h-1v-0.5h1V282.2z M263.5,281.2h-1v-0.5h1V281.2z M263.5,280.2h-1v-0.5h1V280.2z M263.5,279.2h-1v-0.5h1V279.2z
								 M263.5,278.2h-1v-0.5h1V278.2z M263.5,277.2h-1v-0.5h1V277.2z M263.5,276.2h-1v-0.5h1V276.2z M263.5,275.2h-1v-0.5h1V275.2z
								 M263.5,274.2h-1v-0.5h1V274.2z M263.5,273.2h-1v-0.5h1V273.2z M263.5,272.2h-1v-0.5h1V272.2z M263.5,271.2h-1v-0.5h1V271.2z
								 M263.5,270.2h-1v-0.5h1V270.2z M263.5,269.2h-1v-0.5h1V269.2z M263.5,268.2h-1v-0.5h1V268.2z M263.5,267.2h-1v-0.5h1V267.2z
								 M263.5,266.2h-1v-0.5h1V266.2z M263.5,265.2h-1v-0.5h1V265.2z M263.5,264.2h-1v-0.5h1V264.2z M263.5,263.2h-1v-0.5h1V263.2z
								 M263.5,262.2h-1v-0.5h1V262.2z M263.5,261.2h-1v-0.5h1V261.2z M263.5,260.2h-1v-0.5h1V260.2z M263.5,259.2h-1v-0.5h1V259.2z
								 M263.5,258.2h-1v-0.5h1V258.2z M263.5,257.2h-1v-0.5h1V257.2z M263.5,256.2h-1v-0.5h1V256.2z M263.5,255.2h-1v-0.5h1V255.2z
								 M263.5,254.2h-1v-0.5h1V254.2z M263.5,253.2h-1v-0.5h1V253.2z M263.5,252.2h-1v-0.5h1V252.2z M263.5,251.2h-1v-0.5h1V251.2z
								 M263.5,250.2h-1v-0.5h1V250.2z M263.5,249.2h-1v-0.5h1V249.2z M263.5,248.2h-1v-0.5h1V248.2z M263.5,247.2h-1v-0.5h1V247.2z
								 M263.5,246.2h-1v-0.5h1V246.2z M263.5,245.2h-1v-0.5h1V245.2z M263.5,244.2h-1v-0.5h1V244.2z M263.5,243.2h-1v-0.5h1V243.2z
								"/>
							<rect x="262.5" y="242.5" class="st12" width="1" height="0.2"/>
						</g>
					</g>
					<path class="st17" d="M212,217"/>
					<g>
						<line class="st18" x1="212" y1="350" x2="212" y2="237.5"/>
						<g>
							<rect x="211.5" y="349.8" class="st12" width="1" height="0.2"/>
							<path class="st12" d="M212.5,349.2h-1v-0.5h1V349.2z M212.5,348.2h-1v-0.5h1V348.2z M212.5,347.2h-1v-0.5h1V347.2z
								 M212.5,346.2h-1v-0.5h1V346.2z M212.5,345.2h-1v-0.5h1V345.2z M212.5,344.2h-1v-0.5h1V344.2z M212.5,343.2h-1v-0.5h1V343.2z
								 M212.5,342.2h-1v-0.5h1V342.2z M212.5,341.2h-1v-0.5h1V341.2z M212.5,340.2h-1v-0.5h1V340.2z M212.5,339.2h-1v-0.5h1V339.2z
								 M212.5,338.2h-1v-0.5h1V338.2z M212.5,337.2h-1v-0.5h1V337.2z M212.5,336.2h-1v-0.5h1V336.2z M212.5,335.2h-1v-0.5h1V335.2z
								 M212.5,334.2h-1v-0.5h1V334.2z M212.5,333.2h-1v-0.5h1V333.2z M212.5,332.2h-1v-0.5h1V332.2z M212.5,331.2h-1v-0.5h1V331.2z
								 M212.5,330.2h-1v-0.5h1V330.2z M212.5,329.2h-1v-0.5h1V329.2z M212.5,328.2h-1v-0.5h1V328.2z M212.5,327.2h-1v-0.5h1V327.2z
								 M212.5,326.2h-1v-0.5h1V326.2z M212.5,325.2h-1v-0.5h1V325.2z M212.5,324.2h-1v-0.5h1V324.2z M212.5,323.2h-1v-0.5h1V323.2z
								 M212.5,322.2h-1v-0.5h1V322.2z M212.5,321.2h-1v-0.5h1V321.2z M212.5,320.2h-1v-0.5h1V320.2z M212.5,319.2h-1v-0.5h1V319.2z
								 M212.5,318.2h-1v-0.5h1V318.2z M212.5,317.2h-1v-0.5h1V317.2z M212.5,316.2h-1v-0.5h1V316.2z M212.5,315.2h-1v-0.5h1V315.2z
								 M212.5,314.2h-1v-0.5h1V314.2z M212.5,313.2h-1v-0.5h1V313.2z M212.5,312.2h-1v-0.5h1V312.2z M212.5,311.2h-1v-0.5h1V311.2z
								 M212.5,310.2h-1v-0.5h1V310.2z M212.5,309.2h-1v-0.5h1V309.2z M212.5,308.2h-1v-0.5h1V308.2z M212.5,307.2h-1v-0.5h1V307.2z
								 M212.5,306.2h-1v-0.5h1V306.2z M212.5,305.2h-1v-0.5h1V305.2z M212.5,304.2h-1v-0.5h1V304.2z M212.5,303.2h-1v-0.5h1V303.2z
								 M212.5,302.2h-1v-0.5h1V302.2z M212.5,301.2h-1v-0.5h1V301.2z M212.5,300.2h-1v-0.5h1V300.2z M212.5,299.2h-1v-0.5h1V299.2z
								 M212.5,298.2h-1v-0.5h1V298.2z M212.5,297.2h-1v-0.5h1V297.2z M212.5,296.2h-1v-0.5h1V296.2z M212.5,295.2h-1v-0.5h1V295.2z
								 M212.5,294.2h-1v-0.5h1V294.2z M212.5,293.2h-1v-0.5h1V293.2z M212.5,292.2h-1v-0.5h1V292.2z M212.5,291.2h-1v-0.5h1V291.2z
								 M212.5,290.2h-1v-0.5h1V290.2z M212.5,289.2h-1v-0.5h1V289.2z M212.5,288.2h-1v-0.5h1V288.2z M212.5,287.2h-1v-0.5h1V287.2z
								 M212.5,286.2h-1v-0.5h1V286.2z M212.5,285.2h-1v-0.5h1V285.2z M212.5,284.2h-1v-0.5h1V284.2z M212.5,283.2h-1v-0.5h1V283.2z
								 M212.5,282.2h-1v-0.5h1V282.2z M212.5,281.2h-1v-0.5h1V281.2z M212.5,280.2h-1v-0.5h1V280.2z M212.5,279.2h-1v-0.5h1V279.2z
								 M212.5,278.2h-1v-0.5h1V278.2z M212.5,277.2h-1v-0.5h1V277.2z M212.5,276.2h-1v-0.5h1V276.2z M212.5,275.2h-1v-0.5h1V275.2z
								 M212.5,274.2h-1v-0.5h1V274.2z M212.5,273.2h-1v-0.5h1V273.2z M212.5,272.2h-1v-0.5h1V272.2z M212.5,271.2h-1v-0.5h1V271.2z
								 M212.5,270.2h-1v-0.5h1V270.2z M212.5,269.2h-1v-0.5h1V269.2z M212.5,268.2h-1v-0.5h1V268.2z M212.5,267.2h-1v-0.5h1V267.2z
								 M212.5,266.2h-1v-0.5h1V266.2z M212.5,265.2h-1v-0.5h1V265.2z M212.5,264.2h-1v-0.5h1V264.2z M212.5,263.2h-1v-0.5h1V263.2z
								 M212.5,262.2h-1v-0.5h1V262.2z M212.5,261.2h-1v-0.5h1V261.2z M212.5,260.2h-1v-0.5h1V260.2z M212.5,259.2h-1v-0.5h1V259.2z
								 M212.5,258.2h-1v-0.5h1V258.2z M212.5,257.2h-1v-0.5h1V257.2z M212.5,256.2h-1v-0.5h1V256.2z M212.5,255.2h-1v-0.5h1V255.2z
								 M212.5,254.2h-1v-0.5h1V254.2z M212.5,253.2h-1v-0.5h1V253.2z M212.5,252.2h-1v-0.5h1V252.2z M212.5,251.2h-1v-0.5h1V251.2z
								 M212.5,250.2h-1v-0.5h1V250.2z M212.5,249.2h-1v-0.5h1V249.2z M212.5,248.2h-1v-0.5h1V248.2z M212.5,247.2h-1v-0.5h1V247.2z
								 M212.5,246.2h-1v-0.5h1V246.2z M212.5,245.2h-1v-0.5h1V245.2z M212.5,244.2h-1v-0.5h1V244.2z M212.5,243.2h-1v-0.5h1V243.2z
								 M212.5,242.2h-1v-0.5h1V242.2z M212.5,241.2h-1v-0.5h1V241.2z M212.5,240.2h-1v-0.5h1V240.2z M212.5,239.2h-1v-0.5h1V239.2z
								 M212.5,238.2h-1v-0.5h1V238.2z"/>
							<rect x="211.5" y="237.5" class="st12" width="1" height="0.2"/>
						</g>
					</g>
					<g>
						<line class="st18" x1="348.5" y1="340.4" x2="172.9" y2="340.4"/>
						<g>
							<rect x="348.2" y="339.9" class="st12" width="0.2" height="1"/>
							<path class="st12" d="M347.7,340.9h-0.5v-1h0.5V340.9z M346.7,340.9h-0.5v-1h0.5V340.9z M345.7,340.9h-0.5v-1h0.5V340.9z
								 M344.7,340.9h-0.5v-1h0.5V340.9z M343.7,340.9h-0.5v-1h0.5V340.9z M342.7,340.9h-0.5v-1h0.5V340.9z M341.7,340.9h-0.5v-1
								h0.5V340.9z M340.7,340.9h-0.5v-1h0.5V340.9z M339.7,340.9h-0.5v-1h0.5V340.9z M338.7,340.9h-0.5v-1h0.5V340.9z M337.7,340.9
								h-0.5v-1h0.5V340.9z M336.7,340.9h-0.5v-1h0.5V340.9z M335.7,340.9h-0.5v-1h0.5V340.9z M334.7,340.9h-0.5v-1h0.5V340.9z
								 M333.7,340.9h-0.5v-1h0.5V340.9z M332.7,340.9h-0.5v-1h0.5V340.9z M331.7,340.9h-0.5v-1h0.5V340.9z M330.7,340.9h-0.5v-1
								h0.5V340.9z M329.7,340.9h-0.5v-1h0.5V340.9z M328.7,340.9h-0.5v-1h0.5V340.9z M327.7,340.9h-0.5v-1h0.5V340.9z M326.7,340.9
								h-0.5v-1h0.5V340.9z M325.7,340.9h-0.5v-1h0.5V340.9z M324.7,340.9h-0.5v-1h0.5V340.9z M323.7,340.9h-0.5v-1h0.5V340.9z
								 M322.7,340.9h-0.5v-1h0.5V340.9z M321.7,340.9h-0.5v-1h0.5V340.9z M320.7,340.9h-0.5v-1h0.5V340.9z M319.7,340.9h-0.5v-1
								h0.5V340.9z M318.7,340.9h-0.5v-1h0.5V340.9z M317.7,340.9h-0.5v-1h0.5V340.9z M316.7,340.9h-0.5v-1h0.5V340.9z M315.7,340.9
								h-0.5v-1h0.5V340.9z M314.7,340.9h-0.5v-1h0.5V340.9z M313.7,340.9h-0.5v-1h0.5V340.9z M312.7,340.9h-0.5v-1h0.5V340.9z
								 M311.7,340.9h-0.5v-1h0.5V340.9z M310.7,340.9h-0.5v-1h0.5V340.9z M309.7,340.9h-0.5v-1h0.5V340.9z M308.7,340.9h-0.5v-1
								h0.5V340.9z M307.7,340.9h-0.5v-1h0.5V340.9z M306.7,340.9h-0.5v-1h0.5V340.9z M305.7,340.9h-0.5v-1h0.5V340.9z M304.7,340.9
								h-0.5v-1h0.5V340.9z M303.7,340.9h-0.5v-1h0.5V340.9z M302.7,340.9h-0.5v-1h0.5V340.9z M301.7,340.9h-0.5v-1h0.5V340.9z
								 M300.7,340.9h-0.5v-1h0.5V340.9z M299.7,340.9h-0.5v-1h0.5V340.9z M298.7,340.9h-0.5v-1h0.5V340.9z M297.7,340.9h-0.5v-1
								h0.5V340.9z M296.7,340.9h-0.5v-1h0.5V340.9z M295.7,340.9h-0.5v-1h0.5V340.9z M294.7,340.9h-0.5v-1h0.5V340.9z M293.7,340.9
								h-0.5v-1h0.5V340.9z M292.7,340.9h-0.5v-1h0.5V340.9z M291.7,340.9h-0.5v-1h0.5V340.9z M290.7,340.9h-0.5v-1h0.5V340.9z
								 M289.7,340.9h-0.5v-1h0.5V340.9z M288.7,340.9h-0.5v-1h0.5V340.9z M287.7,340.9h-0.5v-1h0.5V340.9z M286.7,340.9h-0.5v-1
								h0.5V340.9z M285.7,340.9h-0.5v-1h0.5V340.9z M284.7,340.9h-0.5v-1h0.5V340.9z M283.7,340.9h-0.5v-1h0.5V340.9z M282.7,340.9
								h-0.5v-1h0.5V340.9z M281.7,340.9h-0.5v-1h0.5V340.9z M280.7,340.9h-0.5v-1h0.5V340.9z M279.7,340.9h-0.5v-1h0.5V340.9z
								 M278.7,340.9h-0.5v-1h0.5V340.9z M277.7,340.9h-0.5v-1h0.5V340.9z M276.7,340.9h-0.5v-1h0.5V340.9z M275.7,340.9h-0.5v-1
								h0.5V340.9z M274.7,340.9h-0.5v-1h0.5V340.9z M273.7,340.9h-0.5v-1h0.5V340.9z M272.7,340.9h-0.5v-1h0.5V340.9z M271.7,340.9
								h-0.5v-1h0.5V340.9z M270.7,340.9h-0.5v-1h0.5V340.9z M269.7,340.9h-0.5v-1h0.5V340.9z M268.7,340.9h-0.5v-1h0.5V340.9z
								 M267.7,340.9h-0.5v-1h0.5V340.9z M266.7,340.9h-0.5v-1h0.5V340.9z M265.7,340.9h-0.5v-1h0.5V340.9z M264.7,340.9h-0.5v-1
								h0.5V340.9z M263.7,340.9h-0.5v-1h0.5V340.9z M262.7,340.9h-0.5v-1h0.5V340.9z M261.7,340.9h-0.5v-1h0.5V340.9z M260.7,340.9
								h-0.5v-1h0.5V340.9z M259.7,340.9h-0.5v-1h0.5V340.9z M258.7,340.9h-0.5v-1h0.5V340.9z M257.7,340.9h-0.5v-1h0.5V340.9z
								 M256.7,340.9h-0.5v-1h0.5V340.9z M255.7,340.9h-0.5v-1h0.5V340.9z M254.7,340.9h-0.5v-1h0.5V340.9z M253.7,340.9h-0.5v-1
								h0.5V340.9z M252.7,340.9h-0.5v-1h0.5V340.9z M251.7,340.9h-0.5v-1h0.5V340.9z M250.7,340.9h-0.5v-1h0.5V340.9z M249.7,340.9
								h-0.5v-1h0.5V340.9z M248.7,340.9h-0.5v-1h0.5V340.9z M247.7,340.9h-0.5v-1h0.5V340.9z M246.7,340.9h-0.5v-1h0.5V340.9z
								 M245.7,340.9h-0.5v-1h0.5V340.9z M244.7,340.9h-0.5v-1h0.5V340.9z M243.7,340.9h-0.5v-1h0.5V340.9z M242.7,340.9h-0.5v-1
								h0.5V340.9z M241.7,340.9h-0.5v-1h0.5V340.9z M240.7,340.9h-0.5v-1h0.5V340.9z M239.7,340.9h-0.5v-1h0.5V340.9z M238.7,340.9
								h-0.5v-1h0.5V340.9z M237.7,340.9h-0.5v-1h0.5V340.9z M236.7,340.9h-0.5v-1h0.5V340.9z M235.7,340.9h-0.5v-1h0.5V340.9z
								 M234.7,340.9h-0.5v-1h0.5V340.9z M233.7,340.9h-0.5v-1h0.5V340.9z M232.7,340.9h-0.5v-1h0.5V340.9z M231.7,340.9h-0.5v-1
								h0.5V340.9z M230.7,340.9h-0.5v-1h0.5V340.9z M229.7,340.9h-0.5v-1h0.5V340.9z M228.7,340.9h-0.5v-1h0.5V340.9z M227.7,340.9
								h-0.5v-1h0.5V340.9z M226.7,340.9h-0.5v-1h0.5V340.9z M225.7,340.9h-0.5v-1h0.5V340.9z M224.7,340.9h-0.5v-1h0.5V340.9z
								 M223.7,340.9h-0.5v-1h0.5V340.9z M222.7,340.9h-0.5v-1h0.5V340.9z M221.7,340.9h-0.5v-1h0.5V340.9z M220.7,340.9h-0.5v-1
								h0.5V340.9z M219.7,340.9h-0.5v-1h0.5V340.9z M218.7,340.9h-0.5v-1h0.5V340.9z M217.7,340.9h-0.5v-1h0.5V340.9z M216.7,340.9
								h-0.5v-1h0.5V340.9z M215.7,340.9h-0.5v-1h0.5V340.9z M214.7,340.9h-0.5v-1h0.5V340.9z M213.7,340.9h-0.5v-1h0.5V340.9z
								 M212.7,340.9h-0.5v-1h0.5V340.9z M211.7,340.9h-0.5v-1h0.5V340.9z M210.7,340.9h-0.5v-1h0.5V340.9z M209.7,340.9h-0.5v-1
								h0.5V340.9z M208.7,340.9h-0.5v-1h0.5V340.9z M207.7,340.9h-0.5v-1h0.5V340.9z M206.7,340.9h-0.5v-1h0.5V340.9z M205.7,340.9
								h-0.5v-1h0.5V340.9z M204.7,340.9h-0.5v-1h0.5V340.9z M203.7,340.9h-0.5v-1h0.5V340.9z M202.7,340.9h-0.5v-1h0.5V340.9z
								 M201.7,340.9h-0.5v-1h0.5V340.9z M200.7,340.9h-0.5v-1h0.5V340.9z M199.7,340.9h-0.5v-1h0.5V340.9z M198.7,340.9h-0.5v-1
								h0.5V340.9z M197.7,340.9h-0.5v-1h0.5V340.9z M196.7,340.9h-0.5v-1h0.5V340.9z M195.7,340.9h-0.5v-1h0.5V340.9z M194.7,340.9
								h-0.5v-1h0.5V340.9z M193.7,340.9h-0.5v-1h0.5V340.9z M192.7,340.9h-0.5v-1h0.5V340.9z M191.7,340.9h-0.5v-1h0.5V340.9z
								 M190.7,340.9h-0.5v-1h0.5V340.9z M189.7,340.9h-0.5v-1h0.5V340.9z M188.7,340.9h-0.5v-1h0.5V340.9z M187.7,340.9h-0.5v-1
								h0.5V340.9z M186.7,340.9h-0.5v-1h0.5V340.9z M185.7,340.9h-0.5v-1h0.5V340.9z M184.7,340.9h-0.5v-1h0.5V340.9z M183.7,340.9
								h-0.5v-1h0.5V340.9z M182.7,340.9h-0.5v-1h0.5V340.9z M181.7,340.9h-0.5v-1h0.5V340.9z M180.7,340.9h-0.5v-1h0.5V340.9z
								 M179.7,340.9h-0.5v-1h0.5V340.9z M178.7,340.9h-0.5v-1h0.5V340.9z M177.7,340.9h-0.5v-1h0.5V340.9z M176.7,340.9h-0.5v-1
								h0.5V340.9z M175.7,340.9h-0.5v-1h0.5V340.9z M174.7,340.9h-0.5v-1h0.5V340.9z M173.7,340.9h-0.5v-1h0.5V340.9z"/>
							<rect x="172.9" y="339.9" class="st12" width="0.2" height="1"/>
						</g>
					</g>
					<g>
						<line class="st18" x1="336.4" y1="289" x2="172.9" y2="289"/>
						<g>
							<rect x="336.1" y="288.5" class="st12" width="0.2" height="1"/>
							<path class="st12" d="M335.6,289.5h-0.5v-1h0.5V289.5z M334.6,289.5h-0.5v-1h0.5V289.5z M333.6,289.5h-0.5v-1h0.5V289.5z
								 M332.6,289.5h-0.5v-1h0.5V289.5z M331.6,289.5h-0.5v-1h0.5V289.5z M330.6,289.5h-0.5v-1h0.5V289.5z M329.6,289.5h-0.5v-1
								h0.5V289.5z M328.6,289.5h-0.5v-1h0.5V289.5z M327.6,289.5h-0.5v-1h0.5V289.5z M326.6,289.5h-0.5v-1h0.5V289.5z M325.6,289.5
								h-0.5v-1h0.5V289.5z M324.6,289.5h-0.5v-1h0.5V289.5z M323.6,289.5h-0.5v-1h0.5V289.5z M322.6,289.5h-0.5v-1h0.5V289.5z
								 M321.6,289.5h-0.5v-1h0.5V289.5z M320.6,289.5h-0.5v-1h0.5V289.5z M319.6,289.5h-0.5v-1h0.5V289.5z M318.6,289.5h-0.5v-1
								h0.5V289.5z M317.6,289.5h-0.5v-1h0.5V289.5z M316.6,289.5h-0.5v-1h0.5V289.5z M315.6,289.5h-0.5v-1h0.5V289.5z M314.6,289.5
								h-0.5v-1h0.5V289.5z M313.6,289.5h-0.5v-1h0.5V289.5z M312.6,289.5h-0.5v-1h0.5V289.5z M311.6,289.5h-0.5v-1h0.5V289.5z
								 M310.6,289.5h-0.5v-1h0.5V289.5z M309.6,289.5h-0.5v-1h0.5V289.5z M308.6,289.5h-0.5v-1h0.5V289.5z M307.6,289.5h-0.5v-1
								h0.5V289.5z M306.6,289.5h-0.5v-1h0.5V289.5z M305.6,289.5h-0.5v-1h0.5V289.5z M304.6,289.5h-0.5v-1h0.5V289.5z M303.6,289.5
								h-0.5v-1h0.5V289.5z M302.6,289.5h-0.5v-1h0.5V289.5z M301.6,289.5h-0.5v-1h0.5V289.5z M300.6,289.5h-0.5v-1h0.5V289.5z
								 M299.6,289.5h-0.5v-1h0.5V289.5z M298.6,289.5h-0.5v-1h0.5V289.5z M297.6,289.5h-0.5v-1h0.5V289.5z M296.6,289.5h-0.5v-1
								h0.5V289.5z M295.6,289.5h-0.5v-1h0.5V289.5z M294.6,289.5h-0.5v-1h0.5V289.5z M293.6,289.5h-0.5v-1h0.5V289.5z M292.6,289.5
								h-0.5v-1h0.5V289.5z M291.6,289.5h-0.5v-1h0.5V289.5z M290.6,289.5h-0.5v-1h0.5V289.5z M289.6,289.5h-0.5v-1h0.5V289.5z
								 M288.6,289.5h-0.5v-1h0.5V289.5z M287.6,289.5h-0.5v-1h0.5V289.5z M286.6,289.5h-0.5v-1h0.5V289.5z M285.6,289.5h-0.5v-1
								h0.5V289.5z M284.6,289.5h-0.5v-1h0.5V289.5z M283.6,289.5h-0.5v-1h0.5V289.5z M282.6,289.5h-0.5v-1h0.5V289.5z M281.6,289.5
								h-0.5v-1h0.5V289.5z M280.6,289.5h-0.5v-1h0.5V289.5z M279.6,289.5h-0.5v-1h0.5V289.5z M278.6,289.5h-0.5v-1h0.5V289.5z
								 M277.6,289.5h-0.5v-1h0.5V289.5z M276.6,289.5h-0.5v-1h0.5V289.5z M275.6,289.5h-0.5v-1h0.5V289.5z M274.6,289.5h-0.5v-1
								h0.5V289.5z M273.6,289.5h-0.5v-1h0.5V289.5z M272.6,289.5h-0.5v-1h0.5V289.5z M271.6,289.5h-0.5v-1h0.5V289.5z M270.6,289.5
								h-0.5v-1h0.5V289.5z M269.6,289.5h-0.5v-1h0.5V289.5z M268.6,289.5h-0.5v-1h0.5V289.5z M267.6,289.5h-0.5v-1h0.5V289.5z
								 M266.6,289.5h-0.5v-1h0.5V289.5z M265.6,289.5h-0.5v-1h0.5V289.5z M264.6,289.5h-0.5v-1h0.5V289.5z M263.6,289.5h-0.5v-1
								h0.5V289.5z M262.6,289.5h-0.5v-1h0.5V289.5z M261.6,289.5h-0.5v-1h0.5V289.5z M260.6,289.5h-0.5v-1h0.5V289.5z M259.6,289.5
								h-0.5v-1h0.5V289.5z M258.6,289.5h-0.5v-1h0.5V289.5z M257.6,289.5h-0.5v-1h0.5V289.5z M256.6,289.5h-0.5v-1h0.5V289.5z
								 M255.6,289.5h-0.5v-1h0.5V289.5z M254.6,289.5h-0.5v-1h0.5V289.5z M253.6,289.5h-0.5v-1h0.5V289.5z M252.6,289.5h-0.5v-1
								h0.5V289.5z M251.6,289.5h-0.5v-1h0.5V289.5z M250.6,289.5h-0.5v-1h0.5V289.5z M249.6,289.5h-0.5v-1h0.5V289.5z M248.6,289.5
								h-0.5v-1h0.5V289.5z M247.6,289.5h-0.5v-1h0.5V289.5z M246.6,289.5h-0.5v-1h0.5V289.5z M245.6,289.5h-0.5v-1h0.5V289.5z
								 M244.6,289.5h-0.5v-1h0.5V289.5z M243.6,289.5h-0.5v-1h0.5V289.5z M242.6,289.5h-0.5v-1h0.5V289.5z M241.6,289.5h-0.5v-1
								h0.5V289.5z M240.6,289.5h-0.5v-1h0.5V289.5z M239.6,289.5h-0.5v-1h0.5V289.5z M238.6,289.5h-0.5v-1h0.5V289.5z M237.6,289.5
								h-0.5v-1h0.5V289.5z M236.6,289.5h-0.5v-1h0.5V289.5z M235.6,289.5h-0.5v-1h0.5V289.5z M234.6,289.5h-0.5v-1h0.5V289.5z
								 M233.6,289.5h-0.5v-1h0.5V289.5z M232.6,289.5h-0.5v-1h0.5V289.5z M231.6,289.5h-0.5v-1h0.5V289.5z M230.6,289.5h-0.5v-1
								h0.5V289.5z M229.6,289.5h-0.5v-1h0.5V289.5z M228.6,289.5h-0.5v-1h0.5V289.5z M227.6,289.5h-0.5v-1h0.5V289.5z M226.6,289.5
								h-0.5v-1h0.5V289.5z M225.6,289.5h-0.5v-1h0.5V289.5z M224.6,289.5h-0.5v-1h0.5V289.5z M223.6,289.5h-0.5v-1h0.5V289.5z
								 M222.6,289.5h-0.5v-1h0.5V289.5z M221.6,289.5h-0.5v-1h0.5V289.5z M220.6,289.5h-0.5v-1h0.5V289.5z M219.6,289.5h-0.5v-1
								h0.5V289.5z M218.6,289.5h-0.5v-1h0.5V289.5z M217.6,289.5h-0.5v-1h0.5V289.5z M216.6,289.5h-0.5v-1h0.5V289.5z M215.6,289.5
								h-0.5v-1h0.5V289.5z M214.6,289.5h-0.5v-1h0.5V289.5z M213.6,289.5h-0.5v-1h0.5V289.5z M212.6,289.5h-0.5v-1h0.5V289.5z
								 M211.6,289.5h-0.5v-1h0.5V289.5z M210.6,289.5h-0.5v-1h0.5V289.5z M209.6,289.5h-0.5v-1h0.5V289.5z M208.6,289.5h-0.5v-1
								h0.5V289.5z M207.6,289.5h-0.5v-1h0.5V289.5z M206.6,289.5h-0.5v-1h0.5V289.5z M205.6,289.5h-0.5v-1h0.5V289.5z M204.6,289.5
								h-0.5v-1h0.5V289.5z M203.6,289.5h-0.5v-1h0.5V289.5z M202.6,289.5h-0.5v-1h0.5V289.5z M201.6,289.5h-0.5v-1h0.5V289.5z
								 M200.6,289.5h-0.5v-1h0.5V289.5z M199.6,289.5h-0.5v-1h0.5V289.5z M198.6,289.5h-0.5v-1h0.5V289.5z M197.6,289.5h-0.5v-1
								h0.5V289.5z M196.6,289.5h-0.5v-1h0.5V289.5z M195.6,289.5h-0.5v-1h0.5V289.5z M194.6,289.5h-0.5v-1h0.5V289.5z M193.6,289.5
								h-0.5v-1h0.5V289.5z M192.6,289.5h-0.5v-1h0.5V289.5z M191.6,289.5h-0.5v-1h0.5V289.5z M190.6,289.5h-0.5v-1h0.5V289.5z
								 M189.6,289.5h-0.5v-1h0.5V289.5z M188.6,289.5h-0.5v-1h0.5V289.5z M187.6,289.5h-0.5v-1h0.5V289.5z M186.6,289.5h-0.5v-1
								h0.5V289.5z M185.6,289.5h-0.5v-1h0.5V289.5z M184.6,289.5h-0.5v-1h0.5V289.5z M183.6,289.5h-0.5v-1h0.5V289.5z M182.6,289.5
								h-0.5v-1h0.5V289.5z M181.6,289.5h-0.5v-1h0.5V289.5z M180.6,289.5h-0.5v-1h0.5V289.5z M179.6,289.5h-0.5v-1h0.5V289.5z
								 M178.6,289.5h-0.5v-1h0.5V289.5z M177.6,289.5h-0.5v-1h0.5V289.5z M176.6,289.5h-0.5v-1h0.5V289.5z M175.6,289.5h-0.5v-1
								h0.5V289.5z M174.6,289.5h-0.5v-1h0.5V289.5z"/>
							<rect x="172.9" y="288.5" class="st12" width="0.2" height="1"/>
						</g>
					</g>
				</g>
			</g>
			<g>
				<path class="st19" d="M32.4,241.4c0,0.2,0.1,0.3,0.1,0.5l0,0C32.5,241.8,32.4,241.6,32.4,241.4z"/>
				<polygon class="st5" points="32,242.1 32,242.1 32,242.1 31.9,241.6 32.8,241.3 33,241.8 33,241.8 33,241.8 				"/>
			</g>
		</g>
		<g>
			<path class="st20" d="M32.7,242.5c13.6,45.6,20,81.7,23.6,107.5"/>
			<path class="st21" d="M35.5,241.7c-1.8,0.6-3.7,1.2-5.6,1.8c0.5-0.7,1.2-1.7,2-2.4c0.2-0.2,0.1-0.1,0.3-0.3
				c0.3-0.1,1-0.2,1.8,0.1C34.8,241,35.3,241.4,35.5,241.7L35.5,241.7z"/>
			<path class="st20" d="M318.6,242.5c-13.6,45.6-20,81.7-23.6,107.5"/>
			<path class="st21" d="M315.8,241.6c1.9,0.6,3.7,1.2,5.6,1.8c-0.5-0.7-1.2-1.7-2-2.4c-0.2-0.2-0.1-0.1-0.3-0.3
				c-0.3-0.1-1-0.2-1.8,0.1C316.5,241,316,241.4,315.8,241.6L315.8,241.6z"/>
		</g>
	</g>
	<text transform="matrix(0.9699 0.2434 -0.2434 0.9699 249.23 232.45)" class="st5 st15 st16">To the moon</text>
	
		<animate  accumulate="none" additive="replace" attributeName="opacity" begin="4s;to_the_moon_opacity_return.end+7s" calcMode="linear" dur="2s" fill="remove" id="to_the_moon_opacity" restart="always" values="0;1">
		</animate>
	
		<animate  accumulate="none" additive="replace" attributeName="opacity" begin="to_the_moon_opacity.end" calcMode="linear" dur="17s" fill="remove" id="to_the_moon_opacity_freeze" restart="always" values="1">
		</animate>
	
		<animate  accumulate="none" additive="replace" attributeName="opacity" begin="to_the_moon_opacity_freeze.end" calcMode="linear" dur="2s" fill="remove" id="to_the_moon_opacity_return" restart="always" values="1;0">
		</animate>
	<g id="RE">
		<path class="st5" d="M268.1,235.1c-0.2,0-0.5,0-0.7,0.1c0.1,0,0.1,0,0.2,0C267.8,235.1,267.9,235.1,268.1,235.1L268.1,235.1z"/>
		<path class="st5" d="M266.4,235.7c0.4-0.3,0.9-0.4,1.4-0.4c0.3,0,0.5-0.1,0.8-0.1c0.1,0,0.2-0.1,0.2-0.1c0-0.1-0.1-0.1-0.2-0.1
			c-0.3,0-0.6,0.1-0.9,0.1c-0.2,0-0.4,0.1-0.5-0.1c-0.1-0.2,0.1-0.3,0.2-0.4c0,0,0-0.1,0.1-0.1c0.5-0.6,1.2-1.1,2-1.4
			c0.8-0.3,1.7-0.4,2.6-0.7c0.2-0.3-0.1-0.2-0.2-0.2c-0.1,0-0.2,0.1-0.3,0.1c-0.9,0.2-1.8,0.5-2.7,0.8c-1,0.3-1.8,1-2.4,1.9
			c0,0.1,0,0.2,0.1,0.3c0.1,0.2-0.1,0.2-0.2,0.2c-0.2,0-0.4,0.2-0.4,0.4C266.1,236,266.2,235.8,266.4,235.7L266.4,235.7z"/>
		<path class="st5" d="M268.7,237c0.1,0,0.1,0,0.2,0c0.1,0,0.2,0,0.3,0c0.1,0,0.2,0,0.2-0.1c0.1-0.1,0.2-0.1,0.3,0
			c0.4-0.1,0.8-0.1,1.2-0.2c0.4-0.1,0.8-0.2,1.2-0.4c0,0,0.1-0.1,0.1-0.2c-0.1-0.1-0.1,0-0.2,0c-0.2,0.2-0.5,0.3-0.8,0.3
			c-0.3,0.1-0.6,0.1-0.9,0.1c-0.6,0.1-1.3,0.1-1.9,0c-0.1,0-0.1,0-0.2,0c-0.1,0-0.1-0.1-0.2-0.1c-0.1,0-0.2,0-0.2,0
			c-0.1,0-0.1,0-0.2,0c-0.1,0-0.2,0-0.3,0c-0.1,0-0.2-0.1-0.3,0.1c0,0.1,0,0.1,0,0.1c0,0.1,0.1,0.1,0.2,0.1c0.2,0.1,0.4,0.1,0.6,0.1
			c0.1,0,0.2,0.1,0.4,0.1C268.5,237.1,268.6,237,268.7,237L268.7,237z"/>
		<path class="st5" d="M272.2,232.3C272.2,232.3,272.2,232.3,272.2,232.3C272.2,232.3,272.2,232.3,272.2,232.3
			C272.2,232.3,272.2,232.3,272.2,232.3C272.3,232.3,272.3,232.3,272.2,232.3L272.2,232.3z"/>
		<path class="st5" d="M269.5,237.1C269.5,237.1,269.6,237.1,269.5,237.1c0.1-0.1,0-0.1,0-0.1c-0.1,0-0.2,0-0.3-0.1
			c0,0.1-0.1,0.1,0,0.2C269.4,237.1,269.4,237.1,269.5,237.1z"/>
		<path class="st5" d="M267.5,236.5C267.5,236.5,267.6,236.5,267.5,236.5C267.6,236.4,267.6,236.4,267.5,236.5
			c-0.3-0.2-0.6-0.3-1-0.4c-0.2-0.1-0.3-0.1-0.2-0.3c-0.1,0.1-0.3,0.2-0.3-0.1c-0.2,0.1-0.3,0.2-0.1,0.4c0.3,0.2,0.6,0.4,0.9,0.5
			c0.1,0.1,0.2,0.1,0.4,0.1C267.3,236.5,267.4,236.6,267.5,236.5L267.5,236.5z"/>
		<path class="st5" d="M267.6,236.4C267.6,236.4,267.6,236.4,267.6,236.4c0.1,0.1,0.1,0.1,0.2,0.1
			C267.7,236.4,267.7,236.2,267.6,236.4L267.6,236.4z"/>
		<path class="st5" d="M266.8,231.9c0.4-0.1,0.7-0.4,1.1-0.5c0.1,0,0.1,0,0.2,0c0,0,0.1,0,0.1,0.1c0,0,0,0.1,0.1,0.1
			c0,0,0.1,0.1,0.1,0.1c0.2,0,0.3-0.2,0.3-0.4c-0.2-0.2-0.6-0.2-0.8-0.5c-0.2,0.1-0.4,0.2-0.6,0.3l0,0c0,0-0.1,0-0.1,0.1l0,0
			c0,0-0.1,0-0.1,0.1c0,0,0,0-0.1,0c-0.1,0-0.1,0-0.1,0.1l0,0c-0.1,0-0.2,0.1-0.3,0.1c-0.3,0.1-0.3,0.3-0.1,0.5c0,0,0.1,0,0.1,0.1
			C266.7,231.9,266.7,231.9,266.8,231.9L266.8,231.9z"/>
		<path class="st5" d="M268.3,232.2c0,0,0.1,0,0.1-0.1l0,0c0.1-0.1,0.2-0.2,0.3-0.3c0.1-0.2,0.2-0.3,0-0.5c-0.2,0-0.2,0.2-0.4,0.3
			c-0.4,0-0.6,0.2-0.6,0.6c0,0.1,0.1,0.2,0.2,0.1C268.1,232.2,268.2,232.2,268.3,232.2L268.3,232.2z"/>
		<path class="st5" d="M266.7,234.9c-0.1,0-0.1,0-0.2-0.1c-0.3,0.2-0.5,0.3-0.8,0.5c-0.1,0.1-0.1,0.2,0,0.2
			C266,235.3,266.4,235.2,266.7,234.9z"/>
		<path class="st5" d="M267.2,236.6C267.2,236.6,267.2,236.5,267.2,236.6c-0.1-0.1-0.2-0.2-0.4-0.2
			C266.9,236.7,267.1,236.5,267.2,236.6L267.2,236.6z"/>
		<path class="st5" d="M268.4,236.9c0.1,0,0.2,0.1,0.3,0C268.6,236.9,268.5,236.8,268.4,236.9z"/>
		<path class="st5" d="M268.2,236.6c0,0.1,0.1,0.1,0.2,0C268.4,236.6,268.3,236.6,268.2,236.6z"/>
		<path class="st5" d="M267,231.2c-0.1,0-0.3,0-0.4,0l0,0c0,0-0.1,0.1,0,0.1c0.1,0.1,0.1,0.1,0.2,0
			C266.8,231.3,266.9,231.3,267,231.2L267,231.2z"/>
		<path class="st5" d="M267.1,231.2c0,0-0.1,0-0.1,0.1C267,231.2,267.1,231.2,267.1,231.2z"/>
		<path class="st5" d="M267.3,231.1c0,0-0.1,0-0.1,0.1C267.2,231.1,267.3,231.1,267.3,231.1z"/>
		<path class="st5" d="M267.4,231c0,0-0.1,0-0.1,0.1C267.3,231.1,267.4,231.1,267.4,231z"/>
		<path class="st5" d="M265.2,235.7L265.2,235.7c0.1-0.1,0.3-0.1,0.5-0.2c0-0.1-0.1-0.1,0-0.2c-0.6,0.2-0.9,0.1-1.3-0.4
			c-0.1-0.2-0.2-0.3-0.3-0.5c-0.1,0-0.1-0.1-0.2,0c0,0.4,0.3,0.7,0.6,1C264.6,235.6,264.9,235.7,265.2,235.7
			C265.2,235.7,265.2,235.7,265.2,235.7L265.2,235.7z"/>
		<path class="st5" d="M268.9,237.1c-0.1,0-0.1,0-0.2-0.1c0,0.1,0,0.1,0.1,0.1C268.8,237.2,268.9,237.2,268.9,237.1L268.9,237.1z"/>
		<path class="st5" d="M264.5,234c0.5-0.2,1-0.4,1.4-0.6c0.7-0.3,1.5-0.6,2.1-1.1c-0.1,0-0.1-0.1-0.2-0.2c-0.2-0.2-0.3-0.1-0.5,0
			c-0.4,0.2-0.8,0.4-1.2,0.6c-0.8,0.4-1.6,0.6-2.3,1.1c0,0.2,0,0.4,0.2,0.5C264.1,234.1,264.3,234,264.5,234L264.5,234z"/>
		<path class="st5" d="M262.8,234.4c0.1-0.1,0.3-0.1,0.4-0.2c0.1-0.1,0.2-0.1,0.3-0.1c0.1,0,0.2,0.1,0.3,0.2l0,0
			c0.1,0.1,0.1,0.1,0.2,0c0,0,0-0.1,0-0.1c-0.1-0.1-0.1-0.3-0.2-0.4c0-0.1,0-0.1,0-0.2c-0.1-0.1-0.1-0.2-0.3-0.2
			c-0.4,0-0.6,0.3-0.9,0.4c-0.2,0.1-0.3,0.2-0.3,0.4C262.5,234.4,262.6,234.6,262.8,234.4L262.8,234.4z"/>
		<path class="st5" d="M268.3,232.2c0,0,0.1-0.1,0.1-0.1C268.4,232.1,268.4,232.1,268.3,232.2z"/>
		<path class="st5" d="M264.6,233.1c0.7-0.4,1.4-0.8,2-1.3c-0.2-0.2-0.1-0.3,0.1-0.5c-0.1,0-0.1,0-0.2,0c-0.1,0-0.3,0.1-0.4,0.1
			c-0.1,0-0.1,0.1-0.2,0.1c-0.1,0.4-0.5,0.4-0.7,0.6c-0.4,0.3-0.9,0.4-1.2,0.9C264.2,233.5,264.4,233.1,264.6,233.1z"/>
		<path class="st5" d="M267.9,231.2c0.2,0,0.3,0,0.5,0C268.2,231.1,268,231.1,267.9,231.2z"/>
		<path class="st5" d="M266.7,231.8c0,0-0.1,0.1-0.1,0.1C266.7,231.8,266.7,231.8,266.7,231.8z"/>
		<path class="st5" d="M268.4,231.3c0,0,0,0.1,0.1,0.1C268.4,231.3,268.4,231.3,268.4,231.3z"/>
		<polygon class="st5" points="258.1,236.6 258.1,236.6 258.1,236.6 		"/>
		<path class="st5" d="M258.4,236.7c0,0,0.1,0,0.1,0c0.1,0,0.2,0,0.4-0.1c0.2-0.2,0.4-0.2,0.6-0.3c0.7-0.3,1.4-0.7,2-1.1
			c0.1-0.1,0.1-0.2,0.1-0.3c0,0-0.1-0.1-0.1-0.1c0,0-0.1,0-0.1,0c-0.5,0.3-1,0.5-1.5,0.9c-0.2,0.1-0.4,0.2-0.6,0.3
			c-0.3,0-0.4,0.5-0.8,0.3c-0.1,0-0.1,0.1-0.2,0.1c-0.1,0-0.1,0.1-0.1,0.1c0,0.1,0.1,0.1,0.1,0.2l0,0l0,0l0,0
			C258.2,236.7,258.3,236.7,258.4,236.7L258.4,236.7z"/>
		<path class="st5" d="M265.2,232.4c0,0,0.1-0.1,0.1-0.1c0-0.2-0.2-0.2-0.3-0.1c-0.1,0.2-0.3,0.2-0.5,0.2c-0.3,0.2-0.6,0.3-0.8,0.5
			c-0.2,0.4-0.6,0.4-0.9,0.7c-0.1,0.1-0.4,0.1-0.1,0.3c0.1,0,0.2,0,0.3-0.1C263.7,233.4,264.4,232.8,265.2,232.4L265.2,232.4z"/>
		<path class="st5" d="M262.6,233.8c0-0.2,0.1-0.2,0.2-0.2c0.2-0.1,0.5-0.3,0.7-0.4c0.1-0.1,0.2-0.1,0.1-0.3l0,0c0,0-0.1,0-0.1,0.1
			c-0.5,0.3-1.1,0.7-1.6,1c0,0,0,0.1-0.1,0.1h0c0,0,0,0.1-0.1,0.1s0,0.1-0.1,0.1l0,0c-0.1,0.2-0.4,0.2-0.5,0.4
			c-0.1,0.1-0.3,0.1-0.2,0.3C261.6,234.9,262.1,234.4,262.6,233.8L262.6,233.8z"/>
		<path class="st5" d="M260.9,234.9c0.1-0.2,0.3-0.3,0.4-0.4c0.1-0.1,0.3-0.2,0.4-0.4c-0.6,0.3-1.2,0.6-1.8,1.1c0,0.1,0,0.2,0.1,0.2
			C260.3,235.4,260.8,235.3,260.9,234.9L260.9,234.9z"/>
		<path class="st5" d="M259.1,236.1c0,0,0.1-0.1,0.1-0.1c0-0.1,0-0.1-0.1-0.2c-0.3,0-0.5,0.3-0.8,0.4c0,0,0,0,0,0.1
			c0,0.3,0,0.3,0.3,0.2C258.8,236.4,258.9,236.2,259.1,236.1L259.1,236.1z"/>
		<path class="st5" d="M259.7,235.8c0.1-0.1,0.1-0.1,0.2-0.1c0,0,0-0.1,0.1-0.1c0,0,0,0,0-0.1c0-0.1,0-0.1,0-0.2l0,0
			c0,0-0.1,0-0.1,0.1l0,0c0,0-0.1,0-0.1,0.1c-0.1,0.1-0.2,0.1-0.4,0.2c-0.1,0.1-0.3,0.1-0.3,0.2c0,0.1,0.1,0.1,0.1,0.1
			C259.4,236,259.5,235.8,259.7,235.8z"/>
		<path class="st5" d="M259.3,235.6c-0.1,0-0.3-0.1-0.4,0c-0.2,0.2-0.5,0.3-0.6,0.5c0.3,0,0.5-0.2,0.8-0.3
			C259.2,235.8,259.3,235.7,259.3,235.6L259.3,235.6z"/>
		<path class="st5" d="M264.9,232.2C264.9,232.2,264.9,232.2,264.9,232.2C264.8,232.2,264.8,232.2,264.9,232.2c-0.1,0-0.2,0-0.3,0
			c0,0.1-0.1,0.1-0.1,0.1C264.7,232.5,264.8,232.4,264.9,232.2L264.9,232.2z"/>
		<path class="st5" d="M266.5,231.3c0,0,0-0.1,0-0.1c-0.1,0-0.2,0.1-0.3,0.1c-0.1,0.1-0.1,0.1,0,0.2
			C266.3,231.5,266.4,231.4,266.5,231.3z"/>
		<path class="st5" d="M258.8,236.6c-0.1,0-0.2,0.1-0.4,0.1c0,0,0.1,0,0.1,0C258.7,236.7,258.8,236.7,258.8,236.6L258.8,236.6z"/>
		<path class="st5" d="M258,236.6C258,236.6,258,236.5,258,236.6c0-0.1,0-0.2,0.1-0.2C257.8,236.3,257.9,236.4,258,236.6
			C258,236.6,258,236.6,258,236.6L258,236.6z"/>
		<path class="st5" d="M258.1,236.6c0.1,0.1,0.1,0.1,0.3,0.1C258.3,236.7,258.2,236.6,258.1,236.6z"/>
		<path class="st5" d="M258,236.5c0,0,0,0.1,0,0.1c0,0,0.1,0,0.1,0C258.1,236.6,258,236.5,258,236.5z"/>
		<path class="st5" d="M259.8,235.4c0,0-0.1,0-0.1,0.1C259.7,235.4,259.8,235.4,259.8,235.4z"/>
		<path class="st5" d="M259.9,235.3c0,0-0.1,0.1-0.1,0.1C259.9,235.3,259.9,235.3,259.9,235.3z"/>
		<path class="st5" d="M261.8,234.1L261.8,234.1c0,0-0.1,0.1-0.1,0.1C261.7,234.2,261.8,234.1,261.8,234.1L261.8,234.1L261.8,234.1z
			"/>
		<path class="st5" d="M261.8,234c0,0-0.1,0-0.1,0.1C261.8,234.1,261.8,234.1,261.8,234C261.8,234.1,261.8,234,261.8,234L261.8,234z
			"/>
		<path class="st5" d="M261.9,234C261.9,234,261.9,234,261.9,234C261.9,234,261.9,234,261.9,234z"/>
		<path class="st5" d="M263.6,232.9c0,0-0.1,0-0.1,0.1C263.6,232.9,263.6,232.9,263.6,232.9z"/>
		<path class="st5" d="M262.5,234.5c0.1,0,0.2,0,0.4,0c0.3,0,0.6-0.2,1-0.1c0-0.2-0.1-0.2-0.2-0.4c-0.1,0-0.3,0.1-0.4,0.1
			c-0.1,0.1-0.2,0.1-0.4,0.2c-0.2,0.2-0.3,0-0.4-0.1c-0.4-0.1-0.5,0.2-0.7,0.4c0,0.2,0.2,0.2,0.3,0.1
			C262.2,234.6,262.4,234.5,262.5,234.5L262.5,234.5z"/>
		<path class="st5" d="M262.5,234.5c-0.1-0.1-0.3-0.1-0.4,0c-0.1,0.1-0.2,0.2-0.3,0.1c-0.2-0.1-0.3,0-0.4,0.2c0.1,0.1,0,0.2,0,0.3
			C261.8,235,262.2,234.8,262.5,234.5L262.5,234.5z"/>
		<path class="st5" d="M265.2,235.7C265.2,235.7,265.2,235.7,265.2,235.7C265.2,235.7,265.2,235.7,265.2,235.7z"/>
		<path class="st5" d="M264.4,233.1c-0.1,0-0.1,0.1-0.2,0c-0.2,0.1-0.3,0.2-0.5,0.3c-0.1,0.1,0.1,0.2,0.1,0.3
			c0.2-0.2,0.5-0.4,0.7-0.6C264.5,233.1,264.5,233.1,264.4,233.1L264.4,233.1z"/>
		<path class="st5" d="M263.6,234c-0.2-0.2-0.3,0-0.4,0.1C263.4,234.2,263.5,234.1,263.6,234z"/>
		<polygon class="st5" points="265.4,231.8 265.4,231.8 265.4,231.8 		"/>
		<path class="st5" d="M265.4,232.3c0.2-0.1,0.4-0.2,0.5-0.4c0.1-0.1,0.2-0.2,0.1-0.4c0-0.1-0.1-0.1-0.1,0c-0.1,0.1-0.2,0.2-0.4,0.2
			c-0.1,0-0.1,0-0.1,0.1l0,0l0,0l0,0c0,0-0.1,0.1-0.1,0.1c-0.1,0.1-0.1,0.1-0.2,0.1c-0.1,0-0.2,0.1-0.2,0.2v0c0.1,0,0.2,0,0.3,0.1
			C265.2,232.3,265.3,232.2,265.4,232.3L265.4,232.3z"/>
		<path class="st5" d="M266.2,231.5c0-0.1,0-0.1,0-0.2c-0.1,0.1-0.2,0.1-0.3,0.3c0,0,0.1,0,0.1,0
			C266.1,231.6,266.1,231.6,266.2,231.5L266.2,231.5z"/>
		<path class="st5" d="M265.1,232c-0.2-0.1-0.3,0-0.3,0.2c0,0,0.1,0,0.1,0C265,232.1,265,232.1,265.1,232L265.1,232z"/>
		<path class="st5" d="M265.4,231.8c0,0-0.1,0.1-0.1,0.1C265.3,231.9,265.4,231.9,265.4,231.8z"/>
		<path class="st5" d="M265.5,231.8c0,0-0.1,0-0.1,0.1C265.4,231.8,265.5,231.8,265.5,231.8z"/>
		<path class="st5" d="M259.8,235.8c0,0-0.1-0.1-0.1-0.1c-0.2,0.1-0.4,0.2-0.5,0.3c0,0,0,0.1,0,0.1
			C259.4,236.1,259.6,235.9,259.8,235.8L259.8,235.8z"/>
		<path class="st5" d="M261.3,234.9c0,0,0.1-0.1,0.1-0.1C261.4,234.9,261.4,234.9,261.3,234.9z"/>
		<path class="st5" d="M260,235.5c0,0-0.1,0.1-0.1,0.1C259.9,235.5,259.9,235.5,260,235.5z"/>
		
			<animate  accumulate="none" additive="replace" attributeName="opacity" begin="4s;RE_opacity_return.end+7s" calcMode="linear" dur="2s" fill="remove" id="RE_opacity" restart="always" values="1;0">
			</animate>
		
			<animate  accumulate="none" additive="replace" attributeName="opacity" begin="RE_opacity.end" calcMode="linear" dur="17s" fill="remove" id="RE_opacity_freeze" restart="always" values="0">
			</animate>
		
			<animate  accumulate="none" additive="replace" attributeName="opacity" begin="RE_opacity_freeze.end" calcMode="linear" dur="2s" fill="remove" id="RE_opacity_return" restart="always" values="0;1">
			</animate>
	</g>
	<g id="stemma">
		<path class="st22" d="M132.1,300.9l-11.9-8.7c-0.6-0.4-1.3-0.6-2-0.6h-8.3c-0.7,0-1.4,0.2-2,0.6L96,300.9c-1.3,1-2,2.5-1.9,4.1
			c0.4,5.4,2.2,14.8,9.1,23.4c3.7,4.5,7.7,7.5,10.8,9.4c3.1-1.9,7.1-4.9,10.8-9.4c6.9-8.6,8.7-18,9.1-23.4
			C134.1,303.4,133.3,301.9,132.1,300.9L132.1,300.9z"/>
		<path class="st23" d="M105.5,328.1c2.7-0.2,5.5-0.3,8.5-0.3c2.9,0,5.7,0.1,8.3,0.3c-0.6,1.1-1.5,2.5-2.7,3.9
			c-2,2.2-4.1,3.6-5.6,4.4c-1.3-0.7-3.2-1.9-4.9-3.7C107.4,331.1,106.3,329.4,105.5,328.1L105.5,328.1z"/>
		<g>
			<path class="st23" d="M107.5,294.2c-1.8,1.1-3.8,2.3-5.9,3.9c-2.1,1.5-3.9,3.1-5.5,4.5c0.5,1.1,1.4,2.7,2.9,4.2
				c1.8,1.9,3.6,2.9,4.8,3.5c0.3-0.1,3.2-0.9,4.3-3.7c0.6-1.7,0.3-3.2,0.1-3.8c-0.5-0.5-1.4-1.5-1.8-3.1
				C105.7,296.8,107.2,294.6,107.5,294.2L107.5,294.2z"/>
			<path class="st23" d="M119.7,294.2c1.8,1.1,3.8,2.3,5.9,3.9c2.1,1.5,3.9,3.1,5.5,4.5c-0.5,1.1-1.4,2.7-2.9,4.2
				c-1.8,1.9-3.6,2.9-4.8,3.5c-0.3-0.1-3.2-0.9-4.3-3.7c-0.6-1.7-0.3-3.2-0.1-3.8c0.5-0.5,1.4-1.5,1.8-3.1
				C121.5,296.8,120,294.6,119.7,294.2L119.7,294.2z"/>
		</g>
		<g>
			<g>
				<g>
					<path class="st24" d="M121.3,320.9c0,0,0-0.1-0.1-0.2c0-0.1,0-0.1,0-0.2c0-0.2-0.1-0.3-0.2-0.5c-0.2-0.3-0.4-0.6-0.6-0.8
						c0,0,0,0,0-0.1c0,0,0,0,0.1-0.1c0.2-0.1,0.3-0.2,0.5-0.3s0.4-0.1,0.6-0.1c0.2,0.1,0.3,0.2,0.5,0.4c0.3,0.4,0.4,1,0.4,1.5
						c0,0,0,0.1,0,0.1c0,0-0.1,0.1-0.1,0.1c-0.1,0.1-0.4,0.4-0.6,0.4C121.4,321.3,121.4,321.1,121.3,320.9L121.3,320.9z"/>
					<path class="st25" d="M121.7,319.9l0.6,0.1c0-0.1-0.1-0.2-0.1-0.3c0-0.1-0.1-0.2-0.1-0.3C122,319.6,121.9,319.7,121.7,319.9
						L121.7,319.9z"/>
				</g>
				<path class="st26" d="M121.8,321.3c-0.2-0.4-0.4-0.8-0.5-1.3c-0.2-0.4-0.3-0.9-0.5-1.3c-0.2,0.2-0.5,0.4-0.8,0.8
					c-0.2,0.2-0.3,0.4-0.4,0.5c-0.1,0.1-0.3,0.1-0.5,0.2c-0.5,0.3-0.8,0.7-1,0.9l-0.1,1.3l-0.1,0.1l0.1,0v0.1l0.1,0l0.8,0.5
					c0.3-0.1,0.7-0.3,1.1-0.8c0.2-0.2,0.3-0.3,0.4-0.5c0.2,0,0.3-0.1,0.5-0.2C121.3,321.7,121.6,321.5,121.8,321.3L121.8,321.3z"/>
			</g>
			<g>
				<g>
					<path class="st24" d="M106.5,321c0,0,0-0.1,0.1-0.2c0-0.1,0-0.1,0-0.2c0-0.2,0.1-0.3,0.2-0.5c0.2-0.3,0.4-0.6,0.6-0.8
						c0,0,0,0,0-0.1c0,0,0,0-0.1-0.1c-0.2-0.1-0.3-0.2-0.5-0.3s-0.4-0.1-0.6-0.1c-0.2,0.1-0.3,0.2-0.5,0.4c-0.3,0.4-0.4,1-0.4,1.5
						c0,0,0,0.1,0,0.1c0,0,0.1,0.1,0.1,0.1c0.1,0.1,0.4,0.4,0.6,0.4C106.4,321.3,106.5,321.2,106.5,321L106.5,321z"/>
					<path class="st25" d="M106.2,319.9l-0.6,0.1c0-0.1,0.1-0.2,0.1-0.3c0-0.1,0.1-0.2,0.1-0.3C105.9,319.6,106,319.8,106.2,319.9
						L106.2,319.9z"/>
				</g>
				<path class="st26" d="M106,321.3c0.2-0.4,0.4-0.8,0.5-1.3c0.2-0.4,0.3-0.9,0.5-1.3c0.2,0.2,0.5,0.4,0.8,0.8
					c0.2,0.2,0.3,0.4,0.4,0.5c0.1,0.1,0.3,0.1,0.5,0.2c0.5,0.3,0.8,0.7,1,0.9l0.1,1.3l0.1,0.1l-0.1,0v0.1l-0.1,0l-0.8,0.5
					c-0.3-0.1-0.7-0.3-1.1-0.8c-0.2-0.2-0.3-0.3-0.4-0.5c-0.2,0-0.3-0.1-0.5-0.2C106.5,321.8,106.2,321.5,106,321.3L106,321.3z"/>
			</g>
			<g>
				<g>
					<path class="st24" d="M110.8,331.1c0,0,0.1,0,0.1,0s0.1,0.1,0.2,0.1c0.1,0.1,0.3,0.1,0.4,0.1c0.3,0,0.6,0,0.9-0.1
						c0,0,0.1,0,0.1,0c0,0,0,0,0,0.1c0,0.2,0,0.4,0,0.6s-0.1,0.4-0.2,0.5c-0.2,0.1-0.3,0.2-0.5,0.2c-0.4,0-0.9-0.2-1.3-0.5
						c0,0-0.1-0.1-0.1-0.1c0,0,0-0.1,0-0.1c0-0.2-0.1-0.6,0-0.8C110.5,331,110.6,331.1,110.8,331.1L110.8,331.1z"/>
					<path class="st25" d="M111.3,332l-0.4,0.5c0.1,0,0.2,0.1,0.3,0.1s0.2,0,0.3,0C111.4,332.4,111.4,332.2,111.3,332L111.3,332z"/>
				</g>
				<g>
					<path class="st24" d="M117.2,331.1c0,0-0.1,0-0.1,0s-0.1,0.1-0.2,0.1c-0.1,0.1-0.3,0.1-0.4,0.1c-0.3,0-0.6,0-0.9-0.1
						c0,0-0.1,0-0.1,0c0,0,0,0,0,0.1c0,0.2,0,0.4,0,0.6s0.1,0.4,0.2,0.5c0.2,0.1,0.3,0.2,0.5,0.2c0.4,0,0.9-0.2,1.3-0.5
						c0,0,0.1-0.1,0.1-0.1c0,0,0-0.1,0-0.1c0-0.2,0.1-0.6,0-0.8C117.5,331,117.4,331.1,117.2,331.1L117.2,331.1z"/>
					<path class="st25" d="M116.7,332l0.4,0.5c-0.1,0-0.2,0.1-0.3,0.1s-0.2,0-0.3,0C116.5,332.4,116.6,332.2,116.7,332L116.7,332z"
						/>
				</g>
				<path class="st26" d="M118.8,322.6c-0.3-1.4-0.7-2.5-1.1-3.5h-7.4c-0.4,0.9-0.8,2.1-1.1,3.5c-0.1,0.6-0.2,1.2-0.3,1.7
					c-0.2,1.1-0.1,2.3,0.2,3.4c0.1,0.3,0.2,0.7,0.3,1c0.3,1,0.7,1.8,1.1,2.4c0.7,0.2,1.3,0.3,2,0.5c0.1-0.3,0.1-0.7,0.1-1.2
					c0-0.2-0.1-0.5-0.1-0.7c0.1-0.2,0.2-0.4,0.2-0.6c0.2-0.6,0.2-1.1,0.2-1.5h2.3c0,0.4,0,0.9,0.2,1.5c0.1,0.2,0.1,0.4,0.2,0.6
					c0,0.2-0.1,0.4-0.1,0.7c0,0.5,0,0.9,0.1,1.2c0.7-0.2,1.3-0.3,2-0.5c0.4-0.6,0.8-1.5,1.1-2.4c0.1-0.4,0.2-0.7,0.3-1
					c0.3-1.1,0.4-2.3,0.2-3.4C119.1,323.7,119,323.2,118.8,322.6L118.8,322.6z"/>
			</g>
			<g>
				<path class="st26" d="M120.1,302.2c0.3-0.3,0.7-0.5,1.1-0.7c0.7-0.4,1.4-0.8,2.2-0.8c0.1,0,0.2,0,0.3,0.1
					c0.1,0.1,0.1,0.2,0.1,0.3c0.2,1.4,0.2,2.9-0.4,4.1c-0.7,1.5-2.2,2.5-3.9,2.6c0-0.4-0.2-0.8-0.4-1.2c-0.2-0.4-0.5-0.7-0.6-1.1
					s0.2-0.9,0.3-1.2C119.1,303.5,119.5,302.8,120.1,302.2L120.1,302.2z"/>
				<path class="st12" d="M121.4,303.4c0.4-0.3,0.8-0.6,1.2-0.9s0.7-0.7,0.8-1.2c0.2,0.7,0.3,1.4,0.2,2.1c-0.2,1.3-0.9,2.5-1.9,3.3
					c-0.4,0.3-1,0.7-1.5,0.7s-0.4-0.8-0.3-1.2C119.9,305.1,120.5,304.1,121.4,303.4L121.4,303.4z"/>
				<path class="st24" d="M120.9,304.6c-0.1,0-0.1,0.1-0.2,0.2c0,0,0.1,0,0.1,0c0,0.2,0,0.4-0.2,0.5c0,0-0.1,0.1-0.1,0.1
					c0,0,0,0.1,0,0.1c0,0.1-0.1,0.3-0.2,0.4c0.3-0.1,0.5-0.3,0.7-0.5c0,0.1,0,0.3-0.1,0.4c-0.3,0.5-0.7,0.9-1.3,1.1c0,0,0,0,0-0.1
					c-0.1-0.6,0.1-1.1,0.3-1.6c0.1-0.3,0.2-0.5,0.3-0.6c0.1-0.2,0.2-0.4,0.4-0.6c0.1-0.1,0.3-0.5,0.5-0.5c0.2,0,0.1,0.4,0.1,0.5
					C121.2,304.3,121.1,304.5,120.9,304.6L120.9,304.6z"/>
			</g>
			<g>
				<path class="st26" d="M108,302.2c-0.3-0.3-0.7-0.5-1.1-0.7c-0.7-0.4-1.4-0.8-2.2-0.8c-0.1,0-0.2,0-0.3,0.1
					c-0.1,0.1-0.1,0.2-0.1,0.3c-0.2,1.4-0.2,2.9,0.4,4.1c0.7,1.5,2.2,2.5,3.9,2.6c0-0.4,0.2-0.8,0.4-1.2c0.2-0.4,0.5-0.7,0.6-1.1
					s-0.2-0.9-0.3-1.2C109,303.5,108.6,302.8,108,302.2L108,302.2z"/>
				<path class="st12" d="M106.7,303.4c-0.4-0.3-0.8-0.6-1.2-0.9s-0.7-0.7-0.8-1.2c-0.2,0.7-0.3,1.4-0.2,2.1
					c0.2,1.3,0.9,2.5,1.9,3.3c0.4,0.3,1,0.7,1.5,0.7s0.4-0.8,0.3-1.2C108.2,305.1,107.6,304.1,106.7,303.4L106.7,303.4z"/>
				<path class="st24" d="M107.2,304.6c0.1,0,0.1,0.1,0.2,0.2c0,0-0.1,0-0.1,0c0,0.2,0,0.4,0.2,0.5c0,0,0.1,0.1,0.1,0.1
					c0,0,0,0.1,0,0.1c0,0.1,0.1,0.3,0.2,0.4c-0.3-0.1-0.5-0.3-0.7-0.5c0,0.1,0,0.3,0.1,0.4c0.3,0.5,0.7,0.9,1.3,1.1c0,0,0,0,0-0.1
					c0.1-0.6-0.1-1.1-0.3-1.6c-0.1-0.3-0.2-0.5-0.3-0.6c-0.1-0.2-0.2-0.4-0.4-0.6c-0.1-0.1-0.3-0.5-0.5-0.5c-0.2,0-0.1,0.4-0.1,0.5
					C106.9,304.3,107,304.5,107.2,304.6L107.2,304.6z"/>
			</g>
			<path class="st26" d="M118.7,311.8c0.1-0.2,0.2-0.3,0.6-1c0.1-0.2,0.2-0.4,0.2-0.4c0.1-0.2,0.4-0.9,0.2-2.6
				c-0.1-0.5-0.2-1-0.4-1.6c-0.1-0.2-0.1-0.3-0.2-0.5c-0.2-0.5-0.6-0.8-1.1-0.9c-0.3,0-0.5-0.1-0.8-0.1c-1.3-0.1-2.4,0-3.2,0.2
				c-0.9-0.2-2-0.3-3.2-0.2c-0.3,0-0.6,0-0.8,0.1c-0.5,0.1-1,0.4-1.1,0.9c-0.1,0.1-0.1,0.3-0.2,0.5c-0.2,0.6-0.3,1.1-0.4,1.6
				c-0.1,1.7,0.1,2.3,0.2,2.6c0,0,0.1,0.2,0.2,0.4c0.4,0.7,0.5,0.8,0.6,1c0.2,0.5-0.1,0.9-0.3,1.7c-0.2,0.5-0.4,1.3-0.6,2.4v0.3
				c0,0.9,0.2,1.8,0.7,2.6c0.1,0.2,0.3,0.5,0.5,0.8c0.8,1.1,1.7,1.7,2.3,2l0,0h4.2l0,0c0.6-0.3,1.5-0.9,2.3-2
				c0.2-0.3,0.4-0.5,0.5-0.8c0.5-0.8,0.7-1.7,0.7-2.6v-0.3c-0.1-1-0.4-1.8-0.6-2.4C118.7,312.8,118.5,312.3,118.7,311.8L118.7,311.8
				z"/>
			<g>
				<path class="st25" d="M117.7,307.5c-0.1-0.9-1.7-2.6-3.7-2.6c-2,0-3.6,1.7-3.7,2.6c-0.1,0.5,0,1,0,1c0.1,0.4,0.2,0.6,0.2,0.8
					c0.6,1.3,1.2,2,1.4,3.1c0.1,0.5,0.2,1,0.2,1.5c0,1.5-0.9,2.9-0.8,4.4c0,0.8,0.4,1.6,0.6,2.4c0.2,0.8,0.4,1.7,0,2.5
					c-0.1,0.2-0.2,0.3-0.1,0.5c0,0.2,0.2,0.3,0.3,0.4c0.5,0.3,1.1,0.2,1.6-0.1l0,0l0.7,0c0.5,0.3,1.1,0.3,1.6,0
					c0.1-0.1,0.3-0.2,0.3-0.4c0-0.2-0.1-0.4-0.1-0.5c-0.3-0.8-0.2-1.6,0-2.5c0.2-0.8,0.6-1.6,0.6-2.4c0.1-1.5-0.8-2.9-0.8-4.4
					c0-0.5,0.1-1,0.2-1.5c0.2-0.7,0.5-1.2,1.4-3.1c0.1-0.1,0.2-0.4,0.3-0.8C117.7,308.4,117.8,308,117.7,307.5L117.7,307.5z"/>
				
					<ellipse transform="matrix(0.4242 -0.9056 0.9056 0.4242 -226.6038 290.2849)" class="st27" cx="115" cy="323.3" rx="0.2" ry="0.5"/>
				
					<ellipse transform="matrix(0.9056 -0.4242 0.4242 0.9056 -126.4618 78.4899)" class="st27" cx="113.1" cy="323.3" rx="0.6" ry="0.2"/>
			</g>
			<g>
				<ellipse class="st12" cx="110.7" cy="313.2" rx="1.2" ry="1.1"/>
				<ellipse class="st28" cx="110.7" cy="313.1" rx="0.8" ry="0.8"/>
				<g>
					<ellipse class="st27" cx="110.7" cy="313.1" rx="0.5" ry="0.5"/>
					<circle class="st12" cx="110.3" cy="312.8" r="0.3"/>
				</g>
			</g>
			<g>
				<ellipse class="st12" cx="117.3" cy="313.2" rx="1.2" ry="1.1"/>
				<ellipse class="st28" cx="117.3" cy="313.1" rx="0.8" ry="0.8"/>
				<g>
					<ellipse class="st27" cx="117.3" cy="313.1" rx="0.5" ry="0.5"/>
					<circle class="st12" cx="117" cy="312.8" r="0.3"/>
				</g>
			</g>
			<path class="st29" d="M114.2,318.8c0,1.4,0.1,1.9,0.1,1.9c-0.1,0.6-0.1,1.3-0.2,2.2c-0.1-0.9-0.2-1.6-0.2-2.2
				c0,0,0.2-0.5,0.1-1.9c0-0.2-0.2-0.6-0.1-1c0,0,0-0.1,0.1-0.1c0.1-0.1,0.2-0.1,0.2,0c0,0,0,0.1,0.1,0.1
				C114.3,318.1,114.2,318.5,114.2,318.8L114.2,318.8z"/>
			<g>
				<path class="st30" d="M112.2,313.8c0,1.5-0.9,2.9-0.8,4.4"/>
				<path class="st30" d="M116.7,318.2c0.1-1.5-0.8-2.9-0.8-4.4"/>
				<path class="st30" d="M111.3,318.2c0,0.8,0.4,1.6,0.6,2.4c0.2,0.8,0.4,1.7,0,2.5c-0.1,0.2-0.2,0.3-0.1,0.5
					c0,0.2,0.2,0.3,0.3,0.4c0.5,0.3,1.1,0.2,1.6-0.1l0,0l0.7,0c0.5,0.3,1.1,0.3,1.6,0c0.1-0.1,0.3-0.2,0.3-0.4
					c0-0.2-0.1-0.4-0.1-0.5c-0.3-0.8-0.2-1.6,0-2.5c0.2-0.8,0.6-1.6,0.6-2.4"/>
			</g>
			<path class="st29" d="M110.1,310.3c-0.4,0-0.8,0.3-1,0.8h0.2c0.2-0.3,0.5-0.5,0.8-0.5s0.6,0.2,0.8,0.5h0.2
				C110.9,310.6,110.5,310.3,110.1,310.3L110.1,310.3z"/>
			<path class="st29" d="M117.9,310.3c-0.4,0-0.8,0.3-1,0.8h0.2c0.2-0.3,0.5-0.5,0.8-0.5s0.6,0.2,0.8,0.5h0.2
				C118.7,310.6,118.3,310.3,117.9,310.3L117.9,310.3z"/>
			<path class="st31" d="M111.4,327.3c0.5,0.2,2.7,1,5.2,0"/>
			<g>
				<g>
					<path class="st32" d="M110.8,297.5c0,0.5,0,0.9-0.1,1.4c-0.1,1.2,0,2.4,0.1,3.5c0.1,0.4,0.1,0.7,0.3,1.1
						c0.1,0.2,0.2,0.4,0.3,0.6c0.1,0.4,0.2,0.7,0.2,1.1c0,0.3-0.3,0.6-0.6,0.6c-0.3,0-0.5-0.1-0.8-0.2c-0.1,0-0.2-0.1-0.3-0.2
						c-0.1-0.1-0.2-0.3-0.2-0.5c-0.3-0.9-0.5-1.7-0.6-2.6c-0.2-1.4,0.1-2.8,0.4-4.1c0.1-0.3,0.1-0.6,0.2-0.9
						c0.1-1.1-0.2-2.1-0.3-3.2c0-0.3,0-0.6,0.1-0.9c0.1-0.2,0.2-0.4,0.4-0.4c0.3-0.1,0.3,0,0.3,0.2c0,0.5,0.1,1,0.2,1.5
						C110.5,295.5,110.8,296.5,110.8,297.5L110.8,297.5z"/>
					<path class="st33" d="M109.3,294.5c0,0.1,0.1,0.1,0.1,0.1h0.8c0,0,0,0,0,0c-0.1-0.5-0.2-1-0.2-1.5c0-0.2,0-0.4-0.3-0.2
						c-0.2,0.1-0.3,0.3-0.4,0.4c-0.1,0.3-0.1,0.6-0.1,0.9C109.3,294.3,109.3,294.4,109.3,294.5"/>
				</g>
				<g>
					
						<ellipse transform="matrix(0.9759 -0.2183 0.2183 0.9759 -62.8006 31.2215)" class="st34" cx="109.9" cy="299.8" rx="0.8" ry="0.1"/>
					<path class="st35" d="M110.7,299.6c0,0-0.2,0-0.8,0.2s-0.8,0.2-0.8,0.2c0,0,0.4,0,0.8-0.1C110.4,299.7,110.7,299.6,110.7,299.6
						z"/>
				</g>
				<g>
					
						<ellipse transform="matrix(0.9881 -0.1537 0.1537 0.9881 -44.4751 20.4749)" class="st34" cx="110.2" cy="297.9" rx="0.8" ry="0.1"/>
					<path class="st35" d="M110.9,297.8c0,0-0.2,0-0.8,0.1s-0.8,0.1-0.8,0.1s0.4,0,0.8-0.1C110.6,297.9,110.9,297.8,110.9,297.8
						L110.9,297.8z"/>
				</g>
				<g>
					
						<ellipse transform="matrix(0.9977 -6.731876e-02 6.731876e-02 0.9977 -19.6812 8.0815)" class="st34" cx="110.1" cy="296.1" rx="0.6" ry="0"/>
					<path class="st35" d="M110.6,296c0,0-0.1,0-0.6,0s-0.6,0-0.6,0c0,0,0.3,0,0.6,0C110.4,296.1,110.6,296.1,110.6,296z"/>
				</g>
				<g class="st36">
					<path class="st33" d="M111.2,303.5c-0.2-0.3-0.2-0.7-0.3-1.1c0-0.3-0.1-0.6-0.1-0.9l-1.7,0.4c0,0.2,0,0.4,0,0.5
						c0.1,0.9,0.4,1.7,0.6,2.6c0.1,0.2,0.1,0.3,0.2,0.5c0.1,0.1,0.2,0.1,0.3,0.2c0.2,0.1,0.5,0.1,0.8,0.2c0.3,0,0.6-0.2,0.6-0.6
						c0-0.4-0.1-0.8-0.2-1.1C111.4,303.9,111.3,303.7,111.2,303.5L111.2,303.5z"/>
				</g>
				<g>
					
						<ellipse transform="matrix(0.9759 -0.2183 0.2183 0.9759 -63.2055 31.2676)" class="st34" cx="109.9" cy="301.7" rx="0.9" ry="0.1"/>
					<path class="st35" d="M110.8,301.4c0,0-0.2,0-0.9,0.2s-0.9,0.2-0.9,0.2c0,0,0.4,0,0.9-0.1C110.4,301.6,110.8,301.5,110.8,301.4
						L110.8,301.4z"/>
				</g>
				<g>
					
						<ellipse transform="matrix(0.9759 -0.2183 0.2183 0.9759 -63.6022 31.3834)" class="st34" cx="110.2" cy="303.5" rx="0.9" ry="0.1"/>
					<path class="st35" d="M111.2,303.3c0,0-0.2,0-0.9,0.2s-0.9,0.2-0.9,0.2c0,0,0.4,0,0.9-0.1C110.7,303.5,111.2,303.3,111.2,303.3
						L111.2,303.3z"/>
				</g>
			</g>
			<g>
				<g>
					<path class="st32" d="M117.2,297.5c0,0.5,0,0.9,0.1,1.4c0.1,1.2,0,2.4-0.1,3.5c-0.1,0.4-0.1,0.7-0.3,1.1
						c-0.1,0.2-0.2,0.4-0.3,0.6c-0.1,0.4-0.2,0.7-0.2,1.1c0,0.3,0.3,0.6,0.6,0.6c0.3,0,0.5-0.1,0.8-0.2c0.1,0,0.2-0.1,0.3-0.2
						c0.1-0.1,0.2-0.3,0.2-0.5c0.3-0.9,0.5-1.7,0.6-2.6c0.2-1.4-0.1-2.8-0.4-4.1c-0.1-0.3-0.1-0.6-0.2-0.9c-0.1-1.1,0.2-2.1,0.3-3.2
						c0-0.3,0-0.6-0.1-0.9c-0.1-0.2-0.2-0.4-0.4-0.4c-0.3-0.1-0.3,0-0.3,0.2c0,0.5-0.1,1-0.2,1.5
						C117.6,295.5,117.2,296.5,117.2,297.5L117.2,297.5z"/>
					<path class="st33" d="M118.7,294.5c0,0.1-0.1,0.1-0.1,0.1h-0.8c0,0,0,0,0,0c0.1-0.5,0.2-1,0.2-1.5c0-0.2,0-0.4,0.3-0.2
						c0.2,0.1,0.3,0.3,0.4,0.4c0.1,0.3,0.1,0.6,0.1,0.9C118.7,294.3,118.7,294.4,118.7,294.5"/>
				</g>
				<g>
					
						<ellipse transform="matrix(0.2183 -0.9759 0.9759 0.2183 -200.2066 349.571)" class="st34" cx="118.1" cy="299.8" rx="0.1" ry="0.9"/>
					<path class="st35" d="M117.3,299.6c0,0,0.2,0,0.8,0.2s0.8,0.2,0.8,0.2c0,0-0.4,0-0.8-0.1C117.7,299.7,117.3,299.6,117.3,299.6z
						"/>
				</g>
				<g>
					
						<ellipse transform="matrix(0.1537 -0.9881 0.9881 0.1537 -194.6839 368.5864)" class="st34" cx="117.8" cy="297.9" rx="0.1" ry="0.8"/>
					<path class="st35" d="M117.1,297.8c0,0,0.2,0,0.8,0.1s0.8,0.1,0.8,0.1s-0.4,0-0.8-0.1C117.4,297.9,117.1,297.8,117.1,297.8
						L117.1,297.8z"/>
				</g>
				<g>
					
						<ellipse transform="matrix(6.731877e-02 -0.9977 0.9977 6.731877e-02 -185.4084 393.7974)" class="st34" cx="117.9" cy="296.1" rx="0.1" ry="0.5"/>
					<path class="st35" d="M117.4,296c0,0,0.1,0,0.6,0s0.6,0,0.6,0c0,0-0.3,0-0.6,0C117.6,296.1,117.4,296.1,117.4,296z"/>
				</g>
				<g class="st36">
					<path class="st37" d="M116.9,303.5c0.2-0.3,0.2-0.7,0.3-1.1c0-0.3,0.1-0.6,0.1-0.9l1.7,0.4c0,0.2,0,0.4,0,0.5
						c-0.1,0.9-0.4,1.7-0.6,2.6c-0.1,0.2-0.1,0.3-0.2,0.5c-0.1,0.1-0.2,0.1-0.3,0.2c-0.2,0.1-0.5,0.1-0.8,0.2
						c-0.3,0-0.6-0.2-0.6-0.6c0-0.4,0.1-0.8,0.2-1.1C116.7,303.9,116.8,303.7,116.9,303.5L116.9,303.5z"/>
				</g>
				<g>
					
						<ellipse transform="matrix(0.2183 -0.9759 0.9759 0.2183 -202.0139 351.0269)" class="st34" cx="118.1" cy="301.6" rx="0.1" ry="0.9"/>
					<path class="st35" d="M117.2,301.4c0,0,0.2,0,0.9,0.2s0.9,0.2,0.9,0.2c0,0-0.4,0-0.9-0.1C117.6,301.6,117.2,301.5,117.2,301.4
						L117.2,301.4z"/>
				</g>
				<g>
					
						<ellipse transform="matrix(0.2183 -0.9759 0.9759 0.2183 -204.0882 352.1491)" class="st34" cx="117.8" cy="303.5" rx="0.1" ry="0.9"/>
					<path class="st35" d="M116.9,303.3c0,0,0.2,0,0.9,0.2s0.9,0.2,0.9,0.2c0,0-0.4,0-0.9-0.1C117.3,303.5,116.9,303.3,116.9,303.3
						L116.9,303.3z"/>
				</g>
			</g>
		</g>
	</g>
	<g id="occhiali" class="st38">
		<path class="st5" d="M216.1,93.7L216.1,93.7c-0.1-0.2-0.2-0.4-0.3-0.6c-0.3-0.5-0.7-0.9-1.1-1.2c-0.4-0.2-0.8-0.4-1.2-0.5
			c-0.8-0.3-1.6-0.4-2.4-0.6c-1.6-0.3-3.2-0.4-4.8-0.5s-3.2-0.2-4.8-0.1c-1.2,0-2.3,0-3.5,0.1h0.1c0,0-8.3-0.3-19.6,2.2
			c0,0-1.7,0.2-4.3,0.3c-2.7-0.1-4.3-0.3-4.3-0.3c-11.2-2.5-19.6-2.2-19.6-2.2h0.1c-1.1,0-2.3-0.1-3.5-0.1c-1.6,0-3.2,0-4.8,0.1
			c-1.6,0.1-3.2,0.3-4.8,0.5c-0.8,0.2-1.6,0.3-2.4,0.6c-0.4,0.1-0.8,0.3-1.2,0.5c-0.4,0.2-0.8,0.7-1.1,1.2c-0.1,0.2-0.2,0.4-0.3,0.6
			l0,0c0,0-0.8,2.1-2.9,2.8l0.1,5.6c0,0,1.4-0.2,1.9,0.8c0.2,2.7,0.6,5.4,1.3,7.8c0.2,0.9,0.6,1.8,0.9,2.6c0.4,0.8,0.7,1.7,1.2,2.4
			c0.2,0.4,0.5,0.7,0.8,1c0.1,0.2,0.3,0.3,0.4,0.4l0.1,0.1c0.1,0,0.1,0,0.1,0.1c0,0,0.1,0,0.1,0.1c0.1,0.1,0.2,0.1,0.3,0.1
			c0.7,0.3,1.4,0.4,2.1,0.5c2.3,0.4,4.6,0.5,6.7,0.6c1.9,0.1,3.8,0.2,5.7,0.2c3.6,0,9.7-0.3,11.1-2.1c2.3-3.3,5.3-11.9,5.3-11.9
			c1.4-3.6,2-5.6,2.2-7.5c0.6-0.1,2.2-0.4,4.4-0.4c2.2,0,3.8,0.3,4.4,0.4c0.3,1.9,0.9,3.9,2.2,7.5c0,0,2.9,8.6,5.3,11.9
			c1.3,1.8,7.5,2.1,11.1,2.1c1.9,0,3.8-0.1,5.7-0.2c2.1-0.1,4.3-0.3,6.7-0.6c0.7-0.1,1.4-0.2,2.1-0.5c0.1,0,0.2-0.1,0.3-0.1
			c0,0,0.1,0,0.1-0.1c0,0,0,0,0.1-0.1l0.1-0.1c0.1-0.1,0.3-0.2,0.4-0.4c0.3-0.3,0.6-0.7,0.8-1c0.5-0.7,0.9-1.5,1.2-2.4
			c0.3-0.8,0.6-1.7,0.9-2.6c0.7-2.5,1.1-5.1,1.3-7.8c0.6-1,1.9-0.8,1.9-0.8l0.1-5.6C216.9,95.7,216.1,93.7,216.1,93.7L216.1,93.7z
			 M175.7,96.2L175.7,96.2c-0.2,0-0.4,0-0.6,0c0,0-0.1,0-0.1,0c-0.2,0-0.3,0-0.5,0c-0.1,0-0.2,0-0.3,0s-0.2,0-0.3,0
			c-0.2,0-0.3,0-0.5,0c0,0-0.1,0-0.1,0c-0.2,0-0.4,0-0.6,0l0,0c-0.9,0.1-1.9,0.2-2.9,0.3c0.2-1.7,0-2.7,0-2.7h8.6c0,0-0.1,1,0,2.7
			C177.6,96.4,176.6,96.3,175.7,96.2L175.7,96.2z"/>
		<path class="st39" d="M169,97.2c-0.3,4.7-3.8,15-6.9,19.3c-0.9,1.3-4.9,2-10.8,2c-1.9,0-3.8-0.1-5.6-0.2c-2.1-0.2-4.4-0.4-6.7-0.9
			c-0.7-0.1-1.4-0.3-2-0.6c-0.1,0-0.1-0.1-0.2-0.1c0,0,0,0,0,0c0,0,0,0,0,0l-0.1-0.1c-0.1-0.1-0.3-0.3-0.4-0.4
			c-0.2-0.3-0.5-0.6-0.7-0.9c-0.4-0.7-0.8-1.4-1.1-2.3c-0.3-0.8-0.6-1.7-0.8-2.5c-0.4-1.8-0.8-3.6-0.9-5.5c-0.2-1.9-0.3-3.8-0.2-5.7
			c0.1-1,0.1-1.9,0.3-2.8c0.2-0.9,0.4-1.8,0.8-2.5c0.1-0.2,0.2-0.3,0.3-0.4l0.1-0.1l0,0l0,0l0.1-0.1c0.1-0.1,0.1-0.1,0.2-0.1
			c0.3-0.2,0.7-0.3,1-0.4c0.7-0.2,1.5-0.4,2.3-0.5c3.1-0.6,6.3-0.7,9.4-0.8c1.6,0,3.1,0,4.6,0s3,0.1,4.5,0.2c3,0.2,5.8,0.6,8.5,1.3
			c0.7,0.2,1.3,0.4,1.9,0.6c0.6,0.3,1.2,0.6,1.7,1c0.2,0.2,0.5,0.5,0.6,0.8c0.1,0.3,0.1,0.7,0.2,1.1C169,96.6,169,96.9,169,97.2
			L169,97.2z"/>
		<path class="st39" d="M215.9,104.9c-0.2,1.9-0.5,3.7-0.9,5.5c-0.2,0.9-0.5,1.7-0.8,2.5c-0.3,0.8-0.7,1.6-1.1,2.3
			c-0.2,0.3-0.4,0.7-0.7,0.9c-0.1,0.1-0.3,0.3-0.4,0.4l-0.1,0.1c0,0,0,0,0,0c0,0,0,0,0,0c-0.1,0-0.1,0.1-0.2,0.1
			c-0.6,0.3-1.3,0.4-2,0.6c-2.3,0.5-4.6,0.7-6.7,0.9c-1.8,0.1-3.7,0.2-5.6,0.2c-6,0-9.9-0.7-10.8-2c-3.1-4.3-6.6-14.6-6.9-19.3
			c0-0.3,0-0.5,0-0.8c0-0.4,0.1-0.8,0.2-1.1c0.1-0.3,0.3-0.6,0.6-0.8c0.5-0.4,1.1-0.7,1.7-1s1.3-0.5,1.9-0.6c2.6-0.7,5.5-1,8.5-1.3
			c1.5-0.1,3-0.2,4.5-0.2s3.1,0,4.6,0c3.1,0.1,6.3,0.2,9.4,0.8c0.8,0.1,1.5,0.3,2.3,0.5c0.4,0.1,0.7,0.3,1,0.4
			c0.1,0.1,0.1,0.1,0.2,0.1l0.1,0.1l0,0l0,0l0.1,0.1c0.1,0.1,0.2,0.3,0.3,0.4c0.4,0.7,0.6,1.6,0.8,2.5c0.2,0.9,0.3,1.9,0.3,2.8
			C216.1,101.1,216,103.1,215.9,104.9L215.9,104.9z"/>
		
			<animate  accumulate="none" additive="replace" attributeName="opacity" begin="4s;occhiali_opacity_return.end+7s" calcMode="linear" dur="2s" fill="remove" id="occhiali_opacity" restart="always" values="0;1">
			</animate>
		
			<animate  accumulate="none" additive="replace" attributeName="opacity" begin="occhiali_opacity.end" calcMode="linear" dur="17s" fill="remove" id="occhiali_opacity_freeze" restart="always" values="1">
			</animate>
		
			<animate  accumulate="none" additive="replace" attributeName="opacity" begin="occhiali_opacity_freeze.end" calcMode="linear" dur="2s" fill="remove" id="occhiali_opacity_return" restart="always" values="1;0">
			</animate>
	</g>
	<g id="cappello" class="st38">
		<g>
			<path class="st5" d="M166.6,12.3h14.7c0.6,0,1,0.5,1,1v2c0,0.6-0.5,1-1,1h-14.7c-0.6,0-1-0.5-1-1v-2
				C165.5,12.8,166,12.3,166.6,12.3z"/>
			<path class="st40" d="M117.6,66.4l0.5,9.1c-0.2,0.7-0.7,1.3,0,1.8l0,0c1.7,1.2,2.3,1.9,4.9,1.9h0.9c0.5,0,1-0.1,1.4-0.2
				c10.5-3,23.4-5.8,38.5-7.2c3.6-0.3,7.1-0.6,10.5-0.8V14.9h-6.5c-0.2,0-0.3,0-0.5,0l-6,0.8c-3.8,0.5-7.4,1.2-10.9,2.2l0,0
				c-5.1,1.5-9.9,3.3-14.4,5.4l0,0c-2.3,1.1-4.4,2.4-6.3,3.9l-3.9,3c-1.8,1.4-3.2,3.1-4.1,4.9l-0.7,1.5c-0.5,1.8-1.3,4.5-1.8,6.3
				l-1.8,19.7L117.6,66.4L117.6,66.4z"/>
			<path class="st40" d="M230.7,69.5c-0.2,1.9-0.4,3.8-0.6,5.8c0.2,0.7,0.6,1.5-0.1,1.9v0.5c-1.7,1.2-2.5,1.5-5.1,1.5h-0.9
				c-0.5,0-1-0.1-1.4-0.2c-10.5-3-23.4-5.8-38.5-7.2c-3.6-0.3-7.1-0.6-10.5-0.8V14.9h6.5c0.2,0,0.3,0,0.5,0l6,0.8
				c3.8,0.5,7.4,1.2,10.9,2.2l0,0c5.1,1.5,9.9,3.3,14.4,5.4l0,0c2.3,1.1,4.4,2.4,6.3,3.9l3.9,3c1.9,1.4,3.2,3.1,4.1,4.9l0.7,1.5
				c0.5,1.8,1.3,4.5,1.8,6.3l1.8,19.7C230.5,64.8,230.6,67.2,230.7,69.5L230.7,69.5z"/>
			<path class="st18" d="M118,74.6c0.1,0.3,0.5,0.5,1.1,0.5c0.2,0.2,0.5,0.3,0.7,0.4h12.1c1.4-0.3,2.9-0.7,4.4-1l-17.6-0.1
				C118.7,74.4,118,74.6,118,74.6z"/>
			<path class="st18" d="M230.4,74.1l-2.7-1L230.4,74.1c0.1-0.2,0.1-0.4,0-0.7l-1.5-5.9c-0.4-1.4-2-2.6-4.3-3.1
				C213,62,195.5,59.3,174,59.3c-21.2,0-38.4,2.7-49.9,5.1c-2.3,0.5-3.9,1.7-4.3,3.1c-0.6,2.3-1.2,4.5-1.7,6.8h0.6l1.4-0.4l-1.4,0.4
				l17.6,0.1c8.2-1.8,17.6-3.4,28-4.4c3.4-0.3,6.8-0.5,10-0.7c3.2,0.2,6.6,0.4,10,0.7c11.4,1,21.6,2.8,30.3,4.9l15,0.1
				C230.1,74.8,230.3,74.5,230.4,74.1L230.4,74.1z"/>
			<path class="st18" d="M118,74.4c0,0.1,0,0.2,0,0.2l0.6-0.2H118L118,74.4z"/>
			<path class="st18" d="M221,76.6c0.4,0.1,0.9,0.2,1.4,0.2h0.8c2.1,0,4.1-0.4,5.7-1.3h-12.1C218.3,75.9,219.7,76.2,221,76.6
				L221,76.6z"/>
			<path class="st18" d="M214.6,75c0.7,0.2,1.5,0.3,2.2,0.5h12.1c0.3-0.1,0.5-0.3,0.7-0.4L214.6,75L214.6,75z"/>
			<path class="st18" d="M125.5,76.8h0.8c0.5,0,0.9-0.1,1.4-0.2c1.4-0.4,2.8-0.7,4.2-1.1h-12.1C121.4,76.3,123.4,76.8,125.5,76.8
				L125.5,76.8z"/>
			<path class="st41" d="M214.6,75l-8.3-0.1c0.9,0.2,1.9,0.4,2.8,0.6h7.6C216.1,75.3,215.4,75.2,214.6,75L214.6,75z"/>
			<path class="st42" d="M118,74.4c-0.1,0.4,0.4,0.7,1.1,0.7l0,0c1.6,1.1,4,1.7,6.4,1.7h0.8c0.5,0,0.9-0.1,1.4-0.2
				c10-2.7,22.3-5.2,36.7-6.5c3.4-0.3,6.8-0.5,10-0.7c3.2,0.2,6.6,0.4,10,0.7c14.3,1.3,26.6,3.8,36.7,6.5c0.4,0.1,0.9,0.2,1.4,0.2
				h0.8c2.4,0,4.8-0.6,6.4-1.7c0.7-0.4,0.6-1.1,0.4-1.7l-1.1-5.8c-0.4-1.4-2-2.6-4.3-3.1C213,62,195.5,59.3,174,59.3
				c-21.2,0-38.4,2.7-49.9,5.1c-2.3,0.5-3.9,1.7-4.3,3.1C119.2,69.8,118.6,72.1,118,74.4L118,74.4z"/>
			<g>
				<path class="st5" d="M136.3,74.5c-1.5,0.3-3,0.7-4.4,1h7.4c1.6-0.3,3.2-0.7,4.9-1L136.3,74.5L136.3,74.5z"/>
				<path class="st5" d="M228.9,75.5c-1.6,0.8-3.6,1.3-5.7,1.3h-0.8c-0.5,0-0.9-0.1-1.4-0.2c-1.4-0.4-2.8-0.7-4.2-1.1l-7.9,0.1
					c5.1,1.1,9.6,2.4,14.1,3.5c0.5,0.1,1.2,0.1,1.7,0.1h0.9c2.6,0,2.7-0.3,4.4-1.5c0.7-0.5,0.2-1.8,0.1-2.4L228.9,75.5L228.9,75.5z"
					/>
				<path class="st5" d="M122.9,79.2h0.9c0.5,0,1-0.1,1.4-0.2c4.3-1.2,9-2.4,14.1-3.5h-7.4c-1.4,0.4-2.9,0.7-4.2,1.1
					c-0.4,0.1-0.9,0.2-1.4,0.2h-0.8c-2.1,0-4.1-0.4-5.7-1.3H118c-0.2,0.7-0.7,1.3,0,1.8c0.4,0.4,1.2,1.1,2.3,1.5
					C121.4,79.2,122.4,79.2,122.9,79.2L122.9,79.2z"/>
				<path class="st5" d="M174.4,69.4c-3.2,0.2-6.6,0.4-10,0.7c-10.5,0.9-19.8,2.5-28,4.4l8,0.1c6-1.1,12.5-2.1,19.5-2.7
					c3.6-0.3,7.1-0.6,10.5-0.8c3.4,0.2,6.9,0.4,10.5,0.8c7.8,0.7,15,2,21.6,3.3l8.3-0.1c-8.7-2.1-18.9-3.8-30.3-4.9
					C180.9,69.8,177.6,69.6,174.4,69.4L174.4,69.4z"/>
			</g>
			<path class="st5" d="M151.9,30.3h1.8c0.5,0,1,0.4,1,1v1.8c0,0.5-0.4,1-1,1h-1.8c-0.5,0-1-0.4-1-1v-1.8
				C151,30.7,151.4,30.3,151.9,30.3z"/>
			<path class="st43" d="M152.2,30.9h1.3c0.4,0,0.7,0.3,0.7,0.7v1.3c0,0.4-0.3,0.7-0.7,0.7h-1.3c-0.4,0-0.7-0.3-0.7-0.7v-1.3
				C151.5,31.2,151.8,30.9,152.2,30.9z"/>
			<path class="st5" d="M194.9,30.3h1.8c0.5,0,1,0.4,1,1v1.8c0,0.5-0.4,1-1,1h-1.8c-0.5,0-1-0.4-1-1v-1.8
				C194,30.7,194.4,30.3,194.9,30.3z"/>
			<path class="st43" d="M195.2,30.9h1.3c0.4,0,0.7,0.3,0.7,0.7v1.3c0,0.4-0.3,0.7-0.7,0.7h-1.3c-0.4,0-0.7-0.3-0.7-0.7v-1.3
				C194.5,31.2,194.8,30.9,195.2,30.9z"/>
			<path d="M173.9,14.2h0.8c0.1,0,0.3,0.1,0.3,0.3v36.5c0,0.1-0.1,0.3-0.3,0.3h-0.8c-0.1,0-0.3-0.1-0.3-0.3V14.4
				C173.6,14.3,173.7,14.2,173.9,14.2z"/>
		</g>
		<path class="st44" d="M223.2,57.6c-0.2,1.4-1.4,2.4-2.8,2.2c-14.2-1.5-29.7-2.5-46.3-2.8c-16.6-0.2-32.1,0.9-46.3,2
			c-1.3,0.1-2.5-0.8-2.8-2.1c-0.4-2.5-0.7-5.5-0.6-8.9c0.1-2.6,0.3-4.9,0.7-7c0.2-1.2,1.3-2.2,2.6-2.2h93.1c1.3,0,2.4,1,2.6,2.2
			c0.3,2.4,0.5,5.1,0.6,8.1C223.7,52.4,223.5,55.1,223.2,57.6L223.2,57.6z"/>
		<text transform="matrix(1 0 0 1 147.45 53.95)" class="st5 st45 st46">Last Lap</text>
		
			<animate  accumulate="none" additive="replace" attributeName="opacity" begin="4s;cappello_opacity_return.end+7s" calcMode="linear" dur="2s" fill="remove" id="cappello_opacity" restart="always" values="0;1">
			</animate>
		
			<animate  accumulate="none" additive="replace" attributeName="opacity" begin="cappello_opacity.end" calcMode="linear" dur="17s" fill="remove" id="cappello_opacity_freeze" restart="always" values="1">
			</animate>
		
			<animate  accumulate="none" additive="replace" attributeName="opacity" begin="cappello_opacity_freeze.end" calcMode="linear" dur="2s" fill="remove" id="cappello_opacity_return" restart="always" values="1;0">
			</animate>
	</g>
</g>
</svg>
