<?xml version="1.0" encoding="UTF-8"?>
<svg id="Livello_1" data-name="Livello 1" xmlns="http://www.w3.org/2000/svg" viewBox="0 0 340 340">
  <circle cx="170" cy="170" r="170" style="fill: #0b9fd5;"/>
  <g>
    <path d="M287.55,144.46c-.69-10.48-6.01-18.73-18.64-23.64-13.98-5.44-28.01-4.68-40.56,2.16-9.4,5.13-15.81,16.48-10.03,27.06,4.92,9.01,11.56,16.83,24.41,20.07,19.15,4.84,35.16-2.05,41.45-14.49,1.79-3.54,2.28-7.43,3.37-11.16Z" style="fill: #fff;"/>
    <path d="M260.27,116.36c-6.5-3.95-14.13-6.09-22.02-5.65-5.79,.32-11.67,2.38-15.12,6.6-.35,.43-.76,.85-1.23,1.21-8.93,6.86-13.38,15.04-15.18,24.52-1.29,6.81-.77,13.45,1.21,19.85,1.66,5.39,5.19,10.67,9.19,15.39,4.98,5.89,10.64,11.64,17.23,16.54,5.5,4.09,12.31,7.62,19.39,10.02,7.64,2.59,16.23,3.69,24.48,5.22,3.84,.71,14.41-3.75,15.92-6.36,.99-1.72-.89-3.17-4.27-3.2-4.13-.04-8.28,.23-12.37-.08-3.17-.24-6.25-1.11-9.35-1.77-4.44-.94-8.98-1.7-13.24-2.97-9.3-2.76-19.14-4.91-25.64-11.27-.73-.72-2.47-.87-3.29-1.14-1.76-2.06-3.68-3.93-5.06-6-5.03-7.54-9.53-15.3-9.78-23.85-.17-5.59-1.98-11.48,2.03-16.72,4.26-5.56,8.37-11.33,13.85-16.21,7.22-6.43,19.98-9.01,30.69-4.89,.81,.31,1.7,.5,2.56,.75Z" style="fill: #fff;"/>
    <path d="M182.51,124.92c-3.32,3.36-6.9,6.61-9.84,10.15-1.06,1.28-.59,3.26-.77,4.93-.05,.48,.28,1.26,0,1.4-3.68,1.8-2.15,4.57-2.42,6.96-1.14,9.86-1.14,19.79,3.28,29.18,4.57,9.72,9.52,19.47,16.13,28.47,4.55,6.2,11.82,11.42,18.62,16.54,3.72,2.8,8.87,4.61,13.57,6.63,8.47,3.63,16.81,7.55,25.74,10.45,5.58,1.81,12.15,1.96,18.26,2.89,2.12,.32,4.21,1.02,6.31,1.02,1.6,0,3.21-.84,4.81-1.3-1.14-.83-2.11-2.14-3.44-2.39-5.67-1.09-11.65-1.43-17.13-2.86-8.33-2.18-16.34-5.02-24.46-7.64-.29-.09-.22-.81-.31-1.18-7.84-4.96-16.05-10.07-24.1-15.31-2.23-1.45-3.9-3.37-5.93-5-3.26-2.6-6.56-5.17-9.93-7.7-5.69-4.26-6.88-10.14-9.84-15.35-6.94-12.19-9.38-25.05-6.76-38.11,1.27-6.32,4.82-12.39,7.38-18.57,.42-1.01,1.03-1.97,1.56-2.95-.24-.09-.47-.18-.71-.26Z" style="fill: #fff;"/>
    <path d="M134.58,127.05c-1.45,4.55-3.66,9.05-4.2,13.66-1.41,11.92-2.47,23.89,.45,35.79,2.62,10.71,6.93,21,13.31,30.85,2.99,4.63,4.79,9.67,7.65,14.35,3.88,6.37,9.26,12.05,15.94,17,7,5.19,13.58,10.78,21.26,15.35,5.95,3.54,13.28,5.82,20.07,8.56,3.09,1.25,6.29,2.38,9.56,3.35,9.84,2.93,19.68,5.84,29.63,8.55,2.19,.6,4.82,.31,7.25,.43,.07-.33,.14-.66,.21-.99-1.98-.55-3.98-1.08-5.95-1.65-8.88-2.59-18.21-4.56-26.5-7.95-9.14-3.73-17.2-8.89-25.93-13.2-17.57-8.68-31.68-19.76-42.89-32.98-12.37-14.6-19.24-30.52-22.16-47.58-1.89-11.09-.92-22.07,.25-33.08,.37-3.46,1.95-6.86,2.97-10.28l-.91-.17Z" style="fill: #fff;"/>
    <path d="M66.88,135.12c.11,.6,.02,1.28,.39,1.78,.6,.81,1.5,1.5,2.28,2.24,.98-.74,2.51-1.37,2.84-2.25,1.63-4.27,2.83-8.63,4.39-12.92,2.24-6.14,4.36-12.32,7.1-18.34,1.94-4.27,5.22-8.21,7.13-12.48,.94-2.11,.85-4.82-.07-6.96-.85-1.98-3.16-.81-4.44,.32-7.05,6.16-12.35,12.98-14.2,21.09-2.08,9.13-4.23,18.25-6.34,27.38,.31,.05,.62,.09,.93,.14Z" style="fill: #fff;"/>
    <path d="M67.82,76.71c-2.47,3.39-4.96,6.78-7.42,10.17-1.21,1.67-2.11,3.5-3.63,4.99-5.29,5.21-6.47,11.52-8.59,17.54-2.12,6.02-3.9,12.13-5.41,18.25-.77,3.15-.63,6.42-.89,9.64-.15,1.91-.53,3.83-.33,5.72,.11,1.02,1.23,1.97,1.89,2.95,.97-.84,2.6-1.6,2.8-2.54,1.58-7.2,2.69-14.46,4.3-21.65,3.22-14.38,9.44-28.07,17.74-41.26,.64-1.02,.79-2.21,1.16-3.32l-1.64-.5Z" style="fill: #fff;"/>
    <path d="M244.03,41.52c-2.11-1.26-4.02-2.8-6.36-3.74-17.72-7.12-36.52-11.16-56.86-10.85-13.83,.21-27.47,1.16-40.57,4.69-1.75,.47-3.33,1.3-5.9,2.33,7.79,1.2,7.82,1.28,16.77-.51,18.76-3.75,37.53-3.46,56.35-.35,1.32,.22,2.72,.48,4.03,.37,7.62-.64,13.95,1.92,20.45,4.26,3.94,1.42,8.11,2.49,12.18,3.72l-.1,.08Z" style="fill: #fff;"/>
    <path d="M173.86,46.96c-8.59-.84-16.31,.59-23.3,4.49-3.41,1.9-7.37,3.25-10.95,5-.84,.41-1.14,1.42-1.68,2.16,1.02,.39,2,1.02,3.06,1.11,1.3,.11,2.73-.1,3.99-.41,4.24-1.04,8.43-2.21,12.66-3.29,6.39-1.64,12.65-3.77,19.23-4.7,5.04-.71,10.47,.09,15.73,.24,2.85,.08,5.71,.29,8.55,.22,.79-.02,1.54-.81,2.31-1.24-.73-.36-1.42-.93-2.21-1.03-9.07-1.15-18.15-2.23-27.22-3.33l-.16,.8Z" style="fill: #fff;"/>
    <path d="M302.85,158.1c-3.68,2.44-7.17,5.07-11.1,7.26-3.76,2.1-7.96,3.78-12.03,5.56-2.54,1.11-5.3,1.96-7.77,3.14-.98,.47-2.21,1.73-1.96,2.28,.4,.85,1.96,1.95,3.06,1.97,5.28,.09,10.57-.08,15.86-.27,10.92-.39,10.72-7.31,13.12-12.6,1.01-2.22,1.37-4.61,2.02-6.93-.4-.14-.8-.28-1.2-.42Z" style="fill: #fff;"/>
    <path d="M103.82,142.9c.55-.55,1.24-.96,1.44-1.47,1.76-4.64,3.56-9.28,5.11-13.97,2.01-6.06,3.52-12.22,5.8-18.22,.98-2.57,3.42-4.82,5.1-7.25,.59-.85,.89-1.8,1.32-2.71-.46-.22-.93-.44-1.39-.66-1.18,1.28-2.39,2.54-3.51,3.84-.33,.39-.18,1.13-.6,1.35-4.01,2.1-4.78,5.93-7.81,8.31-7.05,5.55-7.07,12.69-9.38,19.33-.27,.78,.27,1.7,.42,2.56,.21,1.23,.75,2.5,.53,3.69-.4,2.17-.24,3.99,2.96,5.18Z" style="fill: #fff;"/>
    <path d="M228.58,302.55c-.35-.19-.69-.38-1.32-.73,1.08-.15,1.93-.26,2.55-.35-20.13-4.45-39.16-11.02-57.09-19.38-18.1-8.44-33.74-18.89-47.2-31.36,.71,.83,1.38,1.68,2.14,2.49,.86,.91,1.66,1.89,2.72,2.66,9.65,7.01,19.23,14.07,29.07,20.93,5.91,4.11,11.82,8.36,18.51,11.68,7.39,3.67,14.6,7.79,23.74,9.23,5.54,.88,10.85,2.57,16.32,3.72,3.38,.71,6.88,1.1,10.33,1.63,.08-.17,.16-.35,.24-.52Z" style="fill: #fff;"/>
    <path d="M207.68,71.83c-2.7-.52-5.37-1.31-8.11-1.5-13.77-.99-27.36-.21-40.07,4.08-3.71,1.25-6.5,4-9.72,6.06,.34,.35,.67,.7,1.01,1.05,1.07-.38,2.1-.86,3.21-1.14,9-2.24,17.87-4.98,27.09-6.47,6.36-1.03,13.23-.31,19.87-.38,2.22-.02,4.44-.09,6.66-.13,.02-.52,.04-1.04,.06-1.56Z" style="fill: #fff;"/>
    <path d="M58.02,65.64c-3.59,5.4-7.54,10.69-10.68,16.24-3.73,6.61-6.53,13.49-10.13,20.14-4.93,9.12-6.26,18.77-8.17,28.35-.56,2.82-1.38,5.66-1.37,8.49,.01,2.86,.92,5.71,1.73,8.57,2.94-28.53,10.32-56.12,29.73-81.32l-1.12-.48Z" style="fill: #fff;"/>
    <path d="M209.65,94.31c-15.07-3.84-25.65-.85-33.94,8.15,1.2-.06,2.17,0,3.04-.17,8.6-1.79,17.21-3.56,25.76-5.48,1.57-.35,2.86-1.36,5.14-2.5Z" style="fill: #fff;"/>
    <path d="M55.18,76.64c.92-.81,2.09-1.53,2.73-2.45,8.57-12.2,18.92-23.45,33-32.51,5.9-3.8,12.65-6.88,19.11-10.19,4.11-2.11,8.36-4.08,12.61-6.04,2.34-1.08,4.83-1.96,7.19-3.02,.47-.21,.61-.82,.9-1.25,0,0,.06,.08,.06,.08-21.23,6.76-39.89,16.24-54.11,29.82-7.39,7.06-13.3,14.97-19.81,22.53-.78,.91-1.07,2.06-1.58,3.1l-.09-.07Z" style="fill: #fff;"/>
    <path d="M243.12,25.78c-4.12-1.49-8.1-3.26-12.38-4.44-25.86-7.12-52.34-9.25-79.43-4.7-6.96,1.17-13.69,3.07-20.53,4.63,0,0-.06-.08-.07-.08,1.38,.07,2.86,.44,4.13,.19,7.45-1.49,14.74-3.73,22.3-4.54,9.94-1.07,20.09-1.16,30.16-1.47,9.53-.3,18.67,1.34,27.67,3.52,9.41,2.28,18.83,4.55,28.25,6.82l-.1,.07Z" style="fill: #fff;"/>
    <path d="M155.47,118.68c-7.03,3.62-15.82,20.36-9.35,24.97,3.12-8.35,6.28-16.77,9.35-24.97Z" style="fill: #fff;"/>
    <path d="M290.87,150.58c10.4-10.03,11.53-32.38,7.45-45.01,0,1.48-.1,2.07,.02,2.63,1.63,7.86,1.97,15.77-.02,23.57-.99,3.86-3.48,7.5-5.06,11.29-.97,2.31-1.51,4.72-2.38,7.51Z" style="fill: #fff;"/>
    <path d="M289.11,135.48c5.69-10.01-2.37-29.22-9.51-35.6,7.3,11.02,10.94,22.59,9.51,35.6Z" style="fill: #fff;"/>
    <path d="M220.31,112.81c-9.21,2.36-15.06,7.74-21.17,12.89,8.71-2.78,14.32-8.4,21.17-12.89Z" style="fill: #fff;"/>
    <path d="M79.14,280.32c7.09,6.35,13.89,12.88,21.37,18.97,4.8,3.9,10.58,7.13,15.92,10.66,.25-.21,.5-.41,.75-.62-4.31-2.84-8.93-5.47-12.87-8.57-7.46-5.87-14.52-12.02-21.79-18.03-1.04-.86-2.31-1.57-3.47-2.35l.09-.06Z" style="fill: #fff;"/>
    <path d="M258.53,93.49c6.14,5.85,12.18,11.62,18.43,17.58-3.99-7.23-9.4-13.38-18.43-17.58Z" style="fill: #fff;"/>
    <path d="M245.12,100.45c2.12,1.18,4.24,2.35,6.34,3.54,5.36,3.03,10.7,6.06,16.7,8.56-6.23-3.89-12.4-7.85-18.76-11.62-.98-.58-2.89-.29-4.37-.4,0,0,.1-.08,.1-.08Z" style="fill: #fff;"/>
    <path d="M184.46,156.67c1.45-7.37,2.85-14.48,4.34-22.03-5,7.13-4.95,14.38-4.34,22.03Z" style="fill: #fff;"/>
    <path d="M270.31,40.6c5.85,5.71,11.7,11.43,17.55,17.14,.27-.15,.55-.31,.82-.46-5.85-5.76-11.7-11.52-17.54-17.28-.28,.2-.55,.4-.83,.6Z" style="fill: #fff;"/>
    <path d="M71.1,38.97c-1.05,1.39-2.1,2.78-3.14,4.16,3.64-.46,10.49-5.45,11.69-8.72-3.03,1.63-5.85,3.13-8.66,4.64,0,0,.12-.09,.12-.09Z" style="fill: #fff;"/>
    <path d="M34.46,147.23c-.29,.55-.83,1.09-.83,1.64-.05,9.62-.04,19.23,.78,28.85,0-10.18,0-20.36,0-30.55l.04,.05Z" style="fill: #fff;"/>
    <path d="M34.42,147.18c.74-6.8,1.49-13.6,2.23-20.4-.47-.02-.95-.04-1.42-.06-.26,6.83-.52,13.66-.77,20.5,.01,.01-.03-.04-.03-.04Z" style="fill: #fff;"/>
    <path d="M55.27,76.71c-2.1,3.38-4.23,6.74-6.28,10.13-.86,1.42-1.54,2.89-2.3,4.34,.45,.13,.91,.26,1.36,.39,2.38-4.97,4.75-9.95,7.12-14.93,0,0,.09,.07,.09,.07Z" style="fill: #fff;"/>
    <path d="M304.46,147.88c-2.84,3.47-5.64,6.89-8.32,10.17,4.07-1.22,8.78-6.96,8.32-10.17Z" style="fill: #fff;"/>
    <path d="M311.6,121.98c-.78,4.19-1.55,8.38-2.33,12.56,.53,.05,1.05,.1,1.58,.15,.49-4.21,.99-8.43,1.48-12.64-.24-.02-.49-.05-.73-.07Z" style="fill: #fff;"/>
    <path d="M103.36,145.05v4.89c1.04-.21,2.5-.16,3.06-.67,1.88-1.7,.12-2.67-3.06-4.23Z" style="fill: #fff;"/>
    <path d="M243.21,25.7c5.63,2.74,11.27,5.48,16.9,8.23-4.97-3.53-10.21-6.75-17-8.15,0,0,.09-.07,.09-.07Z" style="fill: #fff;"/>
    <path d="M79.05,280.39c-3.01-3.82-6.02-7.65-9.03-11.47-.5,.24-1,.48-1.49,.72,3.54,3.56,7.09,7.12,10.63,10.68,0,0-.1,.07-.1,.07Z" style="fill: #fff;"/>
    <path d="M124.22,41.29c3.79-1.35,7.56-2.69,11.32-4.04-.15-.24-.31-.49-.46-.73-3.71,1.38-7.42,2.76-11.12,4.16-.03,.01,.12,.3,.25,.61Z" style="fill: #fff;"/>
    <path d="M244.14,41.44c1,2.68,3.75,3.64,7.04,4.07,.22-.26,.44-.51,.66-.77-2.6-1.07-5.21-2.14-7.81-3.21,0,0,.1-.08,.1-.08Z" style="fill: #fff;"/>
    <path d="M245.02,100.53c-2.12-1.93-4.38-2.87-8.1-.08,3.36,0,5.78,0,8.19,0,0,0-.09,.08-.09,.08Z" style="fill: #fff;"/>
    <path d="M43.69,96.71c-1.12,2.97-2.23,5.95-3.35,8.92,.25,.06,.5,.11,.75,.17,1.24-2.98,2.48-5.95,3.72-8.93-.37-.05-.74-.11-1.11-.16Z" style="fill: #fff;"/>
    <path d="M150.62,325c-3.6-1.49-7.19-2.98-10.79-4.48-.15,.19-.29,.38-.44,.57,3.59,1.56,7.19,3.11,10.78,4.67,.15-.25,.3-.5,.45-.76Z" style="fill: #fff;"/>
    <path d="M58.95,256.27c1.73,2.52,3.47,5.03,5.2,7.55,.33-.13,.67-.25,1-.38-1.81-2.49-3.62-4.97-5.43-7.46-.25,.1-.51,.19-.76,.29Z" style="fill: #fff;"/>
    <animateTransform id="logo_rotate" attributeName="transform" attributeType="XML"
          type="rotate"
          begin="4; logo_rotate.end+4" from="0 175 175" to="360 175 175" dur="27s" repeatCount="" />
  </g>
</svg>