<?xml version="1.0" encoding="UTF-8"?>
<svg id="Livello_1" data-name="Livello 1" xmlns="http://www.w3.org/2000/svg" viewBox="0 0 340 340">
  <rect x="0" y="0" width="340" height="340" rx="170" ry="170" style="fill: #1d1e1b;" />
  <g>
    <path d="M71.57,199.47h-15.64v-58.93h15.64v4.44h-10.37v50.05h10.37v4.44Z" style="fill: #fff;" />
    <path
      d="M149.22,170.29c0,2.47-.35,4.74-1.05,6.8-.7,2.06-1.7,3.83-3.01,5.3-1.31,1.47-2.91,2.61-4.79,3.43s-4.02,1.22-6.41,1.22-4.33-.35-6.14-1.06c-1.81-.71-3.34-1.75-4.6-3.12-1.26-1.37-2.22-3.08-2.89-5.11-.67-2.03-1-4.37-1-7.01,0-2.47,.35-4.73,1.05-6.77,.7-2.04,1.7-3.8,3.01-5.27,1.31-1.47,2.91-2.61,4.79-3.43,1.88-.81,4.02-1.22,6.41-1.22s4.33,.35,6.14,1.06c1.81,.71,3.34,1.74,4.6,3.11,1.26,1.36,2.22,3.06,2.89,5.09,.67,2.03,1,4.36,1,6.98Zm-5.65,.25c0-1.97-.22-3.68-.65-5.15-.43-1.47-1.05-2.7-1.86-3.68-.8-.98-1.78-1.72-2.93-2.22-1.15-.5-2.44-.75-3.85-.75-1.65,0-3.06,.32-4.23,.97-1.17,.65-2.14,1.51-2.89,2.58-.75,1.08-1.3,2.33-1.65,3.76-.35,1.43-.52,2.92-.52,4.49,0,1.97,.22,3.69,.65,5.17,.43,1.48,1.05,2.71,1.86,3.69,.8,.98,1.78,1.72,2.92,2.22,1.14,.5,2.43,.75,3.87,.75,1.65,0,3.06-.32,4.23-.97,1.17-.65,2.14-1.51,2.89-2.58,.75-1.08,1.3-2.33,1.65-3.76,.35-1.43,.52-2.93,.52-4.52Z"
      style="fill: #fff;" />
    <path d="M187.85,199.47h-35.71v-4.57h35.71v4.57Z" style="fill: #fff;" />
    <path id="zero_eye"
      d="M220.77,165.76c0,3.17-.32,6.06-.95,8.67-.63,2.61-1.6,4.85-2.89,6.72-1.29,1.87-2.89,3.32-4.8,4.34-1.91,1.03-4.16,1.54-6.74,1.54-2.22,0-4.24-.42-6.06-1.25s-3.37-2.12-4.66-3.85c-1.29-1.73-2.28-3.94-2.98-6.63-.7-2.68-1.05-5.87-1.05-9.55,0-3.17,.32-6.07,.97-8.69,.64-2.62,1.61-4.87,2.89-6.74,1.28-1.87,2.88-3.32,4.81-4.35,1.92-1.03,4.17-1.54,6.72-1.54,2.22,0,4.24,.42,6.06,1.25,1.82,.84,3.37,2.12,4.66,3.87,1.29,1.74,2.28,3.96,2.98,6.65,.7,2.69,1.05,5.87,1.05,9.55Zm-24.55-.19c0,.66,0,1.31,.02,1.97,0,.66,.05,1.29,.11,1.9l17.54-12.97c-.32-1.08-.72-2.06-1.21-2.95-.49-.89-1.07-1.65-1.74-2.3s-1.45-1.15-2.32-1.51c-.87-.36-1.84-.54-2.92-.54-1.44,0-2.74,.35-3.92,1.05-1.17,.7-2.17,1.74-3,3.12-.82,1.39-1.46,3.1-1.9,5.14-.44,2.04-.67,4.4-.67,7.09Zm18.97,.38c0-.72-.03-1.43-.08-2.14-.05-.71-.11-1.4-.17-2.08l-17.54,13.04c.32,1.1,.72,2.12,1.21,3.04,.49,.93,1.07,1.73,1.76,2.39,.69,.67,1.47,1.18,2.35,1.55,.88,.37,1.88,.55,3,.55,1.44,0,2.74-.35,3.92-1.05,1.17-.7,2.17-1.73,3-3.11,.83-1.37,1.46-3.08,1.9-5.12,.44-2.04,.67-4.4,.67-7.09Z"
      style="fill: #fff;">
      <animate id="occhiolino" attributeName="d"
        begin="4s;occhiolino.end+4s" dur="1s"
        from="M220.77,165.76c0,3.17-.32,6.06-.95,8.67-.63,2.61-1.6,4.85-2.89,6.72-1.29,1.87-2.89,3.32-4.8,4.34-1.91,1.03-4.16,1.54-6.74,1.54-2.22,0-4.24-.42-6.06-1.25s-3.37-2.12-4.66-3.85c-1.29-1.73-2.28-3.94-2.98-6.63-.7-2.68-1.05-5.87-1.05-9.55,0-3.17,.32-6.07,.97-8.69,.64-2.62,1.61-4.87,2.89-6.74,1.28-1.87,2.88-3.32,4.81-4.35,1.92-1.03,4.17-1.54,6.72-1.54,2.22,0,4.24,.42,6.06,1.25,1.82,.84,3.37,2.12,4.66,3.87,1.29,1.74,2.28,3.96,2.98,6.65,.7,2.69,1.05,5.87,1.05,9.55Zm-24.55-.19c0,.66,0,1.31,.02,1.97,0,.66,.05,1.29,.11,1.9l17.54-12.97c-.32-1.08-.72-2.06-1.21-2.95-.49-.89-1.07-1.65-1.74-2.3s-1.45-1.15-2.32-1.51c-.87-.36-1.84-.54-2.92-.54-1.44,0-2.74,.35-3.92,1.05-1.17,.7-2.17,1.74-3,3.12-.82,1.39-1.46,3.1-1.9,5.14-.44,2.04-.67,4.4-.67,7.09Zm18.97,.38c0-.72-.03-1.43-.08-2.14-.05-.71-.11-1.4-.17-2.08l-17.54,13.04c.32,1.1,.72,2.12,1.21,3.04,.49,.93,1.07,1.73,1.76,2.39,.69,.67,1.47,1.18,2.35,1.55,.88,.37,1.88,.55,3,.55,1.44,0,2.74-.35,3.92-1.05,1.17-.7,2.17-1.73,3-3.11,.83-1.37,1.46-3.08,1.9-5.12,.44-2.04,.67-4.4,.67-7.09Z"
        to="M220.77,172.28h-30.13v-4.57h30.13v4.57Z" />
    </path>
    <path d="M284.05,199.47h-15.64v-4.44h10.31v-50.05h-10.31v-4.44h15.64v58.93Z" style="fill: #fff;" />
  </g>
</svg>